GenBasB.ufo
<glyph name="NumSgn" format="1">
  <advance width="1036"/>
  <unicode hex="0023"/>
  <outline>
    <contour>
      <point x="947" y="1270" type="line"/>
      <point x="920" y="1292" type="line"/>
      <point x="889" y="1280"/>
      <point x="829" y="1272"/>
      <point x="800" y="1251" type="curve"/>
      <point x="722" y="976" type="line"/>
      <point x="548" y="976" type="line"/>
      <point x="633" y="1270" type="line"/>
      <point x="604" y="1292" type="line"/>
      <point x="575" y="1280"/>
      <point x="515" y="1272"/>
      <point x="486" y="1251" type="curve"/>
      <point x="408" y="976" type="line"/>
      <point x="224" y="976" type="line"/>
      <point x="214" y="949"/>
      <point x="184" y="884"/>
      <point x="178" y="855" type="curve"/>
      <point x="203" y="831" type="line"/>
      <point x="366" y="831" type="line"/>
      <point x="302" y="605" type="line"/>
      <point x="117" y="605" type="line"/>
      <point x="105" y="578"/>
      <point x="78" y="511"/>
      <point x="72" y="485" type="curve"/>
      <point x="94" y="460" type="line"/>
      <point x="260" y="460" type="line"/>
      <point x="171" y="147" type="line"/>
      <point x="197" y="127" type="line"/>
      <point x="232" y="139"/>
      <point x="293" y="152"/>
      <point x="317" y="170" type="curve"/>
      <point x="400" y="460" type="line"/>
      <point x="574" y="460" type="line"/>
      <point x="485" y="147" type="line"/>
      <point x="511" y="127" type="line"/>
      <point x="546" y="139"/>
      <point x="609" y="152"/>
      <point x="633" y="170" type="curve"/>
      <point x="716" y="460" type="line"/>
      <point x="890" y="460" type="line"/>
      <point x="900" y="483"/>
      <point x="927" y="552"/>
      <point x="933" y="578" type="curve"/>
      <point x="911" y="605" type="line"/>
      <point x="757" y="605" type="line"/>
      <point x="822" y="831" type="line"/>
      <point x="996" y="831" type="line"/>
      <point x="1006" y="853"/>
      <point x="1036" y="922"/>
      <point x="1042" y="951" type="curve"/>
      <point x="1017" y="976" type="line"/>
      <point x="863" y="976" type="line"/>
    </contour>
    <contour>
      <point x="507" y="831" type="line"/>
      <point x="680" y="831" type="line"/>
      <point x="616" y="605" type="line"/>
      <point x="442" y="605" type="line"/>
    </contour>
  </outline>
</glyph>
<glyph name="DollarSgn" format="1">
  <advance width="1036"/>
  <unicode hex="0024"/>
  <outline>
    <contour>
      <point x="575" y="-128" type="curve"/>
      <point x="575" y="-3" type="line"/>
      <point x="844" y="32"/>
      <point x="952" y="211"/>
      <point x="952" y="370" type="curve" smooth="yes"/>
      <point x="952" y="595"/>
      <point x="755" y="673"/>
      <point x="575" y="737" type="curve"/>
      <point x="575" y="1081" type="line"/>
      <point x="654" y="1055"/>
      <point x="711" y="993"/>
      <point x="756" y="901" type="curve"/>
      <point x="825" y="893" type="line"/>
      <point x="860" y="924"/>
      <point x="925" y="1091"/>
      <point x="909" y="1109" type="curve"/>
      <point x="860" y="1158"/>
      <point x="715" y="1204"/>
      <point x="575" y="1212" type="curve"/>
      <point x="575" y="1355" type="line"/>
      <point x="541" y="1384" type="line"/>
      <point x="502" y="1374"/>
      <point x="492" y="1363"/>
      <point x="455" y="1341" type="curve"/>
      <point x="455" y="1210" type="line"/>
      <point x="171" y="1184"/>
      <point x="83" y="1019"/>
      <point x="83" y="904" type="curve" smooth="yes"/>
      <point x="83" y="693"/>
      <point x="277" y="632"/>
      <point x="455" y="569" type="curve"/>
      <point x="455" y="141" type="line"/>
      <point x="320" y="167"/>
      <point x="231" y="268"/>
      <point x="168" y="404" type="curve"/>
      <point x="95" y="408" type="line"/>
      <point x="75" y="334"/>
      <point x="69" y="124"/>
      <point x="87" y="111" type="curve"/>
      <point x="202" y="38"/>
      <point x="343" y="-5"/>
      <point x="455" y="-9" type="curve"/>
      <point x="455" y="-145" type="line"/>
      <point x="489" y="-174" type="line"/>
      <point x="522" y="-166"/>
      <point x="551" y="-149"/>
    </contour>
    <contour>
      <point x="742" y="317" type="curve" smooth="yes"/>
      <point x="742" y="209"/>
      <point x="663" y="152"/>
      <point x="575" y="138" type="curve"/>
      <point x="575" y="522" type="line"/>
      <point x="670" y="479"/>
      <point x="742" y="421"/>
    </contour>
    <contour>
      <point x="285" y="951" type="curve" smooth="yes"/>
      <point x="285" y="1020"/>
      <point x="347" y="1082"/>
      <point x="455" y="1092" type="curve"/>
      <point x="455" y="781" type="line"/>
      <point x="357" y="820"/>
      <point x="285" y="867"/>
    </contour>
  </outline>
</glyph>
<glyph name="Ampersand" format="1">
  <advance width="1419"/>
  <unicode hex="0026"/>
  <outline>
    <contour>
      <point x="1414" y="748" type="curve"/>
      <point x="1383" y="792" type="line"/>
      <point x="902" y="792" type="line"/>
      <point x="875" y="782"/>
      <point x="827" y="735"/>
      <point x="813" y="718" type="curve"/>
      <point x="842" y="683" type="line"/>
      <point x="920" y="683"/>
      <point x="995" y="614"/>
      <point x="995" y="502" type="curve" smooth="yes"/>
      <point x="995" y="456"/>
      <point x="980" y="406"/>
      <point x="954" y="358" type="curve"/>
      <point x="830" y="484"/>
      <point x="700" y="639"/>
      <point x="610" y="792" type="curve"/>
      <point x="641" y="812" type="line" smooth="yes"/>
      <point x="798" y="911"/>
      <point x="951" y="1065"/>
      <point x="951" y="1204" type="curve" smooth="yes"/>
      <point x="951" y="1333"/>
      <point x="866" y="1450"/>
      <point x="664" y="1450" type="curve" smooth="yes"/>
      <point x="450" y="1450"/>
      <point x="272" y="1288"/>
      <point x="272" y="1073" type="curve" smooth="yes"/>
      <point x="272" y="978"/>
      <point x="299" y="877"/>
      <point x="343" y="776" type="curve"/>
      <point x="152" y="635"/>
      <point x="65" y="492"/>
      <point x="65" y="352" type="curve" smooth="yes"/>
      <point x="65" y="102"/>
      <point x="233" y="-30"/>
      <point x="513" y="-30" type="curve" smooth="yes"/>
      <point x="650" y="-30"/>
      <point x="776" y="16"/>
      <point x="881" y="87" type="curve"/>
      <point x="969" y="14"/>
      <point x="1041" y="-30"/>
      <point x="1074" y="-30" type="curve" smooth="yes"/>
      <point x="1103" y="-30"/>
      <point x="1254" y="9"/>
      <point x="1369" y="60" type="curve"/>
      <point x="1353" y="133" type="line"/>
      <point x="1285" y="117"/>
      <point x="1208" y="129"/>
      <point x="1140" y="186" type="curve" smooth="yes"/>
      <point x="1115" y="207"/>
      <point x="1088" y="230"/>
      <point x="1060" y="255" type="curve"/>
      <point x="1133" y="350"/>
      <point x="1176" y="455"/>
      <point x="1176" y="543" type="curve" smooth="yes"/>
      <point x="1176" y="593"/>
      <point x="1171" y="632"/>
      <point x="1143" y="670" type="curve"/>
      <point x="1188" y="668"/>
      <point x="1251" y="645"/>
      <point x="1300" y="622" type="curve"/>
      <point x="1333" y="645"/>
      <point x="1381" y="707"/>
    </contour>
    <contour>
      <point x="573" y="114" type="curve" smooth="yes"/>
      <point x="455" y="114"/>
      <point x="325" y="186"/>
      <point x="325" y="373" type="curve" smooth="yes"/>
      <point x="325" y="465"/>
      <point x="347" y="546"/>
      <point x="418" y="631" type="curve"/>
      <point x="519" y="460"/>
      <point x="657" y="298"/>
      <point x="782" y="177" type="curve"/>
      <point x="720" y="138"/>
      <point x="648" y="114"/>
    </contour>
    <contour>
      <point x="497" y="1130" type="curve" smooth="yes"/>
      <point x="497" y="1235"/>
      <point x="530" y="1321"/>
      <point x="603" y="1321" type="curve" smooth="yes"/>
      <point x="664" y="1321"/>
      <point x="714" y="1264"/>
      <point x="714" y="1171" type="curve" smooth="yes"/>
      <point x="714" y="1086"/>
      <point x="677" y="984"/>
      <point x="551" y="908" type="curve"/>
      <point x="517" y="986"/>
      <point x="497" y="1061"/>
    </contour>
  </outline>
</glyph>
<glyph name="Comma" format="1">
  <advance width="552"/>
  <unicode hex="002C"/>
  <outline>
    <contour>
      <point x="480" y="70" type="curve"/>
      <point x="480" y="175"/>
      <point x="448" y="229"/>
      <point x="384" y="259" type="curve"/>
      <point x="315" y="261"/>
      <point x="111" y="185"/>
      <point x="88" y="154" type="curve"/>
      <point x="104" y="77" type="line"/>
      <point x="190" y="83"/>
      <point x="241" y="22"/>
      <point x="241" y="-38" type="curve" smooth="yes"/>
      <point x="241" y="-153"/>
      <point x="195" y="-244"/>
      <point x="121" y="-330" type="curve"/>
      <point x="189" y="-380" type="line"/>
      <point x="350" y="-276"/>
      <point x="480" y="-73"/>
    </contour>
  </outline>
</glyph>
<glyph name="FullStop" format="1">
  <advance width="552"/>
  <unicode hex="002E"/>
  <outline>
    <contour>
      <point x="459" y="131" type="curve"/>
      <point x="459" y="225"/>
      <point x="389" y="266"/>
      <point x="315" y="266" type="curve" smooth="yes"/>
      <point x="218" y="266"/>
      <point x="131" y="200"/>
      <point x="131" y="95" type="curve" smooth="yes"/>
      <point x="131" y="0"/>
      <point x="198" y="-40"/>
      <point x="276" y="-40" type="curve" smooth="yes"/>
      <point x="377" y="-40"/>
      <point x="459" y="24"/>
    </contour>
  </outline>
</glyph>
<glyph name="Solidus" format="1">
  <advance width="975"/>
  <unicode hex="002F"/>
  <outline>
    <contour>
      <point x="940" y="1571" type="line"/>
      <point x="895" y="1600" type="line"/>
      <point x="857" y="1590"/>
      <point x="772" y="1567"/>
      <point x="736" y="1544" type="curve"/>
      <point x="35" y="-303" type="line"/>
      <point x="79" y="-335" type="line"/>
      <point x="112" y="-325"/>
      <point x="215" y="-295"/>
      <point x="242" y="-277" type="curve"/>
    </contour>
  </outline>
</glyph>
<glyph name="DigitOne" format="1">
  <advance width="1036"/>
  <unicode hex="0031"/>
  <outline>
    <contour>
      <point x="915" y="0" type="line"/>
      <point x="915" y="83" type="line"/>
      <point x="714" y="108"/>
      <point x="665" y="147"/>
      <point x="665" y="173" type="curve" smooth="yes"/>
      <point x="665" y="1203" type="line"/>
      <point x="621" y="1245" type="line"/>
      <point x="524" y="1202"/>
      <point x="238" y="1099"/>
      <point x="124" y="1075" type="curve"/>
      <point x="153" y="994" type="line"/>
      <point x="329" y="1031"/>
      <point x="391" y="1025"/>
      <point x="407" y="1008" type="curve" smooth="yes"/>
      <point x="423" y="990"/>
      <point x="425" y="963"/>
      <point x="425" y="910" type="curve" smooth="yes"/>
      <point x="425" y="173" type="line" smooth="yes"/>
      <point x="425" y="145"/>
      <point x="364" y="108"/>
      <point x="155" y="83" type="curve"/>
      <point x="155" y="0" type="line"/>
    </contour>
    <contour>
      <point x="518" y="1370" type="move" name="U"/>
    </contour>
    <contour>
      <point x="518" y="-100" type="move" name="L"/>
    </contour>
  </outline>
</glyph>
<glyph name="DigitTwo" format="1">
  <advance width="1036"/>
  <unicode hex="0032"/>
  <outline>
    <contour>
      <point x="926" y="355" type="line"/>
      <point x="846" y="374" type="line"/>
      <point x="846" y="374"/>
      <point x="834" y="174"/>
      <point x="744" y="174" type="curve" smooth="yes"/>
      <point x="345" y="174" type="line"/>
      <point x="772" y="646"/>
      <point x="913" y="802"/>
      <point x="913" y="982" type="curve" smooth="yes"/>
      <point x="913" y="1149"/>
      <point x="779" y="1235"/>
      <point x="573" y="1235" type="curve" smooth="yes"/>
      <point x="323" y="1235"/>
      <point x="110" y="1061"/>
      <point x="110" y="923" type="curve"/>
      <point x="145" y="855" type="line"/>
      <point x="206" y="861"/>
      <point x="318" y="894"/>
      <point x="363" y="919" type="curve"/>
      <point x="346" y="1018"/>
      <point x="396" y="1123"/>
      <point x="505" y="1123" type="curve" smooth="yes"/>
      <point x="616" y="1123"/>
      <point x="661" y="1037"/>
      <point x="661" y="924" type="curve" smooth="yes"/>
      <point x="661" y="780"/>
      <point x="551" y="623"/>
      <point x="83" y="74" type="curve"/>
      <point x="112" y="0" type="line"/>
      <point x="911" y="0" type="line"/>
    </contour>
    <contour>
      <point x="518" y="1370" type="move" name="U"/>
    </contour>
    <contour>
      <point x="518" y="-100" type="move" name="L"/>
    </contour>
  </outline>
</glyph>
<glyph name="DigitThree" format="1">
  <advance width="1036"/>
  <unicode hex="0033"/>
  <outline>
    <contour>
      <point x="915" y="381" type="curve"/>
      <point x="915" y="543"/>
      <point x="808" y="681"/>
      <point x="645" y="698" type="curve"/>
      <point x="772" y="741"/>
      <point x="858" y="858"/>
      <point x="858" y="958" type="curve" smooth="yes"/>
      <point x="858" y="1094"/>
      <point x="765" y="1235"/>
      <point x="521" y="1235" type="curve" smooth="yes"/>
      <point x="276" y="1235"/>
      <point x="105" y="1062"/>
      <point x="105" y="950" type="curve"/>
      <point x="139" y="889" type="line"/>
      <point x="213" y="895"/>
      <point x="305" y="927"/>
      <point x="360" y="958" type="curve"/>
      <point x="335" y="1050"/>
      <point x="393" y="1123"/>
      <point x="464" y="1123" type="curve" smooth="yes"/>
      <point x="565" y="1123"/>
      <point x="601" y="1032"/>
      <point x="601" y="940" type="curve" smooth="yes"/>
      <point x="601" y="858"/>
      <point x="568" y="745"/>
      <point x="339" y="684" type="curve"/>
      <point x="357" y="594" type="line"/>
      <point x="398" y="601"/>
      <point x="403" y="601"/>
      <point x="440" y="601" type="curve" smooth="yes"/>
      <point x="528" y="601"/>
      <point x="658" y="541"/>
      <point x="658" y="356" type="curve" smooth="yes"/>
      <point x="658" y="186"/>
      <point x="557" y="108"/>
      <point x="431" y="108" type="curve" smooth="yes"/>
      <point x="331" y="108"/>
      <point x="238" y="141"/>
      <point x="117" y="231" type="curve"/>
      <point x="76" y="134" type="line"/>
      <point x="196" y="19"/>
      <point x="354" y="-30"/>
      <point x="459" y="-30" type="curve" smooth="yes"/>
      <point x="733" y="-30"/>
      <point x="915" y="156"/>
    </contour>
    <contour>
      <point x="518" y="1370" type="move" name="U"/>
    </contour>
    <contour>
      <point x="518" y="-100" type="move" name="L"/>
    </contour>
  </outline>
</glyph>
<glyph name="DigitFive" format="1">
  <advance width="1036"/>
  <unicode hex="0035"/>
  <outline>
    <contour>
      <point x="919" y="410" type="curve"/>
      <point x="919" y="606"/>
      <point x="784" y="795"/>
      <point x="516" y="795" type="curve" smooth="yes"/>
      <point x="431" y="795"/>
      <point x="356" y="780"/>
      <point x="297" y="754" type="curve"/>
      <point x="309" y="813"/>
      <point x="331" y="945"/>
      <point x="335" y="1023" type="curve"/>
      <point x="767" y="1023" type="line"/>
      <point x="798" y="1046"/>
      <point x="874" y="1144"/>
      <point x="903" y="1187" type="curve"/>
      <point x="866" y="1223" type="line"/>
      <point x="866" y="1223"/>
      <point x="821" y="1205"/>
      <point x="745" y="1205" type="curve" smooth="yes"/>
      <point x="219" y="1205" type="line"/>
      <point x="211" y="1064"/>
      <point x="162" y="738"/>
      <point x="137" y="593" type="curve"/>
      <point x="184" y="560" type="line"/>
      <point x="254" y="613"/>
      <point x="327" y="648"/>
      <point x="433" y="648" type="curve" smooth="yes"/>
      <point x="579" y="648"/>
      <point x="676" y="549"/>
      <point x="676" y="367" type="curve" smooth="yes"/>
      <point x="676" y="215"/>
      <point x="582" y="100"/>
      <point x="448" y="100" type="curve" smooth="yes"/>
      <point x="372" y="100"/>
      <point x="269" y="122"/>
      <point x="128" y="220" type="curve"/>
      <point x="78" y="130" type="line"/>
      <point x="193" y="23"/>
      <point x="347" y="-30"/>
      <point x="470" y="-30" type="curve" smooth="yes"/>
      <point x="779" y="-30"/>
      <point x="919" y="178"/>
    </contour>
    <contour>
      <point x="518" y="1370" type="move" name="U"/>
    </contour>
    <contour>
      <point x="518" y="-100" type="move" name="L"/>
    </contour>
  </outline>
</glyph>
<glyph name="DigitSix" format="1">
  <advance width="1036"/>
  <unicode hex="0036"/>
  <outline>
    <contour>
      <point x="971" y="412" type="curve" smooth="yes"/>
      <point x="971" y="631"/>
      <point x="836" y="785"/>
      <point x="609" y="785" type="curve" smooth="yes"/>
      <point x="540" y="785"/>
      <point x="450" y="750"/>
      <point x="366" y="681" type="curve"/>
      <point x="407" y="899"/>
      <point x="553" y="1091"/>
      <point x="875" y="1160" type="curve"/>
      <point x="848" y="1249" type="line"/>
      <point x="351" y="1180"/>
      <point x="95" y="850"/>
      <point x="95" y="473" type="curve" smooth="yes"/>
      <point x="95" y="172"/>
      <point x="298" y="-30"/>
      <point x="551" y="-30" type="curve" smooth="yes"/>
      <point x="828" y="-30"/>
      <point x="971" y="225"/>
    </contour>
    <contour>
      <point x="545" y="645" type="curve" smooth="yes"/>
      <point x="631" y="645"/>
      <point x="724" y="598"/>
      <point x="724" y="348" type="curve" smooth="yes"/>
      <point x="724" y="225"/>
      <point x="691" y="98"/>
      <point x="575" y="98" type="curve" smooth="yes"/>
      <point x="449" y="98"/>
      <point x="353" y="221"/>
      <point x="353" y="536" type="curve"/>
      <point x="417" y="605"/>
      <point x="488" y="645"/>
    </contour>
    <contour>
      <point x="518" y="1370" type="move" name="U"/>
    </contour>
    <contour>
      <point x="518" y="-100" type="move" name="L"/>
    </contour>
  </outline>
</glyph>
<glyph name="QstnMrk" format="1">
  <advance width="932"/>
  <unicode hex="003F"/>
  <outline>
    <contour>
      <point x="866" y="1165" type="curve"/>
      <point x="866" y="1352"/>
      <point x="745" y="1480"/>
      <point x="525" y="1480" type="curve" smooth="yes"/>
      <point x="281" y="1480"/>
      <point x="65" y="1334"/>
      <point x="65" y="1146" type="curve" smooth="yes"/>
      <point x="65" y="1136"/>
      <point x="65" y="1108"/>
      <point x="67" y="1098" type="curve"/>
      <point x="102" y="1060" type="line"/>
      <point x="161" y="1066"/>
      <point x="296" y="1099"/>
      <point x="339" y="1121" type="curve"/>
      <point x="333" y="1140"/>
      <point x="327" y="1167"/>
      <point x="327" y="1186" type="curve" smooth="yes"/>
      <point x="327" y="1290"/>
      <point x="387" y="1362"/>
      <point x="454" y="1362" type="curve" smooth="yes"/>
      <point x="547" y="1362"/>
      <point x="605" y="1284"/>
      <point x="605" y="1120" type="curve" smooth="yes"/>
      <point x="605" y="930"/>
      <point x="350" y="738"/>
      <point x="362" y="508" type="curve"/>
      <point x="370" y="399" type="line"/>
      <point x="402" y="371" type="line"/>
      <point x="439" y="381"/>
      <point x="476" y="394"/>
      <point x="501" y="412" type="curve"/>
      <point x="507" y="508" type="line" smooth="yes"/>
      <point x="522" y="743"/>
      <point x="866" y="864"/>
    </contour>
    <contour>
      <point x="608" y="131" type="curve"/>
      <point x="608" y="225"/>
      <point x="538" y="266"/>
      <point x="464" y="266" type="curve" smooth="yes"/>
      <point x="367" y="266"/>
      <point x="280" y="200"/>
      <point x="280" y="95" type="curve" smooth="yes"/>
      <point x="280" y="0"/>
      <point x="347" y="-40"/>
      <point x="425" y="-40" type="curve" smooth="yes"/>
      <point x="526" y="-40"/>
      <point x="608" y="24"/>
    </contour>
  </outline>
</glyph>
<glyph name="LtnCapA" format="1">
  <advance width="1287"/>
  <unicode hex="0041"/>
  <outline>
    <contour>
      <point x="789" y="430" type="line"/>
      <point x="891" y="141" type="line" smooth="yes"/>
      <point x="906" y="97"/>
      <point x="872" y="79"/>
      <point x="769" y="73" type="curve"/>
      <point x="769" y="0" type="line"/>
      <point x="1266" y="0" type="line"/>
      <point x="1266" y="73" type="line"/>
      <point x="1180" y="83"/>
      <point x="1155" y="104"/>
      <point x="1142" y="141" type="curve" smooth="yes"/>
      <point x="722" y="1317" type="line"/>
      <point x="653" y="1297"/>
      <point x="563" y="1261"/>
      <point x="500" y="1207" type="curve"/>
      <point x="151" y="141" type="line" smooth="yes"/>
      <point x="138" y="101"/>
      <point x="90" y="89"/>
      <point x="0" y="73" type="curve"/>
      <point x="0" y="0" type="line"/>
      <point x="437" y="0" type="line"/>
      <point x="437" y="73" type="line"/>
      <point x="328" y="85"/>
      <point x="283" y="100"/>
      <point x="296" y="141" type="curve" smooth="yes"/>
      <point x="392" y="430" type="line"/>
    </contour>
    <contour>
      <point x="432" y="550" type="line"/>
      <point x="582" y="1015" type="line"/>
      <point x="747" y="550" type="line"/>
    </contour>
    <contour>
      <point x="1056" y="0" type="move" name="H"/>
    </contour>
    <contour>
      <point x="633" y="1370" type="move" name="U"/>
    </contour>
    <contour>
      <point x="633" y="-100" type="move" name="L"/>
    </contour>
    <contour>
      <point x="1014" y="0" type="move" name="O"/>
    </contour>
  </outline>
</glyph>
<glyph name="LtnCapE" format="1">
  <advance width="1076"/>
  <unicode hex="0045"/>
  <outline>
    <contour>
      <point x="1029" y="304" type="curve"/>
      <point x="956" y="330" type="line"/>
      <point x="899" y="174"/>
      <point x="856" y="120"/>
      <point x="733" y="120" type="curve" smooth="yes"/>
      <point x="634" y="120" type="line" smooth="yes"/>
      <point x="458" y="120"/>
      <point x="430" y="145"/>
      <point x="430" y="184" type="curve" smooth="yes"/>
      <point x="430" y="629" type="line"/>
      <point x="571" y="629" type="line" smooth="yes"/>
      <point x="683" y="629"/>
      <point x="728" y="613"/>
      <point x="769" y="574" type="curve"/>
      <point x="798" y="595"/>
      <point x="839" y="663"/>
      <point x="861" y="700" type="curve"/>
      <point x="828" y="735" type="line"/>
      <point x="430" y="735" type="line"/>
      <point x="430" y="1140" type="line"/>
      <point x="766" y="1140" type="line" smooth="yes"/>
      <point x="815" y="1140"/>
      <point x="842" y="1073"/>
      <point x="848" y="950" type="curve"/>
      <point x="923" y="950" type="line"/>
      <point x="939" y="1001"/>
      <point x="960" y="1160"/>
      <point x="964" y="1228" type="curve"/>
      <point x="924" y="1260" type="line"/>
      <point x="43" y="1260" type="line"/>
      <point x="43" y="1187" type="line"/>
      <point x="139" y="1168"/>
      <point x="180" y="1141"/>
      <point x="180" y="1125" type="curve" smooth="yes"/>
      <point x="180" y="134" type="line" smooth="yes"/>
      <point x="180" y="116"/>
      <point x="133" y="91"/>
      <point x="43" y="73" type="curve"/>
      <point x="43" y="0" type="line"/>
      <point x="988" y="0" type="line"/>
      <point x="999" y="39"/>
      <point x="1019" y="189"/>
    </contour>
    <contour>
      <point x="536" y="0" type="move" name="H"/>
    </contour>
    <contour>
      <point x="536" y="1370" type="move" name="U"/>
    </contour>
    <contour>
      <point x="536" y="-100" type="move" name="L"/>
    </contour>
    <contour>
      <point x="806" y="0" type="move" name="O"/>
    </contour>
  </outline>
</glyph>
<glyph name="LtnCapF" format="1">
  <advance width="1039"/>
  <unicode hex="0046"/>
  <outline>
    <contour>
      <point x="598" y="0" type="line"/>
      <point x="598" y="73" type="line"/>
      <point x="467" y="98"/>
      <point x="430" y="118"/>
      <point x="430" y="134" type="curve" smooth="yes"/>
      <point x="430" y="629" type="line"/>
      <point x="542" y="629" type="line" smooth="yes"/>
      <point x="653" y="629"/>
      <point x="700" y="613"/>
      <point x="739" y="574" type="curve"/>
      <point x="767" y="595"/>
      <point x="808" y="655"/>
      <point x="833" y="700" type="curve"/>
      <point x="797" y="735" type="line"/>
      <point x="430" y="735" type="line"/>
      <point x="430" y="1140" type="line"/>
      <point x="774" y="1140" type="line" smooth="yes"/>
      <point x="825" y="1140"/>
      <point x="852" y="1073"/>
      <point x="856" y="950" type="curve"/>
      <point x="933" y="950" type="line"/>
      <point x="949" y="1001"/>
      <point x="970" y="1160"/>
      <point x="972" y="1228" type="curve"/>
      <point x="934" y="1260" type="line"/>
      <point x="43" y="1260" type="line"/>
      <point x="43" y="1187" type="line"/>
      <point x="139" y="1168"/>
      <point x="180" y="1141"/>
      <point x="180" y="1125" type="curve" smooth="yes"/>
      <point x="180" y="134" type="line" smooth="yes"/>
      <point x="180" y="116"/>
      <point x="133" y="91"/>
      <point x="43" y="73" type="curve"/>
      <point x="43" y="0" type="line"/>
    </contour>
    <contour>
      <point x="507" y="1370" type="move" name="U"/>
    </contour>
    <contour>
      <point x="507" y="-100" type="move" name="L"/>
    </contour>
  </outline>
</glyph>
<glyph name="LtnCapM" format="1">
  <advance width="1734"/>
  <unicode hex="004D"/>
  <outline>
    <contour>
      <point x="1633" y="1187" type="curve"/>
      <point x="1633" y="1260" type="line"/>
      <point x="1294" y="1260" type="line" smooth="yes"/>
      <point x="1269" y="1260"/>
      <point x="1257" y="1255"/>
      <point x="1223" y="1176" type="curve"/>
      <point x="848" y="341" type="line"/>
      <point x="480" y="1176" type="line" smooth="yes"/>
      <point x="448" y="1248"/>
      <point x="436" y="1260"/>
      <point x="409" y="1260" type="curve" smooth="yes"/>
      <point x="63" y="1260" type="line"/>
      <point x="63" y="1187" type="line"/>
      <point x="102" y="1187"/>
      <point x="153" y="1178"/>
      <point x="200" y="1152" type="curve"/>
      <point x="190" y="134" type="line" smooth="yes"/>
      <point x="190" y="116"/>
      <point x="144" y="91"/>
      <point x="53" y="73" type="curve"/>
      <point x="53" y="0" type="line"/>
      <point x="473" y="0" type="line"/>
      <point x="473" y="73" type="line"/>
      <point x="377" y="91"/>
      <point x="335" y="118"/>
      <point x="335" y="134" type="curve" smooth="yes"/>
      <point x="343" y="945" type="line"/>
      <point x="759" y="0" type="line"/>
      <point x="853" y="0" type="line"/>
      <point x="1277" y="947" type="line"/>
      <point x="1285" y="134" type="line" smooth="yes"/>
      <point x="1285" y="116"/>
      <point x="1228" y="91"/>
      <point x="1138" y="73" type="curve"/>
      <point x="1138" y="0" type="line"/>
      <point x="1660" y="0" type="line"/>
      <point x="1660" y="73" type="line"/>
      <point x="1564" y="91"/>
      <point x="1515" y="118"/>
      <point x="1515" y="134" type="curve" smooth="yes"/>
      <point x="1505" y="1159" type="line"/>
      <point x="1553" y="1177"/>
      <point x="1600" y="1187"/>
    </contour>
    <contour>
      <point x="856" y="1370" type="move" name="U"/>
    </contour>
    <contour>
      <point x="856" y="-100" type="move" name="L"/>
    </contour>
  </outline>
</glyph>
<glyph name="LtnCapN" format="1">
  <advance width="1359"/>
  <unicode hex="004E"/>
  <outline>
    <contour>
      <point x="468" y="0" type="line"/>
      <point x="468" y="73" type="line"/>
      <point x="365" y="87"/>
      <point x="330" y="118"/>
      <point x="330" y="134" type="curve" smooth="yes"/>
      <point x="330" y="920" type="line"/>
      <point x="941" y="74" type="line" smooth="yes"/>
      <point x="977" y="25"/>
      <point x="1053" y="-20"/>
      <point x="1180" y="-30" type="curve"/>
      <point x="1180" y="1125" type="line" smooth="yes"/>
      <point x="1180" y="1144"/>
      <point x="1222" y="1174"/>
      <point x="1318" y="1187" type="curve"/>
      <point x="1318" y="1260" type="line"/>
      <point x="893" y="1260" type="line"/>
      <point x="893" y="1187" type="line"/>
      <point x="1000" y="1172"/>
      <point x="1030" y="1141"/>
      <point x="1030" y="1125" type="curve" smooth="yes"/>
      <point x="1030" y="334" type="line"/>
      <point x="418" y="1182" type="line" smooth="yes"/>
      <point x="368" y="1251"/>
      <point x="361" y="1260"/>
      <point x="322" y="1260" type="curve" smooth="yes"/>
      <point x="43" y="1260" type="line"/>
      <point x="43" y="1187" type="line"/>
      <point x="90" y="1179"/>
      <point x="137" y="1154"/>
      <point x="180" y="1114" type="curve"/>
      <point x="180" y="134" type="line" smooth="yes"/>
      <point x="180" y="116"/>
      <point x="141" y="85"/>
      <point x="43" y="73" type="curve"/>
      <point x="43" y="0" type="line"/>
    </contour>
    <contour>
      <point x="1105" y="0" type="move" name="H"/>
    </contour>
    <contour>
      <point x="680" y="1370" type="move" name="U"/>
    </contour>
    <contour>
      <point x="680" y="-100" type="move" name="L"/>
    </contour>
  </outline>
</glyph>
<glyph name="LtnCapP" format="1">
  <advance width="1161"/>
  <unicode hex="0050"/>
  <outline>
    <contour>
      <point x="598" y="0" type="line"/>
      <point x="598" y="73" type="line"/>
      <point x="459" y="96"/>
      <point x="430" y="118"/>
      <point x="430" y="134" type="curve" smooth="yes"/>
      <point x="430" y="1182" type="line"/>
      <point x="459" y="1183"/>
      <point x="487" y="1184"/>
      <point x="513" y="1184" type="curve" smooth="yes"/>
      <point x="704" y="1184"/>
      <point x="835" y="1084"/>
      <point x="835" y="895" type="curve" smooth="yes"/>
      <point x="835" y="707"/>
      <point x="719" y="625"/>
      <point x="603" y="625" type="curve" smooth="yes"/>
      <point x="556" y="625"/>
      <point x="519" y="630"/>
      <point x="464" y="655" type="curve"/>
      <point x="495" y="550" type="line"/>
      <point x="540" y="530"/>
      <point x="602" y="520"/>
      <point x="663" y="520" type="curve" smooth="yes"/>
      <point x="840" y="519"/>
      <point x="1087" y="659"/>
      <point x="1087" y="936" type="curve" smooth="yes"/>
      <point x="1087" y="1165"/>
      <point x="880" y="1290"/>
      <point x="570" y="1290" type="curve" smooth="yes"/>
      <point x="393" y="1290"/>
      <point x="174" y="1265"/>
      <point x="30" y="1230" type="curve"/>
      <point x="43" y="1138" type="line"/>
      <point x="83" y="1145"/>
      <point x="130" y="1152"/>
      <point x="180" y="1158" type="curve"/>
      <point x="180" y="134" type="line" smooth="yes"/>
      <point x="180" y="116"/>
      <point x="133" y="91"/>
      <point x="43" y="73" type="curve"/>
      <point x="43" y="0" type="line"/>
    </contour>
    <contour>
      <point x="558" y="1370" type="move" name="U"/>
    </contour>
    <contour>
      <point x="558" y="-100" type="move" name="L"/>
    </contour>
  </outline>
</glyph>
<glyph name="LtnCapR" format="1">
  <advance width="1239"/>
  <unicode hex="0052"/>
  <outline>
    <contour>
      <point x="568" y="0" type="line"/>
      <point x="568" y="73" type="line"/>
      <point x="471" y="91"/>
      <point x="430" y="118"/>
      <point x="430" y="134" type="curve" smooth="yes"/>
      <point x="430" y="596" type="line"/>
      <point x="467" y="588"/>
      <point x="502" y="585"/>
      <point x="536" y="585" type="curve" smooth="yes"/>
      <point x="549" y="585"/>
      <point x="562" y="585"/>
      <point x="575" y="586" type="curve"/>
      <point x="862" y="41" type="line"/>
      <point x="880" y="11"/>
      <point x="922" y="-14"/>
      <point x="960" y="-14" type="curve" smooth="yes"/>
      <point x="1012" y="-14"/>
      <point x="1156" y="23"/>
      <point x="1244" y="52" type="curve"/>
      <point x="1229" y="125" type="line"/>
      <point x="1139" y="117"/>
      <point x="1110" y="128"/>
      <point x="1068" y="184" type="curve"/>
      <point x="753" y="620" type="line"/>
      <point x="918" y="677"/>
      <point x="1032" y="804"/>
      <point x="1032" y="987" type="curve" smooth="yes"/>
      <point x="1032" y="1159"/>
      <point x="891" y="1290"/>
      <point x="529" y="1290" type="curve" smooth="yes"/>
      <point x="338" y="1290"/>
      <point x="170" y="1261"/>
      <point x="30" y="1230" type="curve"/>
      <point x="43" y="1138" type="line"/>
      <point x="85" y="1144"/>
      <point x="132" y="1151"/>
      <point x="180" y="1157" type="curve"/>
      <point x="180" y="134" type="line" smooth="yes"/>
      <point x="180" y="116"/>
      <point x="133" y="91"/>
      <point x="43" y="73" type="curve"/>
      <point x="43" y="0" type="line"/>
    </contour>
    <contour>
      <point x="485" y="1184" type="curve" smooth="yes"/>
      <point x="715" y="1184"/>
      <point x="780" y="1080"/>
      <point x="780" y="956" type="curve" smooth="yes"/>
      <point x="780" y="795"/>
      <point x="699" y="699"/>
      <point x="519" y="699" type="curve" smooth="yes"/>
      <point x="490" y="699"/>
      <point x="466" y="700"/>
      <point x="430" y="706" type="curve"/>
      <point x="430" y="1182" type="line"/>
      <point x="449" y="1183"/>
      <point x="468" y="1184"/>
    </contour>
    <contour>
      <point x="289" y="0" type="move" name="H"/>
    </contour>
    <contour>
      <point x="559" y="1370" type="move" name="U"/>
    </contour>
    <contour>
      <point x="559" y="-100" type="move" name="L"/>
    </contour>
  </outline>
</glyph>
<glyph name="LtnCapV" format="1">
  <advance width="1361"/>
  <unicode hex="0056"/>
  <outline>
    <contour>
      <point x="1328" y="1187" type="curve"/>
      <point x="1328" y="1260" type="line"/>
      <point x="897" y="1260" type="line"/>
      <point x="897" y="1187" type="line"/>
      <point x="1006" y="1174"/>
      <point x="1038" y="1160"/>
      <point x="1024" y="1121" type="curve" smooth="yes"/>
      <point x="727" y="286" type="line"/>
      <point x="402" y="1123" type="line" smooth="yes"/>
      <point x="387" y="1161"/>
      <point x="417" y="1179"/>
      <point x="523" y="1187" type="curve"/>
      <point x="523" y="1260" type="line"/>
      <point x="13" y="1260" type="line"/>
      <point x="13" y="1187" type="line"/>
      <point x="97" y="1176"/>
      <point x="133" y="1156"/>
      <point x="147" y="1121" type="curve" smooth="yes"/>
      <point x="602" y="-30" type="line"/>
      <point x="667" y="-15"/>
      <point x="776" y="23"/>
      <point x="797" y="82" type="curve" smooth="yes"/>
      <point x="1173" y="1121" type="line"/>
      <point x="1186" y="1158"/>
      <point x="1238" y="1170"/>
    </contour>
    <contour>
      <point x="680" y="0" type="move" name="H"/>
    </contour>
    <contour>
      <point x="680" y="1370" type="move" name="U"/>
    </contour>
    <contour>
      <point x="670" y="-100" type="move" name="L"/>
    </contour>
    <contour>
      <point x="623" y="0" type="move" name="O"/>
    </contour>
  </outline>
</glyph>
<glyph name="LtnCapZ" format="1">
  <advance width="1116"/>
  <unicode hex="005A"/>
  <outline>
    <contour>
      <point x="1044" y="353" type="curve"/>
      <point x="959" y="375" type="line"/>
      <point x="908" y="211"/>
      <point x="879" y="130"/>
      <point x="822" y="130" type="curve" smooth="yes"/>
      <point x="366" y="130" type="line"/>
      <point x="1034" y="1210" type="line"/>
      <point x="1001" y="1260" type="line"/>
      <point x="333" y="1260" type="line" smooth="yes"/>
      <point x="255" y="1260"/>
      <point x="216" y="1260"/>
      <point x="143" y="1276" type="curve"/>
      <point x="106" y="915" type="line"/>
      <point x="193" y="896" type="line"/>
      <point x="222" y="1035"/>
      <point x="291" y="1130"/>
      <point x="334" y="1130" type="curve" smooth="yes"/>
      <point x="725" y="1130" type="line"/>
      <point x="52" y="53" type="line"/>
      <point x="88" y="0" type="line"/>
      <point x="1032" y="0" type="line"/>
      <point x="1034" y="78"/>
      <point x="1040" y="267"/>
    </contour>
    <contour>
      <point x="579" y="1370" type="move" name="U"/>
    </contour>
    <contour>
      <point x="558" y="-100" type="move" name="L"/>
    </contour>
  </outline>
</glyph>
<glyph name="RtSqrBrac" format="1">
  <advance width="691"/>
  <unicode hex="005D"/>
  <outline>
    <contour>
      <point x="565" y="-335" type="line"/>
      <point x="565" y="1600" type="line"/>
      <point x="61" y="1600" type="line"/>
      <point x="52" y="1577"/>
      <point x="31" y="1518"/>
      <point x="25" y="1491" type="curve"/>
      <point x="68" y="1455" type="line"/>
      <point x="335" y="1455" type="line"/>
      <point x="335" y="-190" type="line"/>
      <point x="61" y="-190" type="line"/>
      <point x="53" y="-206"/>
      <point x="33" y="-268"/>
      <point x="27" y="-301" type="curve"/>
      <point x="68" y="-335" type="line"/>
    </contour>
  </outline>
</glyph>
<glyph name="LowLine" format="1">
  <advance width="990"/>
  <unicode hex="005F"/>
  <outline>
    <contour>
      <point x="937" y="-162" type="curve"/>
      <point x="905" y="-130" type="line"/>
      <point x="99" y="-130" type="line"/>
      <point x="87" y="-157"/>
      <point x="60" y="-215"/>
      <point x="53" y="-243" type="curve"/>
      <point x="85" y="-275" type="line"/>
      <point x="891" y="-275" type="line"/>
      <point x="902" y="-253"/>
      <point x="929" y="-191"/>
    </contour>
  </outline>
</glyph>
<glyph name="GraveAccent" format="1">
  <advance width="653"/>
  <unicode hex="0060"/>
  <outline>
    <contour>
      <point x="452" y="1086" type="curve"/>
      <point x="234" y="1512" type="line"/>
      <point x="201" y="1509"/>
      <point x="39" y="1479"/>
      <point x="13" y="1473" type="curve"/>
      <point x="-17" y="1417" type="line"/>
      <point x="366" y="1040" type="line"/>
      <point x="389" y="1047"/>
      <point x="436" y="1071"/>
    </contour>
    <contour>
      <point x="327" y="1410" type="move" name="U"/>
    </contour>
  </outline>
</glyph>
<glyph name="LtnSmC" format="1">
  <advance width="933"/>
  <unicode hex="0063"/>
  <outline>
    <contour>
      <point x="893" y="190" type="curve"/>
      <point x="839" y="254" type="line"/>
      <point x="698" y="149"/>
      <point x="642" y="138"/>
      <point x="567" y="138" type="curve" smooth="yes"/>
      <point x="422" y="138"/>
      <point x="304" y="263"/>
      <point x="305" y="475" type="curve" smooth="yes"/>
      <point x="306" y="733"/>
      <point x="413" y="835"/>
      <point x="530" y="835" type="curve" smooth="yes"/>
      <point x="637" y="835"/>
      <point x="695" y="761"/>
      <point x="739" y="630" type="curve"/>
      <point x="806" y="620" type="line"/>
      <point x="831" y="657"/>
      <point x="891" y="848"/>
      <point x="885" y="881" type="curve"/>
      <point x="840" y="928"/>
      <point x="693" y="960"/>
      <point x="605" y="960" type="curve" smooth="yes"/>
      <point x="288" y="960"/>
      <point x="65" y="731"/>
      <point x="65" y="444" type="curve" smooth="yes"/>
      <point x="65" y="147"/>
      <point x="263" y="-30"/>
      <point x="480" y="-30" type="curve" smooth="yes"/>
      <point x="605" y="-30"/>
      <point x="719" y="-7"/>
    </contour>
    <contour>
      <point x="511" y="0" type="move" name="H"/>
    </contour>
    <contour>
      <point x="933" y="900" type="move" name="R"/>
    </contour>
    <contour>
      <point x="511" y="1050" type="move" name="U"/>
    </contour>
    <contour>
      <point x="511" y="-100" type="move" name="L"/>
    </contour>
  </outline>
</glyph>
<glyph name="LtnSmF" format="1">
  <advance width="696"/>
  <unicode hex="0066"/>
  <outline>
    <contour>
      <point x="891" y="1454" type="curve"/>
      <point x="891" y="1477"/>
      <point x="770" y="1550"/>
      <point x="650" y="1550" type="curve" smooth="yes"/>
      <point x="569" y="1550"/>
      <point x="452" y="1508"/>
      <point x="354" y="1413" type="curve" smooth="yes"/>
      <point x="247" y="1311"/>
      <point x="185" y="1181"/>
      <point x="185" y="961" type="curve" smooth="yes"/>
      <point x="185" y="930" type="line"/>
      <point x="116" y="930" type="line"/>
      <point x="38" y="841" type="line"/>
      <point x="66" y="805" type="line"/>
      <point x="185" y="805" type="line"/>
      <point x="185" y="132" type="line" smooth="yes"/>
      <point x="185" y="116"/>
      <point x="144" y="89"/>
      <point x="53" y="73" type="curve"/>
      <point x="53" y="0" type="line"/>
      <point x="627" y="0" type="line"/>
      <point x="627" y="73" type="line"/>
      <point x="471" y="102"/>
      <point x="425" y="116"/>
      <point x="425" y="132" type="curve" smooth="yes"/>
      <point x="425" y="805" type="line"/>
      <point x="532" y="805"/>
      <point x="582" y="786"/>
      <point x="613" y="770" type="curve"/>
      <point x="637" y="790"/>
      <point x="686" y="849"/>
      <point x="711" y="894" type="curve"/>
      <point x="674" y="930" type="line"/>
      <point x="425" y="930" type="line"/>
      <point x="425" y="1016" type="line" smooth="yes"/>
      <point x="425" y="1324"/>
      <point x="487" y="1395"/>
      <point x="556" y="1395" type="curve" smooth="yes"/>
      <point x="599" y="1395"/>
      <point x="663" y="1362"/>
      <point x="726" y="1283" type="curve"/>
      <point x="765" y="1302"/>
      <point x="891" y="1410"/>
    </contour>
    <contour>
      <point x="292" y="0" type="move" name="H"/>
    </contour>
    <contour>
      <point x="480" y="1620" type="move" name="U"/>
    </contour>
    <contour>
      <point x="347" y="-100" type="move" name="L"/>
    </contour>
  </outline>
</glyph>
<glyph name="LtnSmG" format="1">
  <advance width="1059"/>
  <unicode hex="0067"/>
  <outline>
    <contour>
      <point x="898" y="641" type="curve" smooth="yes"/>
      <point x="898" y="695"/>
      <point x="882" y="746"/>
      <point x="854" y="792" type="curve"/>
      <point x="910" y="794"/>
      <point x="955" y="800"/>
      <point x="1000" y="808" type="curve"/>
      <point x="1023" y="841"/>
      <point x="1048" y="893"/>
      <point x="1057" y="923" type="curve"/>
      <point x="1029" y="960" type="line"/>
      <point x="975" y="940"/>
      <point x="875" y="905"/>
      <point x="760" y="890" type="curve"/>
      <point x="696" y="933"/>
      <point x="615" y="960"/>
      <point x="523" y="960" type="curve" smooth="yes"/>
      <point x="291" y="960"/>
      <point x="85" y="798"/>
      <point x="85" y="602" type="curve" smooth="yes"/>
      <point x="85" y="460"/>
      <point x="185" y="355"/>
      <point x="334" y="314" type="curve"/>
      <point x="200" y="223"/>
      <point x="152" y="153"/>
      <point x="152" y="123" type="curve" smooth="yes"/>
      <point x="152" y="89"/>
      <point x="191" y="55"/>
      <point x="266" y="25" type="curve"/>
      <point x="62" y="-87"/>
      <point x="15" y="-156"/>
      <point x="15" y="-222" type="curve" smooth="yes"/>
      <point x="15" y="-416"/>
      <point x="296" y="-493"/>
      <point x="505" y="-493" type="curve" smooth="yes"/>
      <point x="762" y="-493"/>
      <point x="1038" y="-294"/>
      <point x="1038" y="-105" type="curve" smooth="yes"/>
      <point x="1038" y="27"/>
      <point x="953" y="101"/>
      <point x="640" y="140" type="curve"/>
      <point x="431" y="167"/>
      <point x="414" y="187"/>
      <point x="414" y="211" type="curve" smooth="yes"/>
      <point x="414" y="219"/>
      <point x="422" y="248"/>
      <point x="473" y="295" type="curve"/>
      <point x="483" y="295" type="line" smooth="yes"/>
      <point x="704" y="295"/>
      <point x="898" y="437"/>
    </contour>
    <contour>
      <point x="556" y="-42" type="curve" smooth="yes"/>
      <point x="768" y="-69"/>
      <point x="805" y="-121"/>
      <point x="805" y="-172" type="curve" smooth="yes"/>
      <point x="805" y="-265"/>
      <point x="732" y="-350"/>
      <point x="575" y="-350" type="curve" smooth="yes"/>
      <point x="393" y="-350"/>
      <point x="255" y="-272"/>
      <point x="255" y="-183" type="curve" smooth="yes"/>
      <point x="255" y="-144"/>
      <point x="264" y="-97"/>
      <point x="387" y="-12" type="curve"/>
      <point x="436" y="-23"/>
      <point x="492" y="-34"/>
    </contour>
    <contour>
      <point x="668" y="600" type="curve" smooth="yes"/>
      <point x="668" y="475"/>
      <point x="600" y="415"/>
      <point x="522" y="415" type="curve" smooth="yes"/>
      <point x="379" y="415"/>
      <point x="315" y="525"/>
      <point x="315" y="659" type="curve" smooth="yes"/>
      <point x="315" y="784"/>
      <point x="395" y="845"/>
      <point x="461" y="845" type="curve" smooth="yes"/>
      <point x="596" y="845"/>
      <point x="668" y="735"/>
    </contour>
    <contour>
      <point x="525" y="-470" type="move" name="H"/>
    </contour>
    <contour>
      <point x="1059" y="900" type="move" name="R"/>
    </contour>
    <contour>
      <point x="525" y="1050" type="move" name="U"/>
    </contour>
    <contour>
      <point x="525" y="-600" type="move" name="L"/>
    </contour>
  </outline>
</glyph>
<glyph name="LtnSmH" format="1">
  <advance width="1190"/>
  <unicode hex="0068"/>
  <outline>
    <contour>
      <point x="1168" y="0" type="line"/>
      <point x="1168" y="73" type="line"/>
      <point x="1063" y="100"/>
      <point x="1035" y="116"/>
      <point x="1035" y="134" type="curve" smooth="yes"/>
      <point x="1035" y="704" type="line" smooth="yes"/>
      <point x="1035" y="891"/>
      <point x="929" y="960"/>
      <point x="814" y="960" type="curve" smooth="yes"/>
      <point x="710" y="960"/>
      <point x="573" y="907"/>
      <point x="420" y="782" type="curve"/>
      <point x="420" y="1509" type="line"/>
      <point x="376" y="1550" type="line"/>
      <point x="277" y="1511"/>
      <point x="198" y="1491"/>
      <point x="48" y="1470" type="curve"/>
      <point x="48" y="1400" type="line"/>
      <point x="177" y="1385"/>
      <point x="180" y="1379"/>
      <point x="180" y="1268" type="curve" smooth="yes"/>
      <point x="180" y="134" type="line" smooth="yes"/>
      <point x="180" y="112"/>
      <point x="136" y="96"/>
      <point x="48" y="73" type="curve"/>
      <point x="48" y="0" type="line"/>
      <point x="553" y="0" type="line"/>
      <point x="553" y="73" type="line"/>
      <point x="467" y="91"/>
      <point x="420" y="114"/>
      <point x="420" y="134" type="curve" smooth="yes"/>
      <point x="420" y="639" type="line"/>
      <point x="528" y="728"/>
      <point x="605" y="778"/>
      <point x="682" y="778" type="curve" smooth="yes"/>
      <point x="763" y="778"/>
      <point x="795" y="735"/>
      <point x="795" y="573" type="curve" smooth="yes"/>
      <point x="795" y="134" type="line" smooth="yes"/>
      <point x="795" y="116"/>
      <point x="759" y="98"/>
      <point x="663" y="73" type="curve"/>
      <point x="663" y="0" type="line"/>
    </contour>
    <contour>
      <point x="264" y="0" type="move" name="H"/>
    </contour>
    <contour>
      <point x="607" y="1620" type="move" name="U"/>
    </contour>
    <contour>
      <point x="607" y="-100" type="move" name="L"/>
    </contour>
  </outline>
</glyph>
<glyph name="LtnSmK" format="1">
  <advance width="1129"/>
  <unicode hex="006B"/>
  <outline>
    <contour>
      <point x="530" y="0" type="line"/>
      <point x="530" y="73" type="line"/>
      <point x="431" y="104"/>
      <point x="420" y="114"/>
      <point x="420" y="134" type="curve" smooth="yes"/>
      <point x="420" y="517" type="line"/>
      <point x="778" y="43" type="line" smooth="yes"/>
      <point x="807" y="4"/>
      <point x="844" y="-10"/>
      <point x="900" y="-10" type="curve" smooth="yes"/>
      <point x="928" y="-10"/>
      <point x="1059" y="15"/>
      <point x="1137" y="33" type="curve"/>
      <point x="1131" y="106" type="line"/>
      <point x="1053" y="100"/>
      <point x="1021" y="106"/>
      <point x="984" y="149" type="curve" smooth="yes"/>
      <point x="623" y="558" type="line"/>
      <point x="927" y="788" type="line" smooth="yes"/>
      <point x="984" y="831"/>
      <point x="1043" y="851"/>
      <point x="1102" y="857" type="curve"/>
      <point x="1102" y="930" type="line"/>
      <point x="655" y="930" type="line"/>
      <point x="655" y="857" type="line"/>
      <point x="725" y="857"/>
      <point x="770" y="848"/>
      <point x="683" y="769" type="curve"/>
      <point x="420" y="534" type="line"/>
      <point x="420" y="1509" type="line"/>
      <point x="376" y="1550" type="line"/>
      <point x="286" y="1510"/>
      <point x="177" y="1489"/>
      <point x="48" y="1470" type="curve"/>
      <point x="48" y="1400" type="line"/>
      <point x="163" y="1387"/>
      <point x="180" y="1389"/>
      <point x="180" y="1266" type="curve" smooth="yes"/>
      <point x="180" y="134" type="line" smooth="yes"/>
      <point x="180" y="110"/>
      <point x="136" y="96"/>
      <point x="48" y="73" type="curve"/>
      <point x="48" y="0" type="line"/>
    </contour>
    <contour>
      <point x="295" y="0" type="move" name="H"/>
    </contour>
    <contour>
      <point x="1129" y="900" type="move" name="R"/>
    </contour>
    <contour>
      <point x="592" y="1620" type="move" name="U"/>
    </contour>
    <contour>
      <point x="592" y="-100" type="move" name="L"/>
    </contour>
  </outline>
</glyph>
<glyph name="LtnSmL" format="1">
  <advance width="615"/>
  <unicode hex="006C"/>
  <outline>
    <contour>
      <point x="578" y="0" type="line"/>
      <point x="578" y="73" type="line"/>
      <point x="469" y="91"/>
      <point x="435" y="114"/>
      <point x="435" y="134" type="curve" smooth="yes"/>
      <point x="435" y="1509" type="line"/>
      <point x="392" y="1550" type="line"/>
      <point x="287" y="1507"/>
      <point x="196" y="1489"/>
      <point x="63" y="1470" type="curve"/>
      <point x="63" y="1400" type="line"/>
      <point x="175" y="1387"/>
      <point x="195" y="1387"/>
      <point x="195" y="1266" type="curve" smooth="yes"/>
      <point x="195" y="134" type="line" smooth="yes"/>
      <point x="195" y="112"/>
      <point x="168" y="93"/>
      <point x="53" y="73" type="curve"/>
      <point x="53" y="0" type="line"/>
    </contour>
    <contour>
      <point x="315" y="0" type="move" name="H"/>
    </contour>
    <contour>
      <point x="595" y="900" type="move" name="R"/>
    </contour>
    <contour>
      <point x="315" y="1690" type="move" name="U"/>
    </contour>
    <contour>
      <point x="315" y="-100" type="move" name="L"/>
    </contour>
  </outline>
</glyph>
<glyph name="LtnSmO" format="1">
  <advance width="1075"/>
  <unicode hex="006F"/>
  <outline>
    <contour>
      <point x="1010" y="485" type="curve"/>
      <point x="1010" y="758"/>
      <point x="831" y="960"/>
      <point x="558" y="960" type="curve" smooth="yes"/>
      <point x="270" y="960"/>
      <point x="65" y="709"/>
      <point x="65" y="444" type="curve" smooth="yes"/>
      <point x="65" y="172"/>
      <point x="244" y="-30"/>
      <point x="519" y="-30" type="curve" smooth="yes"/>
      <point x="784" y="-30"/>
      <point x="1010" y="219"/>
    </contour>
    <contour>
      <point x="758" y="440" type="curve"/>
      <point x="758" y="220"/>
      <point x="706" y="95"/>
      <point x="547" y="95" type="curve" smooth="yes"/>
      <point x="424" y="95"/>
      <point x="318" y="262"/>
      <point x="318" y="473" type="curve" smooth="yes"/>
      <point x="318" y="679"/>
      <point x="363" y="835"/>
      <point x="529" y="835" type="curve" smooth="yes"/>
      <point x="666" y="835"/>
      <point x="758" y="651"/>
    </contour>
    <contour>
      <point x="559" y="0" type="move" name="H"/>
    </contour>
    <contour>
      <point x="1075" y="900" type="move" name="R"/>
    </contour>
    <contour>
      <point x="559" y="1050" type="move" name="U"/>
    </contour>
    <contour>
      <point x="559" y="-100" type="move" name="L"/>
    </contour>
    <contour>
      <point x="602" y="0" type="move" name="O"/>
    </contour>
  </outline>
</glyph>
<glyph name="LtnSmP" format="1">
  <advance width="1145"/>
  <unicode hex="0070"/>
  <outline>
    <contour>
      <point x="1080" y="500" type="curve"/>
      <point x="1080" y="814"/>
      <point x="925" y="960"/>
      <point x="743" y="960" type="curve" smooth="yes"/>
      <point x="667" y="960"/>
      <point x="562" y="925"/>
      <point x="414" y="795" type="curve"/>
      <point x="405" y="918" type="line"/>
      <point x="363" y="960" type="line"/>
      <point x="262" y="923"/>
      <point x="200" y="908"/>
      <point x="48" y="888" type="curve"/>
      <point x="48" y="818" type="line"/>
      <point x="175" y="812"/>
      <point x="180" y="789"/>
      <point x="180" y="689" type="curve" smooth="yes"/>
      <point x="180" y="-345" type="line" smooth="yes"/>
      <point x="180" y="-368"/>
      <point x="136" y="-386"/>
      <point x="48" y="-407" type="curve"/>
      <point x="48" y="-480" type="line"/>
      <point x="589" y="-480" type="line"/>
      <point x="589" y="-407" type="line"/>
      <point x="464" y="-388"/>
      <point x="420" y="-366"/>
      <point x="420" y="-345" type="curve" smooth="yes"/>
      <point x="420" y="83" type="line"/>
      <point x="537" y="1"/>
      <point x="613" y="-30"/>
      <point x="691" y="-30" type="curve" smooth="yes"/>
      <point x="856" y="-30"/>
      <point x="1080" y="238"/>
    </contour>
    <contour>
      <point x="855" y="426" type="curve"/>
      <point x="856" y="241"/>
      <point x="784" y="138"/>
      <point x="681" y="138" type="curve" smooth="yes"/>
      <point x="617" y="137"/>
      <point x="562" y="146"/>
      <point x="420" y="228" type="curve"/>
      <point x="420" y="678" type="line"/>
      <point x="537" y="775"/>
      <point x="575" y="790"/>
      <point x="623" y="790" type="curve" smooth="yes"/>
      <point x="737" y="790"/>
      <point x="855" y="682"/>
    </contour>
    <contour>
      <point x="667" y="-470" type="move" name="H"/>
    </contour>
    <contour>
      <point x="1145" y="900" type="move" name="R"/>
    </contour>
    <contour>
      <point x="563" y="1050" type="move" name="U"/>
    </contour>
    <contour>
      <point x="563" y="-600" type="move" name="L"/>
    </contour>
  </outline>
</glyph>
<glyph name="LtnSmQ" format="1">
  <advance width="1123"/>
  <unicode hex="0071"/>
  <outline>
    <contour>
      <point x="1109" y="-480" type="line"/>
      <point x="1109" y="-407" type="line"/>
      <point x="1007" y="-388"/>
      <point x="978" y="-366"/>
      <point x="978" y="-345" type="curve" smooth="yes"/>
      <point x="978" y="695" type="line" smooth="yes"/>
      <point x="978" y="816"/>
      <point x="1009" y="923"/>
      <point x="1009" y="923" type="curve"/>
      <point x="970" y="960" type="line"/>
      <point x="946" y="936"/>
      <point x="856" y="882"/>
      <point x="793" y="850" type="curve"/>
      <point x="695" y="945"/>
      <point x="628" y="960"/>
      <point x="551" y="960" type="curve" smooth="yes"/>
      <point x="470" y="960"/>
      <point x="367" y="922"/>
      <point x="292" y="873" type="curve" smooth="yes"/>
      <point x="198" y="811"/>
      <point x="65" y="678"/>
      <point x="65" y="444" type="curve" smooth="yes"/>
      <point x="65" y="147"/>
      <point x="253" y="-30"/>
      <point x="409" y="-30" type="curve" smooth="yes"/>
      <point x="537" y="-30"/>
      <point x="618" y="18"/>
      <point x="738" y="138" type="curve"/>
      <point x="738" y="-345" type="line" smooth="yes"/>
      <point x="738" y="-368"/>
      <point x="693" y="-388"/>
      <point x="568" y="-407" type="curve"/>
      <point x="568" y="-480" type="line"/>
    </contour>
    <contour>
      <point x="525" y="160" type="curve" smooth="yes"/>
      <point x="415" y="160"/>
      <point x="305" y="278"/>
      <point x="305" y="505" type="curve" smooth="yes"/>
      <point x="305" y="733"/>
      <point x="401" y="828"/>
      <point x="528" y="828" type="curve" smooth="yes"/>
      <point x="602" y="828"/>
      <point x="693" y="777"/>
      <point x="738" y="700" type="curve"/>
      <point x="738" y="270" type="line"/>
      <point x="659" y="198"/>
      <point x="598" y="160"/>
    </contour>
    <contour>
      <point x="1123" y="900" type="move" name="R"/>
    </contour>
    <contour>
      <point x="587" y="1050" type="move" name="U"/>
    </contour>
    <contour>
      <point x="587" y="-600" type="move" name="L"/>
    </contour>
  </outline>
</glyph>
<glyph name="LtnSmS" format="1">
  <advance width="858"/>
  <unicode hex="0073"/>
  <outline>
    <contour>
      <point x="782" y="283" type="curve"/>
      <point x="782" y="432"/>
      <point x="653" y="500"/>
      <point x="537" y="559" type="curve"/>
      <point x="396" y="633"/>
      <point x="308" y="672"/>
      <point x="308" y="758" type="curve" smooth="yes"/>
      <point x="308" y="813"/>
      <point x="354" y="855"/>
      <point x="434" y="855" type="curve" smooth="yes"/>
      <point x="522" y="855"/>
      <point x="586" y="791"/>
      <point x="619" y="674" type="curve"/>
      <point x="688" y="666" type="line"/>
      <point x="720" y="709"/>
      <point x="763" y="870"/>
      <point x="746" y="883" type="curve" smooth="yes"/>
      <point x="684" y="930"/>
      <point x="559" y="960"/>
      <point x="445" y="960" type="curve" smooth="yes"/>
      <point x="264" y="960"/>
      <point x="88" y="859"/>
      <point x="88" y="693" type="curve" smooth="yes"/>
      <point x="88" y="566"/>
      <point x="210" y="491"/>
      <point x="321" y="434" type="curve" smooth="yes"/>
      <point x="443" y="370"/>
      <point x="562" y="312"/>
      <point x="562" y="205" type="curve" smooth="yes"/>
      <point x="562" y="126"/>
      <point x="516" y="93"/>
      <point x="420" y="93" type="curve" smooth="yes"/>
      <point x="305" y="93"/>
      <point x="206" y="183"/>
      <point x="178" y="325" type="curve"/>
      <point x="97" y="336" type="line"/>
      <point x="71" y="238"/>
      <point x="72" y="51"/>
      <point x="90" y="43" type="curve"/>
      <point x="179" y="-6"/>
      <point x="300" y="-30"/>
      <point x="385" y="-30" type="curve" smooth="yes"/>
      <point x="501" y="-30"/>
      <point x="782" y="0"/>
    </contour>
    <contour>
      <point x="414" y="0" type="move" name="H"/>
    </contour>
    <contour>
      <point x="429" y="1050" type="move" name="U"/>
    </contour>
    <contour>
      <point x="429" y="-100" type="move" name="L"/>
    </contour>
  </outline>
</glyph>
<glyph name="LtnSmV" format="1">
  <advance width="1040"/>
  <unicode hex="0076"/>
  <outline>
    <contour>
      <point x="1027" y="857" type="curve"/>
      <point x="1027" y="930" type="line"/>
      <point x="704" y="930" type="line"/>
      <point x="704" y="857" type="line"/>
      <point x="794" y="842"/>
      <point x="801" y="829"/>
      <point x="785" y="789" type="curve" smooth="yes"/>
      <point x="583" y="286" type="line"/>
      <point x="368" y="789" type="line" smooth="yes"/>
      <point x="350" y="831"/>
      <point x="363" y="844"/>
      <point x="466" y="857" type="curve"/>
      <point x="466" y="930" type="line"/>
      <point x="13" y="930" type="line"/>
      <point x="13" y="857" type="line"/>
      <point x="79" y="842"/>
      <point x="101" y="825"/>
      <point x="116" y="789" type="curve"/>
      <point x="469" y="-30" type="line"/>
      <point x="534" y="-15"/>
      <point x="618" y="23"/>
      <point x="641" y="82" type="curve" smooth="yes"/>
      <point x="924" y="789" type="line" smooth="yes"/>
      <point x="940" y="827"/>
      <point x="947" y="838"/>
    </contour>
    <contour>
      <point x="531" y="0" type="move" name="H"/>
    </contour>
    <contour>
      <point x="552" y="1050" type="move" name="U"/>
    </contour>
    <contour>
      <point x="531" y="-100" type="move" name="L"/>
    </contour>
    <contour>
      <point x="473" y="0" type="move" name="O"/>
    </contour>
  </outline>
</glyph>
<glyph name="LtnSmZ" format="1">
  <advance width="959"/>
  <unicode hex="007A"/>
  <outline>
    <contour>
      <point x="882" y="331" type="curve"/>
      <point x="812" y="348" type="line"/>
      <point x="775" y="205"/>
      <point x="755" y="120"/>
      <point x="707" y="120" type="curve" smooth="yes"/>
      <point x="364" y="120" type="line"/>
      <point x="895" y="887" type="line"/>
      <point x="873" y="930" type="line"/>
      <point x="313" y="930" type="line" smooth="yes"/>
      <point x="227" y="930"/>
      <point x="195" y="930"/>
      <point x="137" y="946" type="curve"/>
      <point x="112" y="620" type="line"/>
      <point x="183" y="600" type="line"/>
      <point x="218" y="746"/>
      <point x="272" y="810"/>
      <point x="330" y="810" type="curve" smooth="yes"/>
      <point x="590" y="810" type="line"/>
      <point x="61" y="45" type="line"/>
      <point x="87" y="0" type="line"/>
      <point x="870" y="0" type="line"/>
      <point x="878" y="47"/>
      <point x="882" y="247"/>
    </contour>
    <contour>
      <point x="807" y="0" type="move" name="H"/>
    </contour>
    <contour>
      <point x="508" y="1050" type="move" name="U"/>
    </contour>
    <contour>
      <point x="478" y="-100" type="move" name="L"/>
    </contour>
  </outline>
</glyph>
<glyph name="VertLine" format="1">
  <advance width="470"/>
  <unicode hex="007C"/>
  <outline>
    <contour>
      <point x="335" y="-346" type="curve"/>
      <point x="335" y="1641" type="line"/>
      <point x="292" y="1670" type="line"/>
      <point x="253" y="1660"/>
      <point x="202" y="1636"/>
      <point x="165" y="1614" type="curve"/>
      <point x="165" y="-375" type="line"/>
      <point x="208" y="-405" type="line"/>
      <point x="241" y="-394"/>
      <point x="311" y="-367"/>
    </contour>
  </outline>
</glyph>
<glyph name="RtCurlyBrac" format="1">
  <advance width="717"/>
  <unicode hex="007D"/>
  <outline>
    <contour>
      <point x="632" y="636" type="curve"/>
      <point x="615" y="720" type="line"/>
      <point x="576" y="713"/>
      <point x="587" y="714"/>
      <point x="550" y="714" type="curve" smooth="yes"/>
      <point x="466" y="714"/>
      <point x="417" y="755"/>
      <point x="417" y="863" type="curve" smooth="yes"/>
      <point x="417" y="1013"/>
      <point x="457" y="1086"/>
      <point x="457" y="1228" type="curve" smooth="yes"/>
      <point x="457" y="1420"/>
      <point x="319" y="1510"/>
      <point x="73" y="1599" type="curve"/>
      <point x="35" y="1508" type="line"/>
      <point x="175" y="1431"/>
      <point x="201" y="1367"/>
      <point x="201" y="1256" type="curve" smooth="yes"/>
      <point x="201" y="1139"/>
      <point x="161" y="1044"/>
      <point x="161" y="900" type="curve" smooth="yes"/>
      <point x="161" y="752"/>
      <point x="222" y="656"/>
      <point x="356" y="631" type="curve"/>
      <point x="243" y="582"/>
      <point x="161" y="473"/>
      <point x="161" y="362" type="curve" smooth="yes"/>
      <point x="161" y="221"/>
      <point x="201" y="158"/>
      <point x="201" y="18" type="curve" smooth="yes"/>
      <point x="201" y="-83"/>
      <point x="129" y="-173"/>
      <point x="25" y="-238" type="curve"/>
      <point x="66" y="-316" type="line"/>
      <point x="287" y="-226"/>
      <point x="457" y="-105"/>
      <point x="457" y="75" type="curve" smooth="yes"/>
      <point x="457" y="224"/>
      <point x="417" y="274"/>
      <point x="417" y="421" type="curve" smooth="yes"/>
      <point x="417" y="522"/>
      <point x="483" y="595"/>
    </contour>
  </outline>
</glyph>
<glyph name="Diaer" format="1">
  <advance width="801"/>
  <unicode hex="00A8"/>
  <outline>
    <contour>
      <point x="326" y="1268" type="curve"/>
      <point x="326" y="1349"/>
      <point x="282" y="1389"/>
      <point x="208" y="1389" type="curve" smooth="yes"/>
      <point x="126" y="1389"/>
      <point x="51" y="1311"/>
      <point x="51" y="1213" type="curve" smooth="yes"/>
      <point x="51" y="1134"/>
      <point x="93" y="1091"/>
      <point x="170" y="1091" type="curve" smooth="yes"/>
      <point x="255" y="1091"/>
      <point x="326" y="1170"/>
    </contour>
    <contour>
      <point x="749" y="1268" type="curve"/>
      <point x="749" y="1349"/>
      <point x="704" y="1389"/>
      <point x="630" y="1389" type="curve" smooth="yes"/>
      <point x="548" y="1389"/>
      <point x="474" y="1311"/>
      <point x="474" y="1213" type="curve" smooth="yes"/>
      <point x="474" y="1134"/>
      <point x="515" y="1091"/>
      <point x="592" y="1091" type="curve" smooth="yes"/>
      <point x="678" y="1091"/>
      <point x="749" y="1170"/>
    </contour>
    <contour>
      <point x="400" y="1410" type="move" name="U"/>
    </contour>
  </outline>
</glyph>
<glyph name="CopyrightSgn" format="1">
  <advance width="1496"/>
  <unicode hex="00A9"/>
  <outline>
    <contour>
      <point x="1411" y="666" type="curve"/>
      <point x="1411" y="1049"/>
      <point x="1131" y="1359"/>
      <point x="747" y="1359" type="curve" smooth="yes"/>
      <point x="364" y="1359"/>
      <point x="85" y="1049"/>
      <point x="85" y="666" type="curve" smooth="yes"/>
      <point x="85" y="282"/>
      <point x="364" y="-30"/>
      <point x="747" y="-30" type="curve" smooth="yes"/>
      <point x="1131" y="-30"/>
      <point x="1411" y="282"/>
    </contour>
    <contour>
      <point x="1292" y="666" type="curve"/>
      <point x="1292" y="348"/>
      <point x="1065" y="91"/>
      <point x="747" y="91" type="curve" smooth="yes"/>
      <point x="432" y="91"/>
      <point x="204" y="348"/>
      <point x="204" y="666" type="curve" smooth="yes"/>
      <point x="204" y="981"/>
      <point x="432" y="1239"/>
      <point x="747" y="1239" type="curve" smooth="yes"/>
      <point x="1065" y="1239"/>
      <point x="1292" y="981"/>
    </contour>
    <contour>
      <point x="1068" y="412" type="curve"/>
      <point x="1066" y="413"/>
      <point x="1026" y="464"/>
      <point x="1023" y="465" type="curve"/>
      <point x="910" y="384"/>
      <point x="864" y="372"/>
      <point x="803" y="372" type="curve" smooth="yes"/>
      <point x="685" y="372"/>
      <point x="560" y="485"/>
      <point x="560" y="670" type="curve" smooth="yes"/>
      <point x="560" y="895"/>
      <point x="656" y="988"/>
      <point x="766" y="988" type="curve" smooth="yes"/>
      <point x="862" y="988"/>
      <point x="902" y="903"/>
      <point x="929" y="813" type="curve"/>
      <point x="983" y="805" type="line"/>
      <point x="1006" y="834"/>
      <point x="1061" y="994"/>
      <point x="1055" y="1017" type="curve" smooth="yes"/>
      <point x="1014" y="1056"/>
      <point x="912" y="1091"/>
      <point x="824" y="1091" type="curve" smooth="yes"/>
      <point x="558" y="1091"/>
      <point x="361" y="889"/>
      <point x="361" y="639" type="curve" smooth="yes"/>
      <point x="361" y="389"/>
      <point x="539" y="234"/>
      <point x="725" y="234" type="curve" smooth="yes"/>
      <point x="829" y="234"/>
      <point x="927" y="260"/>
    </contour>
  </outline>
</glyph>
<glyph name="NotSgn" format="1">
  <advance width="1036"/>
  <unicode hex="00AC"/>
  <outline>
    <contour>
      <point x="951" y="233" type="curve"/>
      <point x="951" y="604" type="line"/>
      <point x="915" y="633" type="line"/>
      <point x="121" y="633" type="line"/>
      <point x="109" y="607"/>
      <point x="82" y="550"/>
      <point x="75" y="523" type="curve"/>
      <point x="108" y="491" type="line"/>
      <point x="803" y="491" type="line"/>
      <point x="803" y="200" type="line"/>
      <point x="835" y="167" type="line"/>
      <point x="868" y="178"/>
      <point x="924" y="213"/>
    </contour>
  </outline>
</glyph>
<glyph name="RegisteredSgn" format="1">
  <advance width="730"/>
  <unicode hex="00AE"/>
  <outline>
    <contour>
      <point x="711" y="1084" type="curve" smooth="yes"/>
      <point x="711" y="1283"/>
      <point x="564" y="1445"/>
      <point x="364" y="1445" type="curve" smooth="yes"/>
      <point x="166" y="1445"/>
      <point x="20" y="1283"/>
      <point x="20" y="1084" type="curve" smooth="yes"/>
      <point x="20" y="886"/>
      <point x="166" y="723"/>
      <point x="364" y="723" type="curve" smooth="yes"/>
      <point x="564" y="723"/>
      <point x="711" y="886"/>
    </contour>
    <contour>
      <point x="637" y="1084" type="curve" smooth="yes"/>
      <point x="637" y="925"/>
      <point x="523" y="797"/>
      <point x="364" y="797" type="curve" smooth="yes"/>
      <point x="207" y="797"/>
      <point x="93" y="925"/>
      <point x="93" y="1084" type="curve" smooth="yes"/>
      <point x="93" y="1242"/>
      <point x="207" y="1371"/>
      <point x="364" y="1371" type="curve" smooth="yes"/>
      <point x="523" y="1371"/>
      <point x="637" y="1242"/>
    </contour>
    <contour>
      <point x="356" y="884" type="line"/>
      <point x="356" y="907" type="line"/>
      <point x="326" y="913"/>
      <point x="319" y="920"/>
      <point x="319" y="925" type="curve" smooth="yes"/>
      <point x="319" y="1069" type="line"/>
      <point x="328" y="1068"/>
      <point x="336" y="1067"/>
      <point x="344" y="1067" type="curve" smooth="yes"/>
      <point x="352" y="1067" type="line"/>
      <point x="441" y="895" type="line"/>
      <point x="446" y="887"/>
      <point x="457" y="880"/>
      <point x="469" y="880" type="curve" smooth="yes"/>
      <point x="484" y="880"/>
      <point x="533" y="892"/>
      <point x="560" y="900" type="curve"/>
      <point x="557" y="923" type="line"/>
      <point x="528" y="921"/>
      <point x="519" y="925"/>
      <point x="510" y="939" type="curve" smooth="yes"/>
      <point x="416" y="1075" type="line"/>
      <point x="480" y="1093"/>
      <point x="514" y="1135"/>
      <point x="514" y="1196" type="curve" smooth="yes"/>
      <point x="514" y="1250"/>
      <point x="467" y="1293"/>
      <point x="352" y="1293" type="curve" smooth="yes"/>
      <point x="297" y="1293"/>
      <point x="244" y="1287"/>
      <point x="205" y="1278" type="curve"/>
      <point x="209" y="1244" type="line"/>
      <point x="221" y="1245"/>
      <point x="234" y="1247"/>
      <point x="247" y="1249" type="curve"/>
      <point x="247" y="925" type="line" smooth="yes"/>
      <point x="247" y="919"/>
      <point x="235" y="913"/>
      <point x="207" y="907" type="curve"/>
      <point x="207" y="884" type="line"/>
    </contour>
    <contour>
      <point x="341" y="1256" type="curve" smooth="yes"/>
      <point x="402" y="1256"/>
      <point x="432" y="1226"/>
      <point x="432" y="1187" type="curve" smooth="yes"/>
      <point x="432" y="1136"/>
      <point x="407" y="1109"/>
      <point x="340" y="1109" type="curve" smooth="yes"/>
      <point x="332" y="1109"/>
      <point x="326" y="1109"/>
      <point x="319" y="1110" type="curve"/>
      <point x="319" y="1255" type="line"/>
      <point x="326" y="1256"/>
      <point x="334" y="1256"/>
    </contour>
  </outline>
</glyph>
<glyph name="DegreeSgn" format="1">
  <advance width="733"/>
  <unicode hex="00B0"/>
  <outline>
    <contour>
      <point x="619" y="1050" type="curve"/>
      <point x="619" y="1164"/>
      <point x="524" y="1262"/>
      <point x="409" y="1262" type="curve" smooth="yes"/>
      <point x="269" y="1262"/>
      <point x="115" y="1128"/>
      <point x="115" y="943" type="curve" smooth="yes"/>
      <point x="115" y="828"/>
      <point x="203" y="732"/>
      <point x="325" y="732" type="curve" smooth="yes"/>
      <point x="462" y="732"/>
      <point x="619" y="868"/>
    </contour>
    <contour>
      <point x="467" y="995" type="curve"/>
      <point x="467" y="917"/>
      <point x="412" y="873"/>
      <point x="357" y="873" type="curve" smooth="yes"/>
      <point x="301" y="873"/>
      <point x="267" y="934"/>
      <point x="267" y="998" type="curve" smooth="yes"/>
      <point x="267" y="1073"/>
      <point x="320" y="1120"/>
      <point x="377" y="1120" type="curve" smooth="yes"/>
      <point x="432" y="1120"/>
      <point x="467" y="1062"/>
    </contour>
  </outline>
</glyph>
<glyph name="SupTwo" format="1">
  <advance width="711"/>
  <unicode hex="00B2"/>
  <outline>
    <contour>
      <point x="651" y="840" type="line"/>
      <point x="592" y="852" type="line"/>
      <point x="592" y="852"/>
      <point x="584" y="735"/>
      <point x="521" y="735" type="curve" smooth="yes"/>
      <point x="269" y="735" type="line"/>
      <point x="568" y="1018"/>
      <point x="641" y="1101"/>
      <point x="641" y="1209" type="curve" smooth="yes"/>
      <point x="641" y="1309"/>
      <point x="547" y="1361"/>
      <point x="401" y="1361" type="curve" smooth="yes"/>
      <point x="224" y="1361"/>
      <point x="74" y="1257"/>
      <point x="74" y="1174" type="curve"/>
      <point x="98" y="1133" type="line"/>
      <point x="141" y="1137"/>
      <point x="240" y="1156"/>
      <point x="272" y="1171" type="curve"/>
      <point x="260" y="1231"/>
      <point x="286" y="1282"/>
      <point x="353" y="1282" type="curve" smooth="yes"/>
      <point x="420" y="1282"/>
      <point x="445" y="1242"/>
      <point x="445" y="1174" type="curve" smooth="yes"/>
      <point x="445" y="1088"/>
      <point x="384" y="994"/>
      <point x="56" y="664" type="curve"/>
      <point x="76" y="620" type="line"/>
      <point x="641" y="620" type="line"/>
    </contour>
    <contour>
      <point x="364" y="1410" type="move" name="U"/>
    </contour>
    <contour>
      <point x="364" y="550" type="move" name="L"/>
    </contour>
  </outline>
</glyph>
<glyph name="MicroSgn" format="1">
  <advance width="1165"/>
  <unicode hex="00B5"/>
  <outline>
    <contour>
      <point x="1135" y="172" type="line"/>
      <point x="1091" y="151"/>
      <point x="1066" y="144"/>
      <point x="1037" y="144" type="curve" smooth="yes"/>
      <point x="1009" y="144"/>
      <point x="998" y="174"/>
      <point x="998" y="298" type="curve" smooth="yes"/>
      <point x="998" y="759" type="line"/>
      <point x="1000" y="842"/>
      <point x="1009" y="880"/>
      <point x="1014" y="914" type="curve"/>
      <point x="978" y="960" type="line"/>
      <point x="903" y="936"/>
      <point x="793" y="913"/>
      <point x="720" y="900" type="curve"/>
      <point x="738" y="875"/>
      <point x="758" y="791"/>
      <point x="758" y="748" type="curve" smooth="yes"/>
      <point x="758" y="306" type="line"/>
      <point x="664" y="187"/>
      <point x="611" y="169"/>
      <point x="561" y="169" type="curve" smooth="yes"/>
      <point x="499" y="169"/>
      <point x="408" y="263"/>
      <point x="408" y="381" type="curve" smooth="yes"/>
      <point x="408" y="910" type="line"/>
      <point x="397" y="924"/>
      <point x="363" y="960"/>
      <point x="362" y="960" type="curve" smooth="yes"/>
      <point x="262" y="924"/>
      <point x="165" y="905"/>
      <point x="46" y="894" type="curve"/>
      <point x="46" y="824" type="line"/>
      <point x="172" y="811"/>
      <point x="168" y="797"/>
      <point x="168" y="694" type="curve" smooth="yes"/>
      <point x="168" y="-464" type="line"/>
      <point x="214" y="-500" type="line"/>
      <point x="246" y="-484"/>
      <point x="425" y="-412"/>
      <point x="464" y="-399" type="curve"/>
      <point x="384" y="-315"/>
      <point x="295" y="-158"/>
      <point x="296" y="86" type="curve" smooth="yes"/>
      <point x="296" y="106" type="line"/>
      <point x="362" y="22"/>
      <point x="440" y="-31"/>
      <point x="498" y="-31" type="curve" smooth="yes"/>
      <point x="581" y="-31"/>
      <point x="660" y="25"/>
      <point x="760" y="159" type="curve"/>
      <point x="770" y="54"/>
      <point x="808" y="-31"/>
      <point x="878" y="-31" type="curve" smooth="yes"/>
      <point x="946" y="-31"/>
      <point x="1082" y="40"/>
      <point x="1160" y="97" type="curve"/>
    </contour>
  </outline>
</glyph>
<glyph name="PilcrowSgn" format="1">
  <advance width="1241"/>
  <unicode hex="00B6"/>
  <outline>
    <contour>
      <point x="1168" y="-250" type="line"/>
      <point x="1168" y="-177" type="line"/>
      <point x="1071" y="-158"/>
      <point x="1030" y="-132"/>
      <point x="1030" y="-115" type="curve" smooth="yes"/>
      <point x="1030" y="1125" type="line" smooth="yes"/>
      <point x="1030" y="1144"/>
      <point x="1078" y="1168"/>
      <point x="1168" y="1187" type="curve"/>
      <point x="1168" y="1260" type="line"/>
      <point x="1104" y="1260" type="line"/>
      <point x="1104" y="1260"/>
      <point x="656" y="1290"/>
      <point x="539" y="1290" type="curve" smooth="yes"/>
      <point x="231" y="1290"/>
      <point x="35" y="1130"/>
      <point x="35" y="903" type="curve" smooth="yes"/>
      <point x="35" y="653"/>
      <point x="249" y="519"/>
      <point x="535" y="519" type="curve" smooth="yes"/>
      <point x="571" y="519"/>
      <point x="598" y="521"/>
      <point x="622" y="525" type="curve"/>
      <point x="621" y="-115" type="line" smooth="yes"/>
      <point x="621" y="-134"/>
      <point x="573" y="-158"/>
      <point x="482" y="-177" type="curve"/>
      <point x="482" y="-250" type="line"/>
    </contour>
    <contour>
      <point x="578" y="633" type="line"/>
      <point x="381" y="633"/>
      <point x="298" y="793"/>
      <point x="298" y="938" type="curve" smooth="yes"/>
      <point x="298" y="1087"/>
      <point x="428" y="1176"/>
      <point x="557" y="1176" type="curve" smooth="yes"/>
      <point x="573" y="1176"/>
      <point x="596" y="1175"/>
      <point x="623" y="1174" type="curve"/>
      <point x="622" y="633" type="line"/>
    </contour>
    <contour>
      <point x="867" y="-115" type="line"/>
      <point x="867" y="-130"/>
      <point x="842" y="-142"/>
      <point x="826" y="-146" type="curve"/>
      <point x="813" y="-142"/>
      <point x="787" y="-130"/>
      <point x="787" y="-115" type="curve" smooth="yes"/>
      <point x="787" y="1158" type="line"/>
      <point x="814" y="1154"/>
      <point x="841" y="1149"/>
      <point x="867" y="1143" type="curve"/>
    </contour>
  </outline>
</glyph>
<glyph name="Cedilla" format="1">
  <advance width="469"/>
  <unicode hex="00B8"/>
  <outline>
    <contour>
      <point x="454" y="-229" type="curve" smooth="yes"/>
      <point x="454" y="-154"/>
      <point x="394" y="-108"/>
      <point x="291" y="-89" type="curve"/>
      <point x="330" y="12" type="line"/>
      <point x="207" y="14" type="line"/>
      <point x="140" y="-197"/>
      <point x="128" y="-202"/>
      <point x="127" y="-202" type="curve" smooth="yes"/>
      <point x="186" y="-207"/>
      <point x="218" y="-224"/>
      <point x="218" y="-269" type="curve" smooth="yes"/>
      <point x="218" y="-312"/>
      <point x="172" y="-355"/>
      <point x="56" y="-373" type="curve"/>
      <point x="93" y="-444" type="line"/>
      <point x="302" y="-422"/>
      <point x="454" y="-328"/>
    </contour>
    <contour>
      <point x="243" y="-600" type="move" name="L"/>
    </contour>
  </outline>
</glyph>
<glyph name="SupOne" format="1">
  <advance width="711"/>
  <unicode hex="00B9"/>
  <outline>
    <contour>
      <point x="641" y="620" type="line"/>
      <point x="641" y="680" type="line"/>
      <point x="500" y="695"/>
      <point x="476" y="718"/>
      <point x="476" y="734" type="curve" smooth="yes"/>
      <point x="476" y="1342" type="line"/>
      <point x="444" y="1367" type="line"/>
      <point x="377" y="1341"/>
      <point x="167" y="1280"/>
      <point x="87" y="1265" type="curve"/>
      <point x="107" y="1206" type="line"/>
      <point x="230" y="1229"/>
      <point x="264" y="1225"/>
      <point x="275" y="1215" type="curve" smooth="yes"/>
      <point x="287" y="1204"/>
      <point x="288" y="1188"/>
      <point x="288" y="1156" type="curve" smooth="yes"/>
      <point x="288" y="734" type="line" smooth="yes"/>
      <point x="288" y="717"/>
      <point x="255" y="695"/>
      <point x="109" y="680" type="curve"/>
      <point x="109" y="620" type="line"/>
    </contour>
    <contour>
      <point x="383" y="1410" type="move" name="U"/>
    </contour>
    <contour>
      <point x="383" y="550" type="move" name="L"/>
    </contour>
  </outline>
</glyph>
<glyph name="LtnCapAe" format="1">
  <advance width="1655"/>
  <unicode hex="00C6"/>
  <outline>
    <contour>
      <point x="1609" y="304" type="curve"/>
      <point x="1536" y="330" type="line"/>
      <point x="1479" y="174"/>
      <point x="1434" y="120"/>
      <point x="1311" y="120" type="curve" smooth="yes"/>
      <point x="1216" y="120" type="line" smooth="yes"/>
      <point x="1040" y="120"/>
      <point x="1009" y="145"/>
      <point x="1009" y="184" type="curve" smooth="yes"/>
      <point x="1009" y="624" type="line"/>
      <point x="1225" y="624" type="line" smooth="yes"/>
      <point x="1232" y="624"/>
      <point x="1310" y="608"/>
      <point x="1349" y="569" type="curve"/>
      <point x="1375" y="592"/>
      <point x="1418" y="663"/>
      <point x="1441" y="700" type="curve"/>
      <point x="1407" y="735" type="line"/>
      <point x="1009" y="735" type="line"/>
      <point x="1009" y="1140" type="line"/>
      <point x="1345" y="1140" type="line" smooth="yes"/>
      <point x="1397" y="1140"/>
      <point x="1421" y="1073"/>
      <point x="1427" y="950" type="curve"/>
      <point x="1502" y="950" type="line"/>
      <point x="1521" y="1001"/>
      <point x="1539" y="1160"/>
      <point x="1543" y="1228" type="curve"/>
      <point x="1506" y="1260" type="line"/>
      <point x="381" y="1260" type="line"/>
      <point x="381" y="1187" type="line"/>
      <point x="512" y="1162"/>
      <point x="553" y="1148"/>
      <point x="534" y="1103" type="curve"/>
      <point x="145" y="141" type="line"/>
      <point x="128" y="102"/>
      <point x="82" y="85"/>
      <point x="0" y="73" type="curve"/>
      <point x="0" y="0" type="line"/>
      <point x="416" y="0" type="line"/>
      <point x="416" y="73" type="line"/>
      <point x="318" y="85"/>
      <point x="291" y="102"/>
      <point x="308" y="141" type="curve"/>
      <point x="504" y="624" type="line"/>
      <point x="759" y="624" type="line"/>
      <point x="759" y="134" type="line" smooth="yes"/>
      <point x="759" y="116"/>
      <point x="714" y="91"/>
      <point x="624" y="73" type="curve"/>
      <point x="624" y="0" type="line"/>
      <point x="1568" y="0" type="line"/>
      <point x="1578" y="39"/>
      <point x="1597" y="189"/>
    </contour>
    <contour>
      <point x="759" y="735" type="line"/>
      <point x="547" y="735" type="line"/>
      <point x="696" y="1101" type="line" smooth="yes"/>
      <point x="715" y="1147"/>
      <point x="759" y="1147"/>
      <point x="759" y="1118" type="curve" smooth="yes"/>
    </contour>
    <contour>
      <point x="968" y="1370" type="move" name="U"/>
    </contour>
    <contour>
      <point x="894" y="-100" type="move" name="L"/>
    </contour>
  </outline>
</glyph>
<glyph name="LtnCapEth" format="1">
  <advance width="1304"/>
  <unicode hex="00D0"/>
  <outline>
    <contour>
      <point x="696" y="712" type="line"/>
      <point x="671" y="735" type="line"/>
      <point x="61" y="735" type="line"/>
      <point x="53" y="714"/>
      <point x="34" y="659"/>
      <point x="28" y="639" type="curve"/>
      <point x="50" y="615" type="line"/>
      <point x="660" y="615" type="line"/>
    </contour>
    <contour>
      <point x="624" y="1370" type="move" name="U"/>
    </contour>
    <contour>
      <point x="624" y="-100" type="move" name="L"/>
    </contour>
    <component base="LtnCapD"/>
  </outline>
</glyph>
<glyph name="LtnSmSharpS" format="1">
  <advance width="1288"/>
  <unicode hex="00DF"/>
  <outline>
    <contour>
      <point x="1236" y="283" type="curve"/>
      <point x="1236" y="601"/>
      <point x="781" y="585"/>
      <point x="781" y="770" type="curve" smooth="yes"/>
      <point x="781" y="930"/>
      <point x="1125" y="862"/>
      <point x="1125" y="1190" type="curve" smooth="yes"/>
      <point x="1125" y="1360"/>
      <point x="975" y="1550"/>
      <point x="721" y="1550" type="curve" smooth="yes"/>
      <point x="610" y="1550"/>
      <point x="500" y="1510"/>
      <point x="423" y="1458" type="curve" smooth="yes"/>
      <point x="319" y="1387"/>
      <point x="180" y="1267"/>
      <point x="180" y="946" type="curve" smooth="yes"/>
      <point x="180" y="132" type="line" smooth="yes"/>
      <point x="180" y="116"/>
      <point x="138" y="89"/>
      <point x="48" y="73" type="curve"/>
      <point x="48" y="0" type="line"/>
      <point x="420" y="0" type="line"/>
      <point x="420" y="1001" type="line" smooth="yes"/>
      <point x="420" y="1331"/>
      <point x="511" y="1403"/>
      <point x="625" y="1403" type="curve" smooth="yes"/>
      <point x="783" y="1403"/>
      <point x="883" y="1287"/>
      <point x="883" y="1122" type="curve" smooth="yes"/>
      <point x="883" y="930"/>
      <point x="558" y="977"/>
      <point x="558" y="729" type="curve" smooth="yes"/>
      <point x="558" y="432"/>
      <point x="1016" y="463"/>
      <point x="1016" y="210" type="curve" smooth="yes"/>
      <point x="1016" y="132"/>
      <point x="960" y="93"/>
      <point x="873" y="93" type="curve" smooth="yes"/>
      <point x="771" y="93"/>
      <point x="676" y="170"/>
      <point x="646" y="324" type="curve"/>
      <point x="566" y="336" type="line"/>
      <point x="546" y="309"/>
      <point x="538" y="69"/>
      <point x="558" y="44" type="curve" smooth="yes"/>
      <point x="578" y="18"/>
      <point x="732" y="-30"/>
      <point x="842" y="-30" type="curve" smooth="yes"/>
      <point x="1106" y="-30"/>
      <point x="1236" y="113"/>
    </contour>
    <contour>
      <point x="630" y="1690" type="move" name="U"/>
    </contour>
    <contour>
      <point x="630" y="-100" type="move" name="L"/>
    </contour>
  </outline>
</glyph>
<glyph name="LtnSmAe" format="1">
  <advance width="1501"/>
  <unicode hex="00E6"/>
  <outline>
    <contour>
      <point x="1436" y="550" type="curve"/>
      <point x="1436" y="760"/>
      <point x="1315" y="960"/>
      <point x="1079" y="960" type="curve" smooth="yes"/>
      <point x="999" y="960"/>
      <point x="894" y="933"/>
      <point x="807" y="856" type="curve"/>
      <point x="762" y="929"/>
      <point x="687" y="960"/>
      <point x="588" y="960" type="curve" smooth="yes"/>
      <point x="450" y="960"/>
      <point x="166" y="874"/>
      <point x="86" y="663" type="curve"/>
      <point x="107" y="612" type="line"/>
      <point x="140" y="603"/>
      <point x="369" y="665"/>
      <point x="363" y="691" type="curve"/>
      <point x="339" y="776"/>
      <point x="436" y="830"/>
      <point x="505" y="830" type="curve" smooth="yes"/>
      <point x="591" y="830"/>
      <point x="632" y="774"/>
      <point x="632" y="655" type="curve" smooth="yes"/>
      <point x="632" y="576" type="line"/>
      <point x="564" y="573"/>
      <point x="492" y="567"/>
      <point x="456" y="558" type="curve" smooth="yes"/>
      <point x="181" y="492"/>
      <point x="65" y="359"/>
      <point x="65" y="201" type="curve" smooth="yes"/>
      <point x="65" y="31"/>
      <point x="197" y="-30"/>
      <point x="293" y="-30" type="curve" smooth="yes"/>
      <point x="417" y="-30"/>
      <point x="559" y="32"/>
      <point x="680" y="181" type="curve"/>
      <point x="754" y="48"/>
      <point x="891" y="-30"/>
      <point x="1006" y="-30" type="curve" smooth="yes"/>
      <point x="1168" y="-30"/>
      <point x="1268" y="19"/>
      <point x="1428" y="195" type="curve"/>
      <point x="1422" y="205"/>
      <point x="1393" y="250"/>
      <point x="1376" y="259" type="curve"/>
      <point x="1250" y="166"/>
      <point x="1176" y="140"/>
      <point x="1092" y="140" type="curve" smooth="yes"/>
      <point x="937" y="140"/>
      <point x="857" y="317"/>
      <point x="857" y="441" type="curve" smooth="yes"/>
      <point x="857" y="447"/>
      <point x="857" y="462"/>
      <point x="858" y="467" type="curve"/>
      <point x="1302" y="467" type="line"/>
      <point x="1345" y="484"/>
      <point x="1410" y="523"/>
    </contour>
    <contour>
      <point x="645" y="264" type="curve"/>
      <point x="557" y="174"/>
      <point x="474" y="145"/>
      <point x="412" y="145" type="curve" smooth="yes"/>
      <point x="370" y="145"/>
      <point x="312" y="176"/>
      <point x="312" y="259" type="curve" smooth="yes"/>
      <point x="312" y="338"/>
      <point x="358" y="419"/>
      <point x="526" y="456" type="curve"/>
      <point x="539" y="459"/>
      <point x="585" y="461"/>
      <point x="632" y="463" type="curve"/>
      <point x="632" y="365" type="line" smooth="yes"/>
      <point x="632" y="329"/>
      <point x="637" y="295"/>
    </contour>
    <contour>
      <point x="1050" y="845" type="curve" smooth="yes"/>
      <point x="1145" y="845"/>
      <point x="1210" y="758"/>
      <point x="1210" y="616" type="curve" smooth="yes"/>
      <point x="1210" y="588"/>
      <point x="1200" y="580"/>
      <point x="1172" y="580" type="curve" smooth="yes"/>
      <point x="865" y="580" type="line"/>
      <point x="892" y="813"/>
      <point x="988" y="845"/>
    </contour>
    <contour>
      <point x="782" y="0" type="move" name="H"/>
    </contour>
    <contour>
      <point x="1501" y="900" type="move" name="R"/>
    </contour>
    <contour>
      <point x="782" y="1050" type="move" name="U"/>
    </contour>
    <contour>
      <point x="782" y="-100" type="move" name="L"/>
    </contour>
    <contour>
      <point x="1090" y="0" type="move" name="O"/>
    </contour>
  </outline>
</glyph>
<glyph name="LtnSmEth" format="1">
  <advance width="1046"/>
  <unicode hex="00F0"/>
  <outline>
    <contour>
      <point x="980" y="607" type="curve" smooth="yes"/>
      <point x="980" y="824"/>
      <point x="915" y="1032"/>
      <point x="743" y="1224" type="curve"/>
      <point x="982" y="1323" type="line"/>
      <point x="975" y="1365" type="line"/>
      <point x="940" y="1377"/>
      <point x="909" y="1381"/>
      <point x="846" y="1387" type="curve"/>
      <point x="659" y="1310" type="line"/>
      <point x="603" y="1361"/>
      <point x="521" y="1422"/>
      <point x="448" y="1470" type="curve"/>
      <point x="180" y="1376" type="line"/>
      <point x="192" y="1305" type="line"/>
      <point x="307" y="1321"/>
      <point x="406" y="1286"/>
      <point x="480" y="1232" type="curve"/>
      <point x="218" y="1122" type="line"/>
      <point x="229" y="1078" type="line"/>
      <point x="275" y="1064"/>
      <point x="304" y="1062"/>
      <point x="354" y="1060" type="curve"/>
      <point x="565" y="1147" type="line"/>
      <point x="646" y="1056"/>
      <point x="687" y="974"/>
      <point x="714" y="870" type="curve"/>
      <point x="660" y="927"/>
      <point x="587" y="960"/>
      <point x="506" y="960" type="curve" smooth="yes"/>
      <point x="252" y="960"/>
      <point x="65" y="709"/>
      <point x="65" y="444" type="curve" smooth="yes"/>
      <point x="65" y="172"/>
      <point x="236" y="-30"/>
      <point x="519" y="-30" type="curve" smooth="yes"/>
      <point x="692" y="-30"/>
      <point x="980" y="146"/>
    </contour>
    <contour>
      <point x="740" y="612" type="curve"/>
      <point x="740" y="566" type="line" smooth="yes"/>
      <point x="740" y="238"/>
      <point x="676" y="95"/>
      <point x="529" y="95" type="curve" smooth="yes"/>
      <point x="414" y="95"/>
      <point x="310" y="277"/>
      <point x="310" y="488" type="curve" smooth="yes"/>
      <point x="310" y="701"/>
      <point x="370" y="828"/>
      <point x="490" y="828" type="curve" smooth="yes"/>
      <point x="577" y="828"/>
      <point x="698" y="755"/>
    </contour>
    <contour>
      <point x="522" y="1690" type="move" name="U"/>
    </contour>
    <contour>
      <point x="522" y="-100" type="move" name="L"/>
    </contour>
  </outline>
</glyph>
<glyph name="LtnSmDBarredStem" format="1">
  <advance width="1148"/>
  <unicode hex="0111"/>
  <outline>
    <contour>
      <point x="1141" y="114" type="curve"/>
      <point x="1113" y="187" type="line"/>
      <point x="1041" y="156"/>
      <point x="1023" y="157"/>
      <point x="1008" y="166" type="curve" smooth="yes"/>
      <point x="992" y="177"/>
      <point x="985" y="205"/>
      <point x="985" y="299" type="curve" smooth="yes"/>
      <point x="985" y="1114" type="line"/>
      <point x="1116" y="1114" type="line"/>
      <point x="1151" y="1209" type="line"/>
      <point x="1129" y="1234" type="line"/>
      <point x="985" y="1234" type="line"/>
      <point x="985" y="1513" type="line"/>
      <point x="947" y="1550" type="line"/>
      <point x="878" y="1528"/>
      <point x="754" y="1499"/>
      <point x="608" y="1485" type="curve"/>
      <point x="608" y="1416" type="line"/>
      <point x="741" y="1406"/>
      <point x="745" y="1391"/>
      <point x="745" y="1259" type="curve" smooth="yes"/>
      <point x="745" y="1234" type="line"/>
      <point x="469" y="1234" type="line"/>
      <point x="458" y="1213"/>
      <point x="439" y="1157"/>
      <point x="433" y="1136" type="curve"/>
      <point x="456" y="1114" type="line"/>
      <point x="745" y="1114" type="line"/>
      <point x="745" y="901" type="line"/>
      <point x="673" y="950"/>
      <point x="613" y="960"/>
      <point x="551" y="960" type="curve" smooth="yes"/>
      <point x="265" y="960"/>
      <point x="65" y="712"/>
      <point x="65" y="444" type="curve" smooth="yes"/>
      <point x="65" y="147"/>
      <point x="253" y="-30"/>
      <point x="431" y="-30" type="curve" smooth="yes"/>
      <point x="555" y="-30"/>
      <point x="630" y="20"/>
      <point x="752" y="145" type="curve"/>
      <point x="765" y="30"/>
      <point x="795" y="-30"/>
      <point x="844" y="-30" type="curve" smooth="yes"/>
      <point x="881" y="-30"/>
      <point x="1018" y="32"/>
    </contour>
    <contour>
      <point x="745" y="269" type="line"/>
      <point x="666" y="197"/>
      <point x="606" y="160"/>
      <point x="532" y="160" type="curve" smooth="yes"/>
      <point x="422" y="160"/>
      <point x="305" y="286"/>
      <point x="305" y="498" type="curve" smooth="yes"/>
      <point x="305" y="729"/>
      <point x="403" y="828"/>
      <point x="535" y="828" type="curve" smooth="yes"/>
      <point x="624" y="828"/>
      <point x="697" y="783"/>
      <point x="745" y="706" type="curve"/>
      <point x="745" y="302" type="line"/>
    </contour>
    <contour>
      <point x="608" y="1690" type="move" name="U"/>
    </contour>
    <contour>
      <point x="608" y="-100" type="move" name="L"/>
    </contour>
  </outline>
</glyph>
<glyph name="LtnSmLStrk" format="1">
  <advance width="650"/>
  <unicode hex="0142"/>
  <outline>
    <contour>
      <point x="595" y="0" type="line"/>
      <point x="595" y="73" type="line"/>
      <point x="486" y="91"/>
      <point x="453" y="114"/>
      <point x="453" y="134" type="curve" smooth="yes"/>
      <point x="453" y="785" type="line"/>
      <point x="583" y="877" type="line"/>
      <point x="600" y="912"/>
      <point x="624" y="983"/>
      <point x="630" y="1027" type="curve"/>
      <point x="605" y="1050" type="line"/>
      <point x="453" y="943" type="line"/>
      <point x="453" y="1516" type="line"/>
      <point x="409" y="1558" type="line"/>
      <point x="305" y="1515"/>
      <point x="214" y="1497"/>
      <point x="80" y="1478" type="curve"/>
      <point x="80" y="1408" type="line"/>
      <point x="192" y="1395"/>
      <point x="213" y="1395"/>
      <point x="213" y="1274" type="curve" smooth="yes"/>
      <point x="213" y="776" type="line"/>
      <point x="81" y="685" type="line"/>
      <point x="66" y="651"/>
      <point x="41" y="575"/>
      <point x="36" y="533" type="curve"/>
      <point x="62" y="512" type="line"/>
      <point x="213" y="617" type="line"/>
      <point x="213" y="134" type="line" smooth="yes"/>
      <point x="213" y="112"/>
      <point x="185" y="93"/>
      <point x="70" y="73" type="curve"/>
      <point x="70" y="0" type="line"/>
    </contour>
    <contour>
      <point x="332" y="1690" type="move" name="U"/>
    </contour>
    <contour>
      <point x="332" y="-100" type="move" name="L"/>
    </contour>
  </outline>
</glyph>
<glyph name="LtnCapEng" format="1">
  <advance width="1332"/>
  <unicode hex="014A"/>
  <outline>
    <contour>
      <point x="1200" y="277" type="curve"/>
      <point x="1200" y="981" type="line" smooth="yes"/>
      <point x="1200" y="1231"/>
      <point x="1054" y="1290"/>
      <point x="939" y="1290" type="curve" smooth="yes"/>
      <point x="796" y="1290"/>
      <point x="649" y="1234"/>
      <point x="430" y="1026" type="curve"/>
      <point x="430" y="1248" type="line"/>
      <point x="388" y="1290" type="line"/>
      <point x="296" y="1253"/>
      <point x="142" y="1221"/>
      <point x="48" y="1210" type="curve"/>
      <point x="48" y="1137" type="line"/>
      <point x="183" y="1123"/>
      <point x="180" y="1105"/>
      <point x="180" y="1000" type="curve" smooth="yes"/>
      <point x="180" y="134" type="line" smooth="yes"/>
      <point x="180" y="116"/>
      <point x="132" y="91"/>
      <point x="42" y="73" type="curve"/>
      <point x="42" y="0" type="line"/>
      <point x="575" y="0" type="line"/>
      <point x="575" y="73" type="line"/>
      <point x="478" y="91"/>
      <point x="430" y="118"/>
      <point x="430" y="134" type="curve" smooth="yes"/>
      <point x="430" y="838" type="line"/>
      <point x="614" y="1048"/>
      <point x="734" y="1098"/>
      <point x="812" y="1098" type="curve" smooth="yes"/>
      <point x="912" y="1098"/>
      <point x="950" y="1060"/>
      <point x="950" y="872" type="curve" smooth="yes"/>
      <point x="950" y="224" type="line" smooth="yes"/>
      <point x="950" y="-106"/>
      <point x="865" y="-257"/>
      <point x="749" y="-257" type="curve" smooth="yes"/>
      <point x="657" y="-257"/>
      <point x="579" y="-195"/>
      <point x="505" y="-124" type="curve"/>
      <point x="466" y="-140"/>
      <point x="308" y="-279"/>
      <point x="308" y="-302" type="curve" smooth="yes"/>
      <point x="308" y="-344"/>
      <point x="485" y="-418"/>
      <point x="601" y="-418" type="curve" smooth="yes"/>
      <point x="739" y="-418"/>
      <point x="863" y="-355"/>
      <point x="934" y="-296" type="curve" smooth="yes"/>
      <point x="1100" y="-155"/>
      <point x="1200" y="1"/>
    </contour>
    <contour>
      <point x="696" y="1370" type="move" name="U"/>
    </contour>
    <contour>
      <point x="696" y="-600" type="move" name="L"/>
    </contour>
  </outline>
</glyph>
<glyph name="LtnCapLigOe" format="1">
  <advance width="1726"/>
  <unicode hex="0152"/>
  <outline>
    <contour>
      <point x="1679" y="304" type="curve"/>
      <point x="1606" y="330" type="line"/>
      <point x="1549" y="174"/>
      <point x="1506" y="120"/>
      <point x="1383" y="120" type="curve" smooth="yes"/>
      <point x="1284" y="120" type="line" smooth="yes"/>
      <point x="1108" y="120"/>
      <point x="1090" y="145"/>
      <point x="1090" y="184" type="curve" smooth="yes"/>
      <point x="1090" y="625" type="line"/>
      <point x="1221" y="625" type="line" smooth="yes"/>
      <point x="1333" y="625"/>
      <point x="1378" y="609"/>
      <point x="1419" y="570" type="curve"/>
      <point x="1448" y="591"/>
      <point x="1489" y="663"/>
      <point x="1511" y="700" type="curve"/>
      <point x="1477" y="735" type="line"/>
      <point x="1090" y="735" type="line"/>
      <point x="1090" y="1140" type="line"/>
      <point x="1416" y="1140" type="line" smooth="yes"/>
      <point x="1465" y="1140"/>
      <point x="1492" y="1073"/>
      <point x="1498" y="950" type="curve"/>
      <point x="1573" y="950" type="line"/>
      <point x="1589" y="1001"/>
      <point x="1610" y="1160"/>
      <point x="1614" y="1228" type="curve"/>
      <point x="1574" y="1260" type="line"/>
      <point x="889" y="1260" type="line"/>
      <point x="802" y="1262"/>
      <point x="762" y="1290"/>
      <point x="656" y="1290" type="curve" smooth="yes"/>
      <point x="310" y="1290"/>
      <point x="55" y="975"/>
      <point x="55" y="612" type="curve" smooth="yes"/>
      <point x="55" y="276"/>
      <point x="265" y="-30"/>
      <point x="598" y="-30" type="curve" smooth="yes"/>
      <point x="715" y="-30"/>
      <point x="740" y="-2"/>
      <point x="880" y="0" type="curve"/>
      <point x="1638" y="0" type="line"/>
      <point x="1649" y="39"/>
      <point x="1669" y="189"/>
    </contour>
    <contour>
      <point x="642" y="105" type="curve" smooth="yes"/>
      <point x="455" y="105"/>
      <point x="308" y="342"/>
      <point x="308" y="641" type="curve" smooth="yes"/>
      <point x="308" y="967"/>
      <point x="414" y="1161"/>
      <point x="604" y="1161" type="curve" smooth="yes"/>
      <point x="690" y="1161"/>
      <point x="778" y="1130"/>
      <point x="840" y="1067" type="curve"/>
      <point x="840" y="159" type="line"/>
      <point x="785" y="120"/>
      <point x="740" y="105"/>
    </contour>
    <contour>
      <point x="867" y="1370" type="move" name="U"/>
    </contour>
    <contour>
      <point x="867" y="-100" type="move" name="L"/>
    </contour>
  </outline>
</glyph>
<glyph name="LtnCapBHook" format="1">
  <advance width="1514"/>
  <unicode hex="0181"/>
  <outline>
    <contour>
      <point x="23" y="973" type="curve" smooth="yes"/>
      <point x="23" y="886"/>
      <point x="66" y="802"/>
      <point x="115" y="781" type="curve"/>
      <point x="170" y="792"/>
      <point x="346" y="869"/>
      <point x="353" y="885" type="curve"/>
      <point x="312" y="904"/>
      <point x="277" y="957"/>
      <point x="277" y="1014" type="curve" smooth="yes"/>
      <point x="277" y="1093"/>
      <point x="348" y="1141"/>
      <point x="463" y="1165" type="curve"/>
      <point x="463" y="134" type="line" smooth="yes"/>
      <point x="463" y="116"/>
      <point x="415" y="91"/>
      <point x="325" y="73" type="curve"/>
      <point x="325" y="0" type="line"/>
      <point x="391" y="0" type="line"/>
      <point x="391" y="0"/>
      <point x="777" y="-14"/>
      <point x="894" y="-14" type="curve" smooth="yes"/>
      <point x="1218" y="-14"/>
      <point x="1411" y="129"/>
      <point x="1411" y="356" type="curve" smooth="yes"/>
      <point x="1411" y="541"/>
      <point x="1276" y="683"/>
      <point x="1073" y="723" type="curve"/>
      <point x="1226" y="776"/>
      <point x="1300" y="877"/>
      <point x="1300" y="1020" type="curve" smooth="yes"/>
      <point x="1300" y="1096"/>
      <point x="1255" y="1163"/>
      <point x="1195" y="1203" type="curve" smooth="yes"/>
      <point x="1100" y="1266"/>
      <point x="960" y="1290"/>
      <point x="732" y="1290" type="curve" smooth="yes"/>
      <point x="240" y="1290"/>
      <point x="23" y="1169"/>
    </contour>
    <contour>
      <point x="848" y="634" type="curve" smooth="yes"/>
      <point x="1080" y="634"/>
      <point x="1150" y="484"/>
      <point x="1150" y="337" type="curve" smooth="yes"/>
      <point x="1150" y="187"/>
      <point x="1049" y="93"/>
      <point x="857" y="93" type="curve" smooth="yes"/>
      <point x="805" y="93"/>
      <point x="759" y="102"/>
      <point x="721" y="119" type="curve"/>
      <point x="716" y="125"/>
      <point x="713" y="130"/>
      <point x="713" y="134" type="curve" smooth="yes"/>
      <point x="713" y="620" type="line"/>
      <point x="753" y="628"/>
      <point x="797" y="634"/>
    </contour>
    <contour>
      <point x="979" y="1129" type="curve" smooth="yes"/>
      <point x="1026" y="1088"/>
      <point x="1047" y="1036"/>
      <point x="1047" y="971" type="curve" smooth="yes"/>
      <point x="1047" y="856"/>
      <point x="1005" y="740"/>
      <point x="732" y="740" type="curve" smooth="yes"/>
      <point x="713" y="740" type="line"/>
      <point x="713" y="1184" type="line"/>
      <point x="882" y="1182"/>
      <point x="937" y="1164"/>
    </contour>
    <contour>
      <point x="717" y="1370" type="move" name="U"/>
    </contour>
    <contour>
      <point x="717" y="-100" type="move" name="L"/>
    </contour>
  </outline>
</glyph>
<glyph name="LtnCapOpnO" format="1">
  <advance width="1136"/>
  <unicode hex="0186"/>
  <outline>
    <contour>
      <point x="1071" y="678" type="curve"/>
      <point x="1071" y="1065"/>
      <point x="814" y="1290"/>
      <point x="537" y="1290" type="curve" smooth="yes"/>
      <point x="402" y="1290"/>
      <point x="220" y="1245"/>
      <point x="40" y="1074" type="curve"/>
      <point x="46" y="1066"/>
      <point x="77" y="1012"/>
      <point x="91" y="1006" type="curve"/>
      <point x="251" y="1112"/>
      <point x="358" y="1134"/>
      <point x="429" y="1134" type="curve" smooth="yes"/>
      <point x="620" y="1134"/>
      <point x="818" y="995"/>
      <point x="818" y="641" type="curve" smooth="yes"/>
      <point x="818" y="230"/>
      <point x="675" y="115"/>
      <point x="519" y="115" type="curve" smooth="yes"/>
      <point x="383" y="115"/>
      <point x="288" y="214"/>
      <point x="288" y="314" type="curve" smooth="yes"/>
      <point x="288" y="388"/>
      <point x="303" y="442"/>
      <point x="379" y="487" type="curve"/>
      <point x="344" y="566" type="line"/>
      <point x="297" y="549"/>
      <point x="165" y="501"/>
      <point x="106" y="470" type="curve"/>
      <point x="61" y="419"/>
      <point x="46" y="345"/>
      <point x="46" y="289" type="curve" smooth="yes"/>
      <point x="46" y="141"/>
      <point x="169" y="-30"/>
      <point x="466" y="-30" type="curve" smooth="yes"/>
      <point x="818" y="-30"/>
      <point x="1071" y="258"/>
    </contour>
    <contour>
      <point x="554" y="1370" type="move" name="U"/>
    </contour>
    <contour>
      <point x="554" y="-100" type="move" name="L"/>
    </contour>
  </outline>
</glyph>
<glyph name="LtnCapDHook" format="1">
  <advance width="1587"/>
  <unicode hex="018A"/>
  <outline>
    <contour>
      <point x="23" y="973" type="curve" smooth="yes"/>
      <point x="23" y="900"/>
      <point x="50" y="817"/>
      <point x="115" y="781" type="curve"/>
      <point x="170" y="792"/>
      <point x="322" y="867"/>
      <point x="338" y="885" type="curve"/>
      <point x="280" y="917"/>
      <point x="262" y="966"/>
      <point x="262" y="1014" type="curve" smooth="yes"/>
      <point x="262" y="1088"/>
      <point x="331" y="1140"/>
      <point x="463" y="1166" type="curve"/>
      <point x="463" y="134" type="line" smooth="yes"/>
      <point x="463" y="116"/>
      <point x="415" y="91"/>
      <point x="325" y="73" type="curve"/>
      <point x="325" y="0" type="line"/>
      <point x="917" y="0" type="line" smooth="yes"/>
      <point x="1169" y="0"/>
      <point x="1503" y="176"/>
      <point x="1503" y="676" type="curve" smooth="yes"/>
      <point x="1503" y="890"/>
      <point x="1434" y="1080"/>
      <point x="1239" y="1202" type="curve" smooth="yes"/>
      <point x="1138" y="1265"/>
      <point x="999" y="1290"/>
      <point x="771" y="1290" type="curve" smooth="yes"/>
      <point x="242" y="1290"/>
      <point x="23" y="1176"/>
    </contour>
    <contour>
      <point x="1101" y="1064" type="curve"/>
      <point x="1202" y="946"/>
      <point x="1236" y="818"/>
      <point x="1236" y="637" type="curve" smooth="yes"/>
      <point x="1236" y="262"/>
      <point x="1011" y="107"/>
      <point x="865" y="107" type="curve" smooth="yes"/>
      <point x="800" y="107"/>
      <point x="756" y="117"/>
      <point x="733" y="136" type="curve"/>
      <point x="720" y="149"/>
      <point x="713" y="164"/>
      <point x="713" y="184" type="curve" smooth="yes"/>
      <point x="713" y="1184" type="line"/>
      <point x="920" y="1181"/>
      <point x="1030" y="1145"/>
    </contour>
    <contour>
      <point x="763" y="1370" type="move" name="U"/>
    </contour>
    <contour>
      <point x="763" y="-100" type="move" name="L"/>
    </contour>
  </outline>
</glyph>
<glyph name="LtnCapRevE" format="1">
  <advance width="1089"/>
  <unicode hex="018E"/>
  <outline>
    <contour>
      <point x="1029" y="0" type="line"/>
      <point x="1029" y="73" type="line"/>
      <point x="933" y="92"/>
      <point x="892" y="119"/>
      <point x="892" y="135" type="curve" smooth="yes"/>
      <point x="892" y="1126" type="line" smooth="yes"/>
      <point x="892" y="1144"/>
      <point x="939" y="1169"/>
      <point x="1029" y="1187" type="curve"/>
      <point x="1029" y="1260" type="line"/>
      <point x="174" y="1260" type="line"/>
      <point x="163" y="1221"/>
      <point x="146" y="1101"/>
      <point x="136" y="986" type="curve"/>
      <point x="209" y="961" type="line"/>
      <point x="266" y="1117"/>
      <point x="298" y="1140"/>
      <point x="421" y="1140" type="curve" smooth="yes"/>
      <point x="642" y="1140" type="line"/>
      <point x="642" y="739" type="line"/>
      <point x="508" y="739" type="line" smooth="yes"/>
      <point x="396" y="739"/>
      <point x="351" y="743"/>
      <point x="310" y="782" type="curve"/>
      <point x="281" y="761"/>
      <point x="218" y="670"/>
      <point x="196" y="633" type="curve"/>
      <point x="222" y="605" type="line"/>
      <point x="265" y="616"/>
      <point x="377" y="625"/>
      <point x="439" y="625" type="curve" smooth="yes"/>
      <point x="642" y="625" type="line"/>
      <point x="642" y="193" type="line" smooth="yes"/>
      <point x="642" y="140"/>
      <point x="613" y="120"/>
      <point x="441" y="120" type="curve" smooth="yes"/>
      <point x="256" y="120" type="line" smooth="yes"/>
      <point x="207" y="120"/>
      <point x="197" y="234"/>
      <point x="191" y="357" type="curve"/>
      <point x="116" y="357" type="line"/>
      <point x="100" y="306"/>
      <point x="62" y="101"/>
      <point x="58" y="33" type="curve"/>
      <point x="98" y="0" type="line"/>
    </contour>
    <contour>
      <point x="543" y="1370" type="move" name="U"/>
    </contour>
    <contour>
      <point x="543" y="-100" type="move" name="L"/>
    </contour>
  </outline>
</glyph>
<glyph name="LtnSmFHook" format="1">
  <advance width="659"/>
  <unicode hex="0192"/>
  <outline>
    <contour>
      <point x="867" y="1454" type="curve"/>
      <point x="867" y="1477"/>
      <point x="744" y="1550"/>
      <point x="625" y="1550" type="curve" smooth="yes"/>
      <point x="544" y="1550"/>
      <point x="422" y="1501"/>
      <point x="330" y="1413" type="curve" smooth="yes"/>
      <point x="231" y="1320"/>
      <point x="159" y="1201"/>
      <point x="159" y="961" type="curve" smooth="yes"/>
      <point x="159" y="930" type="line"/>
      <point x="91" y="930" type="line"/>
      <point x="13" y="842" type="line"/>
      <point x="41" y="806" type="line"/>
      <point x="159" y="806" type="line"/>
      <point x="159" y="45" type="line" smooth="yes"/>
      <point x="159" y="-263"/>
      <point x="107" y="-320"/>
      <point x="33" y="-320" type="curve" smooth="yes"/>
      <point x="-18" y="-320"/>
      <point x="-87" y="-297"/>
      <point x="-143" y="-238" type="curve"/>
      <point x="-197" y="-263"/>
      <point x="-315" y="-372"/>
      <point x="-315" y="-401" type="curve" smooth="yes"/>
      <point x="-315" y="-428"/>
      <point x="-193" y="-493"/>
      <point x="-83" y="-493" type="curve" smooth="yes"/>
      <point x="-2" y="-493"/>
      <point x="100" y="-444"/>
      <point x="174" y="-387" type="curve" smooth="yes"/>
      <point x="282" y="-304"/>
      <point x="400" y="-193"/>
      <point x="400" y="98" type="curve" smooth="yes"/>
      <point x="400" y="806" type="line"/>
      <point x="504" y="806"/>
      <point x="556" y="787"/>
      <point x="587" y="771" type="curve"/>
      <point x="614" y="783"/>
      <point x="663" y="857"/>
      <point x="687" y="894" type="curve"/>
      <point x="652" y="930" type="line"/>
      <point x="400" y="930" type="line"/>
      <point x="400" y="994" type="line" smooth="yes"/>
      <point x="400" y="1301"/>
      <point x="449" y="1397"/>
      <point x="534" y="1397" type="curve" smooth="yes"/>
      <point x="573" y="1397"/>
      <point x="638" y="1362"/>
      <point x="704" y="1283" type="curve"/>
      <point x="743" y="1302"/>
      <point x="867" y="1410"/>
    </contour>
    <contour>
      <point x="276" y="1690" type="move" name="U"/>
    </contour>
    <contour>
      <point x="276" y="-600" type="move" name="L"/>
    </contour>
  </outline>
</glyph>
<glyph name="LtnCapKHook" format="1">
  <advance width="1316"/>
  <unicode hex="0198"/>
  <outline>
    <contour>
      <point x="568" y="0" type="line"/>
      <point x="568" y="73" type="line"/>
      <point x="471" y="91"/>
      <point x="430" y="118"/>
      <point x="430" y="134" type="curve" smooth="yes"/>
      <point x="430" y="625" type="line"/>
      <point x="907" y="29" type="line" smooth="yes"/>
      <point x="934" y="-4"/>
      <point x="962" y="-14"/>
      <point x="1001" y="-14" type="curve" smooth="yes"/>
      <point x="1065" y="-14"/>
      <point x="1186" y="27"/>
      <point x="1264" y="52" type="curve"/>
      <point x="1257" y="125" type="line"/>
      <point x="1188" y="117"/>
      <point x="1142" y="115"/>
      <point x="1098" y="165" type="curve"/>
      <point x="616" y="675" type="line"/>
      <point x="921" y="1036" type="line"/>
      <point x="947" y="1068"/>
      <point x="978" y="1097"/>
      <point x="1016" y="1097" type="curve" smooth="yes"/>
      <point x="1053" y="1097"/>
      <point x="1080" y="1076"/>
      <point x="1081" y="1005" type="curve" smooth="yes"/>
      <point x="1081" y="965"/>
      <point x="1056" y="898"/>
      <point x="1032" y="855" type="curve"/>
      <point x="1065" y="804" type="line"/>
      <point x="1128" y="821"/>
      <point x="1274" y="884"/>
      <point x="1281" y="906" type="curve"/>
      <point x="1289" y="938"/>
      <point x="1301" y="997"/>
      <point x="1301" y="1031" type="curve" smooth="yes"/>
      <point x="1300" y="1190"/>
      <point x="1202" y="1270"/>
      <point x="1075" y="1270" type="curve" smooth="yes"/>
      <point x="953" y="1270"/>
      <point x="855" y="1214"/>
      <point x="770" y="1103" type="curve" smooth="yes"/>
      <point x="430" y="661" type="line"/>
      <point x="430" y="1125" type="line" smooth="yes"/>
      <point x="430" y="1144"/>
      <point x="478" y="1168"/>
      <point x="568" y="1187" type="curve"/>
      <point x="568" y="1260" type="line"/>
      <point x="43" y="1260" type="line"/>
      <point x="43" y="1187" type="line"/>
      <point x="139" y="1168"/>
      <point x="180" y="1141"/>
      <point x="180" y="1125" type="curve" smooth="yes"/>
      <point x="180" y="134" type="line" smooth="yes"/>
      <point x="180" y="116"/>
      <point x="133" y="91"/>
      <point x="43" y="73" type="curve"/>
      <point x="43" y="0" type="line"/>
    </contour>
    <contour>
      <point x="671" y="1370" type="move" name="U"/>
    </contour>
    <contour>
      <point x="671" y="-100" type="move" name="L"/>
    </contour>
  </outline>
</glyph>
<glyph name="LtnCapNLftHook" format="1">
  <advance width="1359"/>
  <unicode hex="019D"/>
  <outline>
    <contour>
      <point x="1180" y="-30" type="curve"/>
      <point x="1180" y="1125" type="line" smooth="yes"/>
      <point x="1180" y="1144"/>
      <point x="1222" y="1174"/>
      <point x="1318" y="1187" type="curve"/>
      <point x="1318" y="1260" type="line"/>
      <point x="893" y="1260" type="line"/>
      <point x="893" y="1187" type="line"/>
      <point x="1000" y="1172"/>
      <point x="1030" y="1141"/>
      <point x="1030" y="1125" type="curve" smooth="yes"/>
      <point x="1030" y="334" type="line"/>
      <point x="418" y="1182" type="line" smooth="yes"/>
      <point x="368" y="1251"/>
      <point x="361" y="1260"/>
      <point x="322" y="1260" type="curve" smooth="yes"/>
      <point x="43" y="1260" type="line"/>
      <point x="43" y="1187" type="line"/>
      <point x="90" y="1179"/>
      <point x="137" y="1153"/>
      <point x="180" y="1114" type="curve"/>
      <point x="180" y="74" type="line" smooth="yes"/>
      <point x="180" y="-141"/>
      <point x="128" y="-250"/>
      <point x="34" y="-250" type="curve" smooth="yes"/>
      <point x="-27" y="-250"/>
      <point x="-96" y="-227"/>
      <point x="-155" y="-159" type="curve"/>
      <point x="-193" y="-174"/>
      <point x="-324" y="-301"/>
      <point x="-324" y="-323" type="curve" smooth="yes"/>
      <point x="-324" y="-361"/>
      <point x="-194" y="-418"/>
      <point x="-74" y="-418" type="curve" smooth="yes"/>
      <point x="39" y="-418"/>
      <point x="153" y="-340"/>
      <point x="216" y="-273" type="curve" smooth="yes"/>
      <point x="311" y="-171"/>
      <point x="330" y="-47"/>
      <point x="330" y="132" type="curve" smooth="yes"/>
      <point x="330" y="920" type="line"/>
      <point x="941" y="74" type="line" smooth="yes"/>
      <point x="977" y="25"/>
      <point x="1053" y="-20"/>
    </contour>
    <contour>
      <point x="655" y="1370" type="move" name="U"/>
    </contour>
    <contour>
      <point x="655" y="-600" type="move" name="L"/>
    </contour>
  </outline>
</glyph>
<glyph name="LtnCapOMiddleTilde" format="1">
  <advance width="1274"/>
  <unicode hex="019F"/>
  <outline>
    <contour>
      <point x="1198" y="647" type="curve" smooth="yes"/>
      <point x="1198" y="973"/>
      <point x="1008" y="1290"/>
      <point x="656" y="1290" type="curve" smooth="yes"/>
      <point x="304" y="1290"/>
      <point x="55" y="975"/>
      <point x="55" y="612" type="curve" smooth="yes"/>
      <point x="55" y="276"/>
      <point x="261" y="-30"/>
      <point x="598" y="-30" type="curve" smooth="yes"/>
      <point x="923" y="-30"/>
      <point x="1198" y="285"/>
    </contour>
    <contour>
      <point x="945" y="600" type="line"/>
      <point x="938" y="267"/>
      <point x="812" y="105"/>
      <point x="642" y="105" type="curve" smooth="yes"/>
      <point x="467" y="105"/>
      <point x="321" y="320"/>
      <point x="308" y="600" type="curve"/>
    </contour>
    <contour>
      <point x="940" y="720" type="curve"/>
      <point x="310" y="720" type="line"/>
      <point x="325" y="998"/>
      <point x="428" y="1160"/>
      <point x="604" y="1160" type="curve" smooth="yes"/>
      <point x="786" y="1160"/>
      <point x="914" y="958"/>
    </contour>
    <contour>
      <point x="627" y="1370" type="move" name="U"/>
    </contour>
    <contour>
      <point x="627" y="-100" type="move" name="L"/>
    </contour>
  </outline>
</glyph>
<glyph name="LtnCapOHorn" format="1">
  <advance width="1274"/>
  <unicode hex="01A0"/>
  <outline>
    <contour>
      <point x="1265" y="1392" type="curve" smooth="yes"/>
      <point x="1265" y="1447"/>
      <point x="1235" y="1504"/>
      <point x="1198" y="1533" type="curve"/>
      <point x="938" y="1415" type="line"/>
      <point x="975" y="1384"/>
      <point x="1003" y="1349"/>
      <point x="1003" y="1311" type="curve" smooth="yes"/>
      <point x="1003" y="1282"/>
      <point x="991" y="1241"/>
      <point x="947" y="1200" type="curve"/>
      <point x="868" y="1256"/>
      <point x="770" y="1290"/>
      <point x="656" y="1290" type="curve" smooth="yes"/>
      <point x="304" y="1290"/>
      <point x="55" y="975"/>
      <point x="55" y="612" type="curve" smooth="yes"/>
      <point x="55" y="276"/>
      <point x="261" y="-30"/>
      <point x="598" y="-30" type="curve" smooth="yes"/>
      <point x="923" y="-30"/>
      <point x="1198" y="285"/>
      <point x="1198" y="647" type="curve" smooth="yes"/>
      <point x="1198" y="824"/>
      <point x="1141" y="998"/>
      <point x="1034" y="1121" type="curve"/>
      <point x="1193" y="1213"/>
      <point x="1265" y="1314"/>
    </contour>
    <contour>
      <point x="946" y="629" type="curve" smooth="yes"/>
      <point x="946" y="276"/>
      <point x="818" y="105"/>
      <point x="642" y="105" type="curve" smooth="yes"/>
      <point x="459" y="105"/>
      <point x="308" y="342"/>
      <point x="308" y="641" type="curve" smooth="yes"/>
      <point x="308" y="967"/>
      <point x="412" y="1160"/>
      <point x="604" y="1160" type="curve" smooth="yes"/>
      <point x="809" y="1160"/>
      <point x="946" y="905"/>
    </contour>
    <contour>
      <point x="628" y="1370" type="move" name="U"/>
    </contour>
    <contour>
      <point x="628" y="-100" type="move" name="L"/>
    </contour>
  </outline>
</glyph>
<glyph name="LtnSmOHorn" format="1">
  <advance width="1205"/>
  <unicode hex="01A1"/>
  <outline>
    <contour>
      <point x="1205" y="1042" type="curve" smooth="yes"/>
      <point x="1205" y="1097"/>
      <point x="1175" y="1154"/>
      <point x="1138" y="1183" type="curve"/>
      <point x="878" y="1065" type="line"/>
      <point x="915" y="1034"/>
      <point x="943" y="999"/>
      <point x="943" y="961" type="curve" smooth="yes"/>
      <point x="943" y="929"/>
      <point x="928" y="883"/>
      <point x="873" y="838" type="curve"/>
      <point x="795" y="915"/>
      <point x="687" y="960"/>
      <point x="558" y="960" type="curve" smooth="yes"/>
      <point x="270" y="960"/>
      <point x="65" y="709"/>
      <point x="65" y="444" type="curve" smooth="yes"/>
      <point x="65" y="172"/>
      <point x="244" y="-30"/>
      <point x="519" y="-30" type="curve" smooth="yes"/>
      <point x="784" y="-30"/>
      <point x="1010" y="219"/>
      <point x="1010" y="485" type="curve" smooth="yes"/>
      <point x="1010" y="586"/>
      <point x="985" y="677"/>
      <point x="940" y="752" type="curve"/>
      <point x="1123" y="849"/>
      <point x="1205" y="958"/>
    </contour>
    <contour>
      <point x="758" y="440" type="curve" smooth="yes"/>
      <point x="758" y="220"/>
      <point x="706" y="95"/>
      <point x="547" y="95" type="curve" smooth="yes"/>
      <point x="424" y="95"/>
      <point x="318" y="262"/>
      <point x="318" y="473" type="curve" smooth="yes"/>
      <point x="318" y="679"/>
      <point x="363" y="835"/>
      <point x="529" y="835" type="curve" smooth="yes"/>
      <point x="666" y="835"/>
      <point x="758" y="651"/>
    </contour>
    <contour>
      <point x="573" y="1050" type="move" name="U"/>
    </contour>
    <contour>
      <point x="573" y="-100" type="move" name="L"/>
    </contour>
  </outline>
</glyph>
<glyph name="LtnCapEzh" format="1">
  <advance width="1107"/>
  <unicode hex="01B7"/>
  <outline>
    <contour>
      <point x="1024" y="436" type="curve" smooth="yes"/>
      <point x="1024" y="670"/>
      <point x="882" y="803"/>
      <point x="694" y="803" type="curve" smooth="yes"/>
      <point x="678" y="803"/>
      <point x="660" y="801"/>
      <point x="641" y="798" type="curve"/>
      <point x="969" y="1210" type="line"/>
      <point x="937" y="1260" type="line"/>
      <point x="345" y="1260" type="line" smooth="yes"/>
      <point x="259" y="1260"/>
      <point x="204" y="1260"/>
      <point x="147" y="1276" type="curve"/>
      <point x="109" y="915" type="line"/>
      <point x="196" y="896" type="line"/>
      <point x="223" y="1019"/>
      <point x="287" y="1130"/>
      <point x="334" y="1130" type="curve" smooth="yes"/>
      <point x="661" y="1130" type="line"/>
      <point x="281" y="658" type="line"/>
      <point x="281" y="657"/>
      <point x="280" y="657"/>
      <point x="280" y="657" type="curve"/>
      <point x="280" y="656" type="line"/>
      <point x="282" y="653" type="line" smooth="yes"/>
      <point x="291" y="640"/>
      <point x="318" y="606"/>
      <point x="329" y="596" type="curve" smooth="yes"/>
      <point x="332" y="593" type="line"/>
      <point x="368" y="615" type="line"/>
      <point x="440" y="655"/>
      <point x="481" y="664"/>
      <point x="545" y="664" type="curve" smooth="yes"/>
      <point x="690" y="664"/>
      <point x="799" y="545"/>
      <point x="799" y="385" type="curve" smooth="yes"/>
      <point x="799" y="215"/>
      <point x="699" y="115"/>
      <point x="530" y="115" type="curve" smooth="yes"/>
      <point x="419" y="115"/>
      <point x="309" y="194"/>
      <point x="244" y="320" type="curve"/>
      <point x="175" y="292"/>
      <point x="90" y="163"/>
      <point x="90" y="140" type="curve" smooth="yes"/>
      <point x="90" y="87"/>
      <point x="261" y="-28"/>
      <point x="491" y="-28" type="curve" smooth="yes"/>
      <point x="745" y="-28"/>
      <point x="1024" y="154"/>
    </contour>
    <contour>
      <point x="557" y="1370" type="move" name="U"/>
    </contour>
    <contour>
      <point x="557" y="-100" type="move" name="L"/>
    </contour>
  </outline>
</glyph>
<glyph name="LtnCapGlottalStop" format="1">
  <advance width="995"/>
  <unicode hex="0241"/>
  <outline>
    <contour>
      <point x="780" y="0" type="line"/>
      <point x="780" y="73" type="line"/>
      <point x="671" y="91"/>
      <point x="623" y="114"/>
      <point x="623" y="134" type="curve" smooth="yes"/>
      <point x="623" y="470" type="line" smooth="yes"/>
      <point x="623" y="705"/>
      <point x="950" y="673"/>
      <point x="950" y="970" type="curve" smooth="yes"/>
      <point x="950" y="1157"/>
      <point x="826" y="1290"/>
      <point x="545" y="1290" type="curve" smooth="yes"/>
      <point x="222" y="1290"/>
      <point x="25" y="1109"/>
      <point x="25" y="921" type="curve" smooth="yes"/>
      <point x="25" y="901"/>
      <point x="30" y="870"/>
      <point x="32" y="860" type="curve"/>
      <point x="59" y="830" type="line"/>
      <point x="118" y="836"/>
      <point x="271" y="861"/>
      <point x="314" y="883" type="curve"/>
      <point x="301" y="907"/>
      <point x="297" y="939"/>
      <point x="297" y="969" type="curve" smooth="yes"/>
      <point x="297" y="1073"/>
      <point x="363" y="1161"/>
      <point x="474" y="1163" type="curve" smooth="yes"/>
      <point x="608" y="1165"/>
      <point x="693" y="1082"/>
      <point x="693" y="918" type="curve" smooth="yes"/>
      <point x="693" y="703"/>
      <point x="373" y="693"/>
      <point x="373" y="404" type="curve" smooth="yes"/>
      <point x="373" y="134" type="line" smooth="yes"/>
      <point x="373" y="112"/>
      <point x="330" y="93"/>
      <point x="215" y="73" type="curve"/>
      <point x="215" y="0" type="line"/>
    </contour>
    <contour>
      <point x="498" y="1370" type="move" name="U"/>
    </contour>
    <contour>
      <point x="498" y="-100" type="move" name="L"/>
    </contour>
  </outline>
</glyph>
<glyph name="LtnCapUBar" format="1">
  <advance width="1384"/>
  <unicode hex="0244"/>
  <outline>
    <contour>
      <point x="1320" y="1187" type="curve"/>
      <point x="1320" y="1260" type="line"/>
      <point x="870" y="1260" type="line"/>
      <point x="870" y="1187" type="line"/>
      <point x="966" y="1168"/>
      <point x="1008" y="1141"/>
      <point x="1008" y="1125" type="curve" smooth="yes"/>
      <point x="1008" y="720" type="line"/>
      <point x="438" y="720" type="line"/>
      <point x="438" y="1125" type="line" smooth="yes"/>
      <point x="438" y="1144"/>
      <point x="485" y="1168"/>
      <point x="575" y="1187" type="curve"/>
      <point x="575" y="1260" type="line"/>
      <point x="50" y="1260" type="line"/>
      <point x="50" y="1187" type="line"/>
      <point x="146" y="1168"/>
      <point x="188" y="1141"/>
      <point x="188" y="1125" type="curve" smooth="yes"/>
      <point x="188" y="720" type="line"/>
      <point x="78" y="720" type="line"/>
      <point x="70" y="699"/>
      <point x="47" y="644"/>
      <point x="41" y="624" type="curve"/>
      <point x="63" y="600" type="line"/>
      <point x="188" y="600" type="line"/>
      <point x="188" y="444" type="line" smooth="yes"/>
      <point x="188" y="119"/>
      <point x="414" y="-30"/>
      <point x="689" y="-30" type="curve" smooth="yes"/>
      <point x="977" y="-30"/>
      <point x="1183" y="174"/>
      <point x="1183" y="524" type="curve" smooth="yes"/>
      <point x="1183" y="600" type="line"/>
      <point x="1290" y="600" type="line"/>
      <point x="1330" y="697" type="line"/>
      <point x="1305" y="720" type="line"/>
      <point x="1183" y="720" type="line"/>
      <point x="1183" y="1125" type="line" smooth="yes"/>
      <point x="1183" y="1144"/>
      <point x="1230" y="1168"/>
    </contour>
    <contour>
      <point x="750" y="115" type="curve" smooth="yes"/>
      <point x="522" y="115"/>
      <point x="438" y="253"/>
      <point x="438" y="509" type="curve" smooth="yes"/>
      <point x="438" y="600" type="line"/>
      <point x="1008" y="600" type="line"/>
      <point x="1008" y="498" type="line" smooth="yes"/>
      <point x="1008" y="300"/>
      <point x="940" y="115"/>
    </contour>
    <contour>
      <point x="698" y="1370" type="move" name="U"/>
    </contour>
    <contour>
      <point x="698" y="-100" type="move" name="L"/>
    </contour>
  </outline>
</glyph>
<glyph name="LtnSmQHookTail" format="1">
  <advance width="1122"/>
  <unicode hex="024B"/>
  <outline>
    <contour>
      <point x="738" y="-212" type="line"/>
      <point x="738" y="-356"/>
      <point x="809" y="-493"/>
      <point x="1016" y="-493" type="curve" smooth="yes"/>
      <point x="1275" y="-493"/>
      <point x="1447" y="-301"/>
      <point x="1447" y="-192" type="curve"/>
      <point x="1419" y="-136" type="line"/>
      <point x="1381" y="-133"/>
      <point x="1200" y="-182"/>
      <point x="1177" y="-210" type="curve"/>
      <point x="1185" y="-222"/>
      <point x="1189" y="-237"/>
      <point x="1189" y="-251" type="curve" smooth="yes"/>
      <point x="1189" y="-301"/>
      <point x="1158" y="-375"/>
      <point x="1090" y="-375" type="curve" smooth="yes"/>
      <point x="1009" y="-375"/>
      <point x="978" y="-297"/>
      <point x="978" y="-144" type="curve" smooth="yes"/>
      <point x="978" y="717" type="line" smooth="yes"/>
      <point x="978" y="838"/>
      <point x="1009" y="923"/>
      <point x="1009" y="923" type="curve"/>
      <point x="970" y="960" type="line"/>
      <point x="946" y="936"/>
      <point x="856" y="882"/>
      <point x="793" y="850" type="curve"/>
      <point x="695" y="945"/>
      <point x="628" y="960"/>
      <point x="551" y="960" type="curve" smooth="yes"/>
      <point x="470" y="960"/>
      <point x="367" y="922"/>
      <point x="292" y="873" type="curve" smooth="yes"/>
      <point x="198" y="811"/>
      <point x="65" y="678"/>
      <point x="65" y="444" type="curve" smooth="yes"/>
      <point x="65" y="147"/>
      <point x="253" y="-30"/>
      <point x="409" y="-30" type="curve" smooth="yes"/>
      <point x="537" y="-30"/>
      <point x="618" y="18"/>
      <point x="738" y="138" type="curve"/>
    </contour>
    <contour>
      <point x="525" y="160" type="curve" smooth="yes"/>
      <point x="415" y="160"/>
      <point x="305" y="278"/>
      <point x="305" y="505" type="curve" smooth="yes"/>
      <point x="305" y="733"/>
      <point x="401" y="828"/>
      <point x="528" y="828" type="curve" smooth="yes"/>
      <point x="602" y="828"/>
      <point x="693" y="777"/>
      <point x="738" y="700" type="curve"/>
      <point x="738" y="270" type="line"/>
      <point x="659" y="198"/>
      <point x="598" y="160"/>
    </contour>
    <contour>
      <point x="587" y="1050" type="move" name="U"/>
    </contour>
    <contour>
      <point x="587" y="-600" type="move" name="L"/>
    </contour>
  </outline>
</glyph>
<glyph name="LtnSmAlpha" format="1">
  <advance width="1100"/>
  <unicode hex="0251"/>
  <outline>
    <contour>
      <point x="1093" y="115" type="curve"/>
      <point x="1093" y="115"/>
      <point x="1065" y="190"/>
      <point x="1065" y="188" type="curve"/>
      <point x="998" y="157"/>
      <point x="969" y="155"/>
      <point x="955" y="169" type="curve" smooth="yes"/>
      <point x="942" y="181"/>
      <point x="938" y="234"/>
      <point x="938" y="314" type="curve" smooth="yes"/>
      <point x="938" y="693" type="line" smooth="yes"/>
      <point x="938" y="804"/>
      <point x="967" y="923"/>
      <point x="967" y="923" type="curve"/>
      <point x="927" y="960" type="line"/>
      <point x="872" y="918"/>
      <point x="807" y="882"/>
      <point x="754" y="857" type="curve"/>
      <point x="677" y="939"/>
      <point x="617" y="960"/>
      <point x="540" y="960" type="curve" smooth="yes"/>
      <point x="242" y="960"/>
      <point x="65" y="678"/>
      <point x="65" y="440" type="curve" smooth="yes"/>
      <point x="65" y="136"/>
      <point x="236" y="-30"/>
      <point x="405" y="-30" type="curve" smooth="yes"/>
      <point x="510" y="-30"/>
      <point x="588" y="11"/>
      <point x="703" y="135" type="curve"/>
      <point x="714" y="15"/>
      <point x="743" y="-30"/>
      <point x="796" y="-30" type="curve" smooth="yes"/>
      <point x="837" y="-30"/>
      <point x="977" y="37"/>
    </contour>
    <contour>
      <point x="698" y="268" type="line"/>
      <point x="604" y="179"/>
      <point x="559" y="160"/>
      <point x="507" y="160" type="curve" smooth="yes"/>
      <point x="411" y="160"/>
      <point x="305" y="274"/>
      <point x="305" y="501" type="curve" smooth="yes"/>
      <point x="305" y="751"/>
      <point x="415" y="828"/>
      <point x="525" y="828" type="curve" smooth="yes"/>
      <point x="597" y="828"/>
      <point x="666" y="779"/>
      <point x="698" y="705" type="curve"/>
      <point x="698" y="272" type="line"/>
    </contour>
    <contour>
      <point x="839" y="0" type="move" name="H"/>
    </contour>
    <contour>
      <point x="1100" y="900" type="move" name="R"/>
    </contour>
    <contour>
      <point x="579" y="1050" type="move" name="U"/>
    </contour>
    <contour>
      <point x="579" y="-100" type="move" name="L"/>
    </contour>
    <contour>
      <point x="850" y="0" type="move" name="O"/>
    </contour>
  </outline>
</glyph>
<glyph name="LtnSmDTail" format="1">
  <advance width="1139"/>
  <unicode hex="0256"/>
  <outline>
    <contour>
      <point x="985" y="1513" type="line"/>
      <point x="947" y="1550" type="line"/>
      <point x="878" y="1528"/>
      <point x="755" y="1499"/>
      <point x="608" y="1485" type="curve"/>
      <point x="608" y="1416" type="line"/>
      <point x="749" y="1406"/>
      <point x="745" y="1391"/>
      <point x="745" y="1244" type="curve" smooth="yes"/>
      <point x="745" y="901" type="line"/>
      <point x="673" y="950"/>
      <point x="613" y="960"/>
      <point x="551" y="960" type="curve" smooth="yes"/>
      <point x="265" y="960"/>
      <point x="65" y="712"/>
      <point x="65" y="444" type="curve" smooth="yes"/>
      <point x="65" y="147"/>
      <point x="253" y="-30"/>
      <point x="431" y="-30" type="curve" smooth="yes"/>
      <point x="552" y="-30"/>
      <point x="627" y="17"/>
      <point x="745" y="137" type="curve"/>
      <point x="745" y="-212" type="line" smooth="yes"/>
      <point x="745" y="-356"/>
      <point x="816" y="-493"/>
      <point x="1023" y="-493" type="curve" smooth="yes"/>
      <point x="1283" y="-493"/>
      <point x="1456" y="-299"/>
      <point x="1454" y="-192" type="curve"/>
      <point x="1427" y="-136" type="line"/>
      <point x="1369" y="-130"/>
      <point x="1176" y="-195"/>
      <point x="1185" y="-210" type="curve" smooth="yes"/>
      <point x="1218" y="-269"/>
      <point x="1172" y="-375"/>
      <point x="1097" y="-375" type="curve" smooth="yes"/>
      <point x="1016" y="-375"/>
      <point x="985" y="-297"/>
      <point x="985" y="-144" type="curve" smooth="yes"/>
    </contour>
    <contour>
      <point x="532" y="160" type="curve" smooth="yes"/>
      <point x="422" y="160"/>
      <point x="305" y="286"/>
      <point x="305" y="498" type="curve" smooth="yes"/>
      <point x="305" y="729"/>
      <point x="403" y="828"/>
      <point x="535" y="828" type="curve" smooth="yes"/>
      <point x="624" y="828"/>
      <point x="696" y="783"/>
      <point x="745" y="706" type="curve"/>
      <point x="745" y="269" type="line"/>
      <point x="665" y="197"/>
      <point x="605" y="160"/>
    </contour>
    <contour>
      <point x="1148" y="900" type="move" name="R"/>
    </contour>
    <contour>
      <point x="347" y="1050" type="move" name="U"/>
    </contour>
    <contour>
      <point x="558" y="-100" type="move" name="L"/>
    </contour>
  </outline>
</glyph>
<glyph name="LtnSmDHook" format="1">
  <advance width="1148"/>
  <unicode hex="0257"/>
  <outline>
    <contour>
      <point x="1403" y="1411" type="curve" smooth="yes"/>
      <point x="1403" y="1448"/>
      <point x="1287" y="1550"/>
      <point x="1154" y="1550" type="curve" smooth="yes"/>
      <point x="1065" y="1550"/>
      <point x="968" y="1498"/>
      <point x="898" y="1432" type="curve" smooth="yes"/>
      <point x="798" y="1337"/>
      <point x="745" y="1226"/>
      <point x="745" y="1044" type="curve" smooth="yes"/>
      <point x="745" y="904" type="line"/>
      <point x="673" y="955"/>
      <point x="613" y="960"/>
      <point x="551" y="960" type="curve" smooth="yes"/>
      <point x="272" y="960"/>
      <point x="65" y="719"/>
      <point x="65" y="444" type="curve" smooth="yes"/>
      <point x="65" y="147"/>
      <point x="253" y="-30"/>
      <point x="431" y="-30" type="curve" smooth="yes"/>
      <point x="556" y="-30"/>
      <point x="630" y="20"/>
      <point x="752" y="145" type="curve"/>
      <point x="767" y="9"/>
      <point x="803" y="-31"/>
      <point x="844" y="-31" type="curve" smooth="yes"/>
      <point x="881" y="-31"/>
      <point x="1018" y="32"/>
      <point x="1141" y="114" type="curve"/>
      <point x="1113" y="187" type="line"/>
      <point x="1033" y="156"/>
      <point x="1020" y="152"/>
      <point x="1008" y="166" type="curve" smooth="yes"/>
      <point x="993" y="185"/>
      <point x="985" y="205"/>
      <point x="985" y="299" type="curve" smooth="yes"/>
      <point x="985" y="1054" type="line" smooth="yes"/>
      <point x="985" y="1296"/>
      <point x="1007" y="1395"/>
      <point x="1091" y="1395" type="curve" smooth="yes"/>
      <point x="1128" y="1395"/>
      <point x="1178" y="1378"/>
      <point x="1210" y="1236" type="curve"/>
      <point x="1290" y="1282"/>
      <point x="1403" y="1382"/>
    </contour>
    <contour>
      <point x="745" y="269" type="line"/>
      <point x="667" y="197"/>
      <point x="606" y="160"/>
      <point x="532" y="160" type="curve" smooth="yes"/>
      <point x="422" y="160"/>
      <point x="305" y="286"/>
      <point x="305" y="498" type="curve" smooth="yes"/>
      <point x="305" y="725"/>
      <point x="403" y="828"/>
      <point x="535" y="828" type="curve" smooth="yes"/>
      <point x="631" y="828"/>
      <point x="697" y="783"/>
      <point x="745" y="707" type="curve"/>
      <point x="745" y="302" type="line"/>
    </contour>
    <contour>
      <point x="347" y="1050" type="move" name="U"/>
    </contour>
    <contour>
      <point x="558" y="-100" type="move" name="L"/>
    </contour>
  </outline>
</glyph>
<glyph name="LtnSmLMiddleTilde" format="1">
  <advance width="787"/>
  <unicode hex="026B"/>
  <outline>
    <contour>
      <point x="787" y="911" type="curve"/>
      <point x="711" y="941" type="line"/>
      <point x="666" y="863"/>
      <point x="624" y="826"/>
      <point x="566" y="826" type="curve" smooth="yes"/>
      <point x="549" y="826"/>
      <point x="531" y="830"/>
      <point x="514" y="836" type="curve"/>
      <point x="514" y="1509" type="line"/>
      <point x="470" y="1550" type="line"/>
      <point x="366" y="1507"/>
      <point x="275" y="1489"/>
      <point x="141" y="1470" type="curve"/>
      <point x="141" y="1400" type="line"/>
      <point x="253" y="1387"/>
      <point x="274" y="1387"/>
      <point x="274" y="1266" type="curve" smooth="yes"/>
      <point x="274" y="930" type="line"/>
      <point x="270" y="930"/>
      <point x="266" y="931"/>
      <point x="262" y="931" type="curve" smooth="yes"/>
      <point x="140" y="931"/>
      <point x="47" y="759"/>
      <point x="0" y="650" type="curve"/>
      <point x="76" y="622" type="line"/>
      <point x="125" y="696"/>
      <point x="158" y="737"/>
      <point x="219" y="737" type="curve" smooth="yes"/>
      <point x="237" y="737"/>
      <point x="256" y="733"/>
      <point x="274" y="727" type="curve"/>
      <point x="274" y="134" type="line" smooth="yes"/>
      <point x="274" y="112"/>
      <point x="246" y="93"/>
      <point x="131" y="73" type="curve"/>
      <point x="131" y="0" type="line"/>
      <point x="656" y="0" type="line"/>
      <point x="656" y="73" type="line"/>
      <point x="547" y="91"/>
      <point x="514" y="114"/>
      <point x="514" y="134" type="curve" smooth="yes"/>
      <point x="514" y="632" type="line"/>
      <point x="525" y="632" type="line" smooth="yes"/>
      <point x="647" y="632"/>
      <point x="740" y="803"/>
    </contour>
    <contour>
      <point x="394" y="1690" type="move" name="U"/>
    </contour>
    <contour>
      <point x="394" y="-100" type="move" name="L"/>
    </contour>
  </outline>
</glyph>
<glyph name="LtnSmUBar" format="1">
  <advance width="1179"/>
  <unicode hex="0289"/>
  <outline>
    <contour>
      <point x="1138" y="499" type="line"/>
      <point x="1116" y="524" type="line"/>
      <point x="990" y="524" type="line"/>
      <point x="990" y="914" type="line"/>
      <point x="953" y="960" type="line"/>
      <point x="857" y="936"/>
      <point x="751" y="914"/>
      <point x="618" y="902" type="curve"/>
      <point x="618" y="832" type="line"/>
      <point x="741" y="826"/>
      <point x="750" y="809"/>
      <point x="750" y="689" type="curve" smooth="yes"/>
      <point x="750" y="524" type="line"/>
      <point x="395" y="524" type="line"/>
      <point x="395" y="914" type="line"/>
      <point x="360" y="960" type="line"/>
      <point x="249" y="925"/>
      <point x="167" y="914"/>
      <point x="34" y="902" type="curve"/>
      <point x="34" y="832" type="line"/>
      <point x="157" y="820"/>
      <point x="155" y="816"/>
      <point x="155" y="689" type="curve" smooth="yes"/>
      <point x="155" y="524" type="line"/>
      <point x="76" y="524" type="line"/>
      <point x="65" y="503"/>
      <point x="39" y="448"/>
      <point x="33" y="427" type="curve"/>
      <point x="56" y="405" type="line"/>
      <point x="155" y="405" type="line"/>
      <point x="155" y="279" type="line" smooth="yes"/>
      <point x="155" y="29"/>
      <point x="284" y="-30"/>
      <point x="408" y="-30" type="curve" smooth="yes"/>
      <point x="493" y="-30"/>
      <point x="584" y="-8"/>
      <point x="750" y="136" type="curve"/>
      <point x="766" y="-1"/>
      <point x="811" y="-30"/>
      <point x="858" y="-30" type="curve" smooth="yes"/>
      <point x="891" y="-30"/>
      <point x="1046" y="48"/>
      <point x="1144" y="112" type="curve"/>
      <point x="1119" y="187" type="line"/>
      <point x="1051" y="158"/>
      <point x="1029" y="154"/>
      <point x="1013" y="164" type="curve" smooth="yes"/>
      <point x="995" y="177"/>
      <point x="990" y="202"/>
      <point x="990" y="284" type="curve" smooth="yes"/>
      <point x="990" y="405" type="line"/>
      <point x="1096" y="405" type="line"/>
    </contour>
    <contour>
      <point x="511" y="143" type="curve" smooth="yes"/>
      <point x="437" y="143"/>
      <point x="395" y="177"/>
      <point x="395" y="342" type="curve" smooth="yes"/>
      <point x="395" y="405" type="line"/>
      <point x="750" y="405" type="line"/>
      <point x="750" y="262" type="line"/>
      <point x="641" y="167"/>
      <point x="567" y="143"/>
    </contour>
    <contour>
      <point x="897" y="0" type="move" name="H"/>
    </contour>
    <contour>
      <point x="1179" y="900" type="move" name="R"/>
    </contour>
    <contour>
      <point x="589" y="1050" type="move" name="U"/>
    </contour>
    <contour>
      <point x="589" y="-100" type="move" name="L"/>
    </contour>
    <contour>
      <point x="919" y="0" type="move" name="O"/>
    </contour>
  </outline>
</glyph>
<glyph name="LtnSmUpsilon" format="1">
  <advance width="1034"/>
  <unicode hex="028A"/>
  <outline>
    <contour>
      <point x="974" y="857" type="curve"/>
      <point x="974" y="930" type="line"/>
      <point x="600" y="930" type="line"/>
      <point x="572" y="808" type="line"/>
      <point x="699" y="732"/>
      <point x="738" y="584"/>
      <point x="738" y="383" type="curve" smooth="yes"/>
      <point x="738" y="233"/>
      <point x="667" y="95"/>
      <point x="534" y="95" type="curve" smooth="yes"/>
      <point x="402" y="95"/>
      <point x="308" y="243"/>
      <point x="308" y="421" type="curve" smooth="yes"/>
      <point x="308" y="620"/>
      <point x="339" y="711"/>
      <point x="466" y="808" type="curve"/>
      <point x="441" y="930" type="line"/>
      <point x="64" y="930" type="line"/>
      <point x="64" y="857" type="line"/>
      <point x="64" y="857"/>
      <point x="299" y="806"/>
      <point x="252" y="763" type="curve" smooth="yes"/>
      <point x="129" y="652"/>
      <point x="64" y="542"/>
      <point x="64" y="392" type="curve" smooth="yes"/>
      <point x="64" y="167"/>
      <point x="202" y="-30"/>
      <point x="507" y="-30" type="curve" smooth="yes"/>
      <point x="841" y="-30"/>
      <point x="963" y="239"/>
      <point x="963" y="427" type="curve" smooth="yes"/>
      <point x="963" y="562"/>
      <point x="901" y="660"/>
      <point x="784" y="763" type="curve" smooth="yes"/>
      <point x="739" y="804"/>
      <point x="974" y="857"/>
    </contour>
    <contour>
      <point x="516" y="0" type="move" name="H"/>
    </contour>
    <contour>
      <point x="1034" y="900" type="move" name="R"/>
    </contour>
    <contour>
      <point x="516" y="1050" type="move" name="U"/>
    </contour>
    <contour>
      <point x="516" y="-100" type="move" name="L"/>
    </contour>
    <contour>
      <point x="555" y="0" type="move" name="O"/>
    </contour>
  </outline>
</glyph>
<glyph name="LtnGlottalStop" format="1">
  <advance width="965"/>
  <unicode hex="0294"/>
  <outline>
    <contour>
      <point x="765" y="0" type="line"/>
      <point x="765" y="73" type="line"/>
      <point x="656" y="91"/>
      <point x="603" y="114"/>
      <point x="603" y="134" type="curve" smooth="yes"/>
      <point x="603" y="578" type="line" smooth="yes"/>
      <point x="603" y="875"/>
      <point x="940" y="911"/>
      <point x="940" y="1208" type="curve" smooth="yes"/>
      <point x="940" y="1410"/>
      <point x="808" y="1550"/>
      <point x="550" y="1550" type="curve" smooth="yes"/>
      <point x="264" y="1550"/>
      <point x="45" y="1369"/>
      <point x="45" y="1166" type="curve" smooth="yes"/>
      <point x="45" y="1156"/>
      <point x="46" y="1135"/>
      <point x="48" y="1125" type="curve"/>
      <point x="75" y="1095" type="line"/>
      <point x="157" y="1103"/>
      <point x="260" y="1127"/>
      <point x="319" y="1156" type="curve"/>
      <point x="313" y="1175"/>
      <point x="307" y="1202"/>
      <point x="307" y="1221" type="curve" smooth="yes"/>
      <point x="307" y="1325"/>
      <point x="381" y="1421"/>
      <point x="472" y="1421" type="curve" smooth="yes"/>
      <point x="591" y="1421"/>
      <point x="693" y="1319"/>
      <point x="693" y="1155" type="curve" smooth="yes"/>
      <point x="693" y="903"/>
      <point x="363" y="820"/>
      <point x="363" y="511" type="curve" smooth="yes"/>
      <point x="363" y="134" type="line" smooth="yes"/>
      <point x="363" y="112"/>
      <point x="315" y="93"/>
      <point x="200" y="73" type="curve"/>
      <point x="200" y="0" type="line"/>
    </contour>
    <contour>
      <point x="965" y="900" type="move" name="R"/>
    </contour>
    <contour>
      <point x="493" y="1690" type="move" name="U"/>
    </contour>
    <contour>
      <point x="493" y="-100" type="move" name="L"/>
    </contour>
  </outline>
</glyph>
<glyph name="LtnSmQHook" format="1">
  <advance width="1123"/>
  <unicode hex="02A0"/>
  <outline>
    <contour>
      <point x="1396" y="1411" type="curve" smooth="yes"/>
      <point x="1396" y="1451"/>
      <point x="1270" y="1550"/>
      <point x="1147" y="1550" type="curve" smooth="yes"/>
      <point x="1065" y="1550"/>
      <point x="959" y="1499"/>
      <point x="891" y="1432" type="curve" smooth="yes"/>
      <point x="793" y="1335"/>
      <point x="738" y="1226"/>
      <point x="738" y="1029" type="curve" smooth="yes"/>
      <point x="738" y="898" type="line"/>
      <point x="668" y="950"/>
      <point x="613" y="960"/>
      <point x="551" y="960" type="curve" smooth="yes"/>
      <point x="470" y="960"/>
      <point x="362" y="923"/>
      <point x="292" y="873" type="curve" smooth="yes"/>
      <point x="198" y="805"/>
      <point x="65" y="686"/>
      <point x="65" y="452" type="curve" smooth="yes"/>
      <point x="65" y="155"/>
      <point x="261" y="-30"/>
      <point x="416" y="-30" type="curve" smooth="yes"/>
      <point x="556" y="-30"/>
      <point x="623" y="18"/>
      <point x="738" y="136" type="curve"/>
      <point x="738" y="-345" type="line" smooth="yes"/>
      <point x="738" y="-368"/>
      <point x="693" y="-388"/>
      <point x="568" y="-407" type="curve"/>
      <point x="568" y="-480" type="line"/>
      <point x="1109" y="-480" type="line"/>
      <point x="1109" y="-407" type="line"/>
      <point x="1007" y="-388"/>
      <point x="978" y="-366"/>
      <point x="978" y="-345" type="curve" smooth="yes"/>
      <point x="978" y="1084" type="line" smooth="yes"/>
      <point x="978" y="1326"/>
      <point x="1022" y="1397"/>
      <point x="1084" y="1397" type="curve" smooth="yes"/>
      <point x="1143" y="1397"/>
      <point x="1178" y="1328"/>
      <point x="1203" y="1236" type="curve"/>
      <point x="1264" y="1266"/>
      <point x="1396" y="1382"/>
    </contour>
    <contour>
      <point x="532" y="160" type="curve" smooth="yes"/>
      <point x="422" y="160"/>
      <point x="305" y="286"/>
      <point x="305" y="513" type="curve" smooth="yes"/>
      <point x="305" y="763"/>
      <point x="424" y="828"/>
      <point x="535" y="828" type="curve" smooth="yes"/>
      <point x="609" y="828"/>
      <point x="694" y="777"/>
      <point x="738" y="700" type="curve"/>
      <point x="738" y="269" type="line"/>
      <point x="660" y="197"/>
      <point x="606" y="160"/>
    </contour>
    <contour>
      <point x="587" y="1690" type="move" name="U"/>
    </contour>
    <contour>
      <point x="587" y="-600" type="move" name="L"/>
    </contour>
  </outline>
</glyph>
<glyph name="ModCircumAccent" format="1">
  <advance width="733"/>
  <unicode hex="02C6"/>
  <outline>
    <contour>
      <point x="705" y="1107" type="curve"/>
      <point x="435" y="1494" type="line"/>
      <point x="298" y="1494" type="line"/>
      <point x="19" y="1107" type="line"/>
      <point x="38" y="1082"/>
      <point x="65" y="1050"/>
      <point x="87" y="1040" type="curve"/>
      <point x="365" y="1263" type="line"/>
      <point x="647" y="1040" type="line"/>
      <point x="670" y="1050"/>
      <point x="689" y="1082"/>
    </contour>
  </outline>
</glyph>
<glyph name="Caron" format="1">
  <advance width="733"/>
  <unicode hex="02C7"/>
  <outline>
    <contour>
      <point x="713" y="1445" type="line"/>
      <point x="695" y="1471"/>
      <point x="668" y="1503"/>
      <point x="646" y="1513" type="curve"/>
      <point x="368" y="1295" type="line"/>
      <point x="86" y="1513" type="line"/>
      <point x="63" y="1503"/>
      <point x="44" y="1471"/>
      <point x="28" y="1445" type="curve"/>
      <point x="298" y="1064" type="line"/>
      <point x="435" y="1064" type="line"/>
    </contour>
    <contour>
      <point x="367" y="1410" type="move" name="U"/>
    </contour>
  </outline>
</glyph>
<glyph name="ModMacron" format="1">
  <advance width="1010"/>
  <unicode hex="02C9"/>
  <outline>
    <contour>
      <point x="931" y="1307" type="curve"/>
      <point x="899" y="1338" type="line"/>
      <point x="135" y="1338" type="line"/>
      <point x="123" y="1312"/>
      <point x="86" y="1236"/>
      <point x="79" y="1207" type="curve"/>
      <point x="111" y="1175" type="line"/>
      <point x="875" y="1175" type="line"/>
      <point x="885" y="1198"/>
      <point x="923" y="1278"/>
    </contour>
    <contour>
      <point x="495" y="1410" type="move" name="U"/>
    </contour>
  </outline>
</glyph>
<glyph name="Breve" format="1">
  <advance width="730"/>
  <unicode hex="02D8"/>
  <outline>
    <contour>
      <point x="720" y="1368" type="curve"/>
      <point x="704" y="1392"/>
      <point x="668" y="1425"/>
      <point x="645" y="1435" type="curve"/>
      <point x="578" y="1312"/>
      <point x="457" y="1255"/>
      <point x="363" y="1255" type="curve" smooth="yes"/>
      <point x="274" y="1255"/>
      <point x="152" y="1313"/>
      <point x="86" y="1435" type="curve"/>
      <point x="64" y="1425"/>
      <point x="26" y="1392"/>
      <point x="10" y="1368" type="curve"/>
      <point x="90" y="1153"/>
      <point x="221" y="1063"/>
      <point x="367" y="1063" type="curve" smooth="yes"/>
      <point x="502" y="1063"/>
      <point x="640" y="1153"/>
    </contour>
    <contour>
      <point x="365" y="1370" type="move" name="U"/>
    </contour>
  </outline>
</glyph>
<glyph name="RingAbv" format="1">
  <advance width="512"/>
  <unicode hex="02DA"/>
  <outline>
    <contour>
      <point x="465" y="1284" type="curve"/>
      <point x="464" y="1388"/>
      <point x="396" y="1463"/>
      <point x="287" y="1463" type="curve" smooth="yes"/>
      <point x="162" y="1463"/>
      <point x="48" y="1348"/>
      <point x="48" y="1204" type="curve" smooth="yes"/>
      <point x="48" y="1098"/>
      <point x="120" y="1028"/>
      <point x="225" y="1028" type="curve" smooth="yes"/>
      <point x="349" y="1028"/>
      <point x="465" y="1142"/>
    </contour>
    <contour>
      <point x="330" y="1243" type="curve"/>
      <point x="330" y="1190"/>
      <point x="299" y="1149"/>
      <point x="246" y="1149" type="curve" smooth="yes"/>
      <point x="216" y="1149"/>
      <point x="183" y="1184"/>
      <point x="183" y="1245" type="curve" smooth="yes"/>
      <point x="183" y="1294"/>
      <point x="211" y="1342"/>
      <point x="266" y="1342" type="curve" smooth="yes"/>
      <point x="297" y="1342"/>
      <point x="330" y="1307"/>
    </contour>
  </outline>
</glyph>
<glyph name="DblAcuteAccent" format="1">
  <advance width="768"/>
  <unicode hex="02DD"/>
  <outline>
    <contour>
      <point x="725" y="1423" type="line"/>
      <point x="695" y="1479" type="line"/>
      <point x="668" y="1489"/>
      <point x="557" y="1500"/>
      <point x="524" y="1504" type="curve"/>
      <point x="370" y="1082" type="line"/>
      <point x="396" y="1066"/>
      <point x="435" y="1045"/>
      <point x="457" y="1040" type="curve"/>
    </contour>
    <contour>
      <point x="405" y="1423" type="line"/>
      <point x="375" y="1479" type="line"/>
      <point x="348" y="1489"/>
      <point x="237" y="1500"/>
      <point x="204" y="1504" type="curve"/>
      <point x="50" y="1082" type="line"/>
      <point x="76" y="1066"/>
      <point x="115" y="1045"/>
      <point x="137" y="1040" type="curve"/>
    </contour>
  </outline>
</glyph>
<glyph name="CombTilde" format="1">
  <advance width="0"/>
  <unicode hex="0303"/>
  <outline>
    <contour>
      <point x="-144" y="1377" type="curve"/>
      <point x="-221" y="1407" type="line"/>
      <point x="-266" y="1329"/>
      <point x="-307" y="1292"/>
      <point x="-366" y="1292" type="curve" smooth="yes"/>
      <point x="-452" y="1292"/>
      <point x="-546" y="1397"/>
      <point x="-670" y="1397" type="curve" smooth="yes"/>
      <point x="-792" y="1397"/>
      <point x="-884" y="1225"/>
      <point x="-931" y="1116" type="curve"/>
      <point x="-856" y="1088" type="line"/>
      <point x="-807" y="1162"/>
      <point x="-773" y="1203"/>
      <point x="-713" y="1203" type="curve" smooth="yes"/>
      <point x="-612" y="1203"/>
      <point x="-521" y="1098"/>
      <point x="-407" y="1098" type="curve" smooth="yes"/>
      <point x="-284" y="1098"/>
      <point x="-191" y="1269"/>
    </contour>
    <contour>
      <point x="-538" y="1050" type="move" name="_U"/>
    </contour>
    <contour>
      <point x="-529" y="1440" type="move" name="U"/>
    </contour>
  </outline>
</glyph>
<glyph name="CombMacron" format="1">
  <advance width="0"/>
  <unicode hex="0304"/>
  <outline>
    <contour>
      <point x="-89" y="1307" type="curve"/>
      <point x="-121" y="1338" type="line"/>
      <point x="-885" y="1338" type="line"/>
      <point x="-897" y="1312"/>
      <point x="-934" y="1236"/>
      <point x="-941" y="1207" type="curve"/>
      <point x="-909" y="1175" type="line"/>
      <point x="-145" y="1175" type="line"/>
      <point x="-135" y="1198"/>
      <point x="-97" y="1278"/>
    </contour>
    <contour>
      <point x="-525" y="1050" type="move" name="_U"/>
    </contour>
    <contour>
      <point x="-525" y="1410" type="move" name="U"/>
    </contour>
  </outline>
</glyph>
<glyph name="CombBreve" format="1">
  <advance width="0"/>
  <unicode hex="0306"/>
  <outline>
    <contour>
      <point x="-160" y="1368" type="curve"/>
      <point x="-176" y="1392"/>
      <point x="-213" y="1425"/>
      <point x="-236" y="1435" type="curve"/>
      <point x="-303" y="1312"/>
      <point x="-423" y="1255"/>
      <point x="-517" y="1255" type="curve" smooth="yes"/>
      <point x="-606" y="1255"/>
      <point x="-729" y="1313"/>
      <point x="-795" y="1435" type="curve"/>
      <point x="-817" y="1425"/>
      <point x="-854" y="1392"/>
      <point x="-870" y="1368" type="curve"/>
      <point x="-790" y="1153"/>
      <point x="-659" y="1063"/>
      <point x="-513" y="1063" type="curve" smooth="yes"/>
      <point x="-378" y="1063"/>
      <point x="-240" y="1153"/>
    </contour>
    <contour>
      <point x="-515" y="1050" type="move" name="_U"/>
    </contour>
    <contour>
      <point x="-515" y="1393" type="move" name="U"/>
    </contour>
  </outline>
</glyph>
<glyph name="CombDotAbv" format="1">
  <advance width="0"/>
  <unicode hex="0307"/>
  <outline>
    <contour>
      <point x="-378" y="1268" type="curve"/>
      <point x="-378" y="1349"/>
      <point x="-422" y="1389"/>
      <point x="-496" y="1389" type="curve" smooth="yes"/>
      <point x="-578" y="1389"/>
      <point x="-653" y="1311"/>
      <point x="-653" y="1213" type="curve" smooth="yes"/>
      <point x="-653" y="1134"/>
      <point x="-611" y="1091"/>
      <point x="-534" y="1091" type="curve" smooth="yes"/>
      <point x="-449" y="1091"/>
      <point x="-378" y="1170"/>
    </contour>
    <contour>
      <point x="-515" y="1050" type="move" name="_U"/>
    </contour>
    <contour>
      <point x="-515" y="1410" type="move" name="U"/>
    </contour>
  </outline>
</glyph>
<glyph name="CombRingAbv" format="1">
  <advance width="0"/>
  <unicode hex="030A"/>
  <outline>
    <contour>
      <point x="-307" y="1284" type="curve"/>
      <point x="-307" y="1388"/>
      <point x="-376" y="1463"/>
      <point x="-484" y="1463" type="curve" smooth="yes"/>
      <point x="-610" y="1463"/>
      <point x="-724" y="1348"/>
      <point x="-724" y="1204" type="curve" smooth="yes"/>
      <point x="-724" y="1098"/>
      <point x="-651" y="1028"/>
      <point x="-546" y="1028" type="curve" smooth="yes"/>
      <point x="-423" y="1028"/>
      <point x="-307" y="1142"/>
    </contour>
    <contour>
      <point x="-442" y="1243" type="curve"/>
      <point x="-442" y="1190"/>
      <point x="-472" y="1149"/>
      <point x="-525" y="1149" type="curve" smooth="yes"/>
      <point x="-556" y="1149"/>
      <point x="-589" y="1184"/>
      <point x="-589" y="1245" type="curve" smooth="yes"/>
      <point x="-589" y="1294"/>
      <point x="-560" y="1342"/>
      <point x="-505" y="1342" type="curve" smooth="yes"/>
      <point x="-475" y="1342"/>
      <point x="-442" y="1307"/>
    </contour>
    <contour>
      <point x="-515" y="1050" type="move" name="_U"/>
    </contour>
    <contour>
      <point x="-515" y="1490" type="move" name="U"/>
    </contour>
  </outline>
</glyph>
<glyph name="CombDblAcute" format="1">
  <advance width="0"/>
  <unicode hex="030B"/>
  <outline>
    <contour>
      <point x="-74" y="1423" type="line"/>
      <point x="-103" y="1479" type="line"/>
      <point x="-131" y="1489"/>
      <point x="-242" y="1500"/>
      <point x="-275" y="1504" type="curve"/>
      <point x="-428" y="1082" type="line"/>
      <point x="-403" y="1066"/>
      <point x="-364" y="1045"/>
      <point x="-341" y="1040" type="curve"/>
    </contour>
    <contour>
      <point x="-394" y="1423" type="line"/>
      <point x="-424" y="1479" type="line"/>
      <point x="-451" y="1489"/>
      <point x="-562" y="1500"/>
      <point x="-595" y="1504" type="curve"/>
      <point x="-749" y="1082" type="line"/>
      <point x="-723" y="1066"/>
      <point x="-684" y="1045"/>
      <point x="-662" y="1040" type="curve"/>
    </contour>
    <contour>
      <point x="-500" y="1050" type="move" name="_U"/>
    </contour>
    <contour>
      <point x="-500" y="1370" type="move" name="U"/>
    </contour>
  </outline>
</glyph>
<glyph name="CombCedilla" format="1">
  <advance width="0"/>
  <unicode hex="0327"/>
  <outline>
    <contour>
      <point x="-303" y="-229" type="curve" smooth="yes"/>
      <point x="-303" y="-154"/>
      <point x="-363" y="-108"/>
      <point x="-466" y="-89" type="curve"/>
      <point x="-427" y="12" type="line"/>
      <point x="-550" y="14" type="line"/>
      <point x="-617" y="-197"/>
      <point x="-628" y="-202"/>
      <point x="-629" y="-202" type="curve" smooth="yes"/>
      <point x="-571" y="-207"/>
      <point x="-539" y="-224"/>
      <point x="-539" y="-269" type="curve" smooth="yes"/>
      <point x="-539" y="-312"/>
      <point x="-585" y="-355"/>
      <point x="-701" y="-373" type="curve"/>
      <point x="-664" y="-444" type="line"/>
      <point x="-455" y="-422"/>
      <point x="-303" y="-328"/>
    </contour>
    <contour>
      <point x="-502" y="-600" type="move" name="L"/>
    </contour>
    <contour>
      <point x="-502" y="0" type="move" name="_H"/>
    </contour>
  </outline>
</glyph>
<glyph name="CombOgonek" format="1">
  <advance width="0"/>
  <unicode hex="0328"/>
  <outline>
    <contour>
      <point x="-273" y="-299" type="curve"/>
      <point x="-304" y="-232" type="line"/>
      <point x="-360" y="-283"/>
      <point x="-404" y="-299"/>
      <point x="-437" y="-299" type="curve" smooth="yes"/>
      <point x="-480" y="-299"/>
      <point x="-515" y="-276"/>
      <point x="-515" y="-227" type="curve" smooth="yes"/>
      <point x="-515" y="-164"/>
      <point x="-482" y="-90"/>
      <point x="-344" y="24" type="curve"/>
      <point x="-426" y="43" type="line"/>
      <point x="-642" y="-61"/>
      <point x="-749" y="-180"/>
      <point x="-749" y="-299" type="curve" smooth="yes"/>
      <point x="-749" y="-412"/>
      <point x="-645" y="-444"/>
      <point x="-571" y="-444" type="curve" smooth="yes"/>
      <point x="-459" y="-444"/>
      <point x="-338" y="-370"/>
    </contour>
    <contour>
      <point x="-447" y="0" type="move" name="_O"/>
    </contour>
    <contour>
      <point x="-510" y="-600" type="move" name="L"/>
    </contour>
  </outline>
</glyph>
<glyph name="CombMacronBlw" format="1">
  <advance width="0"/>
  <unicode hex="0331"/>
  <outline>
    <contour>
      <point x="-89" y="-204" type="curve"/>
      <point x="-121" y="-172" type="line"/>
      <point x="-885" y="-172" type="line"/>
      <point x="-897" y="-198"/>
      <point x="-934" y="-274"/>
      <point x="-941" y="-303" type="curve"/>
      <point x="-909" y="-335" type="line"/>
      <point x="-145" y="-335" type="line"/>
      <point x="-135" y="-312"/>
      <point x="-97" y="-233"/>
    </contour>
    <contour>
      <point x="-515" y="-100" type="move" name="_L"/>
    </contour>
    <contour>
      <point x="-515" y="-600" type="move" name="L"/>
    </contour>
  </outline>
</glyph>
<glyph name="CombDblMacron" format="1">
  <advance width="0"/>
  <unicode hex="035E"/>
  <outline>
    <contour>
      <point x="718" y="1762" type="curve"/>
      <point x="687" y="1793" type="line"/>
      <point x="-662" y="1793" type="line"/>
      <point x="-675" y="1767"/>
      <point x="-712" y="1691"/>
      <point x="-718" y="1662" type="curve"/>
      <point x="-687" y="1630" type="line"/>
      <point x="663" y="1630" type="line"/>
      <point x="673" y="1653"/>
      <point x="711" y="1733"/>
    </contour>
    <contour>
      <point x="0" y="1800" type="move" name="U"/>
    </contour>
  </outline>
</glyph>
<glyph name="GrCapPi" format="1">
  <advance width="1350"/>
  <unicode hex="03A0"/>
  <outline>
    <contour>
      <point x="568" y="0" type="line"/>
      <point x="568" y="73" type="line"/>
      <point x="471" y="91"/>
      <point x="430" y="118"/>
      <point x="430" y="134" type="curve" smooth="yes"/>
      <point x="430" y="1077" type="line" smooth="yes"/>
      <point x="430" y="1108"/>
      <point x="479" y="1144"/>
      <point x="582" y="1146" type="curve"/>
      <point x="733" y="1146" type="line" smooth="yes"/>
      <point x="842" y="1146"/>
      <point x="900" y="1108"/>
      <point x="900" y="1077" type="curve" smooth="yes"/>
      <point x="900" y="134" type="line" smooth="yes"/>
      <point x="900" y="116"/>
      <point x="853" y="91"/>
      <point x="763" y="73" type="curve"/>
      <point x="763" y="0" type="line"/>
      <point x="1289" y="0" type="line"/>
      <point x="1289" y="73" type="line"/>
      <point x="1192" y="91"/>
      <point x="1150" y="118"/>
      <point x="1150" y="134" type="curve" smooth="yes"/>
      <point x="1150" y="1125" type="line" smooth="yes"/>
      <point x="1150" y="1144"/>
      <point x="1198" y="1168"/>
      <point x="1289" y="1187" type="curve"/>
      <point x="1289" y="1260" type="line"/>
      <point x="42" y="1260" type="line"/>
      <point x="42" y="1187" type="line"/>
      <point x="138" y="1168"/>
      <point x="180" y="1141"/>
      <point x="180" y="1125" type="curve" smooth="yes"/>
      <point x="180" y="134" type="line" smooth="yes"/>
      <point x="180" y="116"/>
      <point x="132" y="91"/>
      <point x="42" y="73" type="curve"/>
      <point x="42" y="0" type="line"/>
    </contour>
  </outline>
</glyph>
<glyph name="GrSmPi" format="1">
  <advance width="1108"/>
  <unicode hex="03C0"/>
  <outline>
    <contour>
      <point x="1084" y="110" type="curve"/>
      <point x="1054" y="177" type="line"/>
      <point x="979" y="149"/>
      <point x="940" y="143"/>
      <point x="900" y="143" type="curve" smooth="yes"/>
      <point x="838" y="143"/>
      <point x="804" y="236"/>
      <point x="804" y="457" type="curve" smooth="yes"/>
      <point x="804" y="516"/>
      <point x="807" y="608"/>
      <point x="817" y="707" type="curve"/>
      <point x="868" y="707" type="line" smooth="yes"/>
      <point x="946" y="707"/>
      <point x="1034" y="799"/>
      <point x="1111" y="909" type="curve"/>
      <point x="1068" y="960" type="line"/>
      <point x="1027" y="931"/>
      <point x="979" y="930"/>
      <point x="923" y="930" type="curve" smooth="yes"/>
      <point x="267" y="930" type="line" smooth="yes"/>
      <point x="172" y="930"/>
      <point x="78" y="829"/>
      <point x="-6" y="714" type="curve"/>
      <point x="36" y="655" type="line"/>
      <point x="111" y="708"/>
      <point x="156" y="718"/>
      <point x="240" y="718" type="curve" smooth="yes"/>
      <point x="281" y="718" type="line"/>
      <point x="236" y="238"/>
      <point x="200" y="163"/>
      <point x="93" y="12" type="curve"/>
      <point x="93" y="12"/>
      <point x="122" y="-23"/>
      <point x="129" y="-32" type="curve"/>
      <point x="189" y="-15"/>
      <point x="385" y="56"/>
      <point x="421" y="80" type="curve"/>
      <point x="409" y="153"/>
      <point x="407" y="220"/>
      <point x="407" y="315" type="curve" smooth="yes"/>
      <point x="407" y="425"/>
      <point x="413" y="573"/>
      <point x="425" y="716" type="curve"/>
      <point x="518" y="714"/>
      <point x="597" y="711"/>
      <point x="682" y="709" type="curve"/>
      <point x="654" y="499"/>
      <point x="637" y="336"/>
      <point x="637" y="252" type="curve" smooth="yes"/>
      <point x="637" y="69"/>
      <point x="686" y="-31"/>
      <point x="791" y="-31" type="curve" smooth="yes"/>
      <point x="850" y="-31"/>
      <point x="939" y="4"/>
    </contour>
    <contour>
      <point x="593" y="1050" type="move" name="U"/>
    </contour>
    <contour>
      <point x="593" y="-100" type="move" name="L"/>
    </contour>
  </outline>
</glyph>
<glyph name="LtnSmBDotAbv" format="1">
  <advance width="1100"/>
  <unicode hex="1E03"/>
  <outline>
    <contour>
      <point x="829" y="1268" type="curve"/>
      <point x="829" y="1349"/>
      <point x="785" y="1389"/>
      <point x="711" y="1389" type="curve" smooth="yes"/>
      <point x="629" y="1389"/>
      <point x="554" y="1311"/>
      <point x="554" y="1213" type="curve" smooth="yes"/>
      <point x="554" y="1134"/>
      <point x="596" y="1091"/>
      <point x="673" y="1091" type="curve" smooth="yes"/>
      <point x="758" y="1091"/>
      <point x="829" y="1170"/>
    </contour>
    <contour>
      <point x="513" y="0" type="move" name="H"/>
    </contour>
    <contour>
      <point x="1100" y="900" type="move" name="R"/>
    </contour>
    <contour>
      <point x="633" y="1410" type="move" name="U"/>
    </contour>
    <contour>
      <point x="513" y="-100" type="move" name="L"/>
    </contour>
    <component base="LtnSmB"/>
  </outline>
</glyph>
<glyph name="EnDash" format="1">
  <advance width="990"/>
  <unicode hex="2013"/>
  <outline>
    <contour>
      <point x="938" y="554" type="curve"/>
      <point x="906" y="585" type="line"/>
      <point x="99" y="585" type="line"/>
      <point x="87" y="559"/>
      <point x="60" y="501"/>
      <point x="53" y="472" type="curve"/>
      <point x="85" y="440" type="line"/>
      <point x="892" y="440" type="line"/>
      <point x="902" y="462"/>
      <point x="930" y="525"/>
    </contour>
  </outline>
</glyph>
<glyph name="LftSglQuotMrk" format="1">
  <advance width="529"/>
  <unicode hex="2018"/>
  <outline>
    <contour>
      <point x="454" y="961" type="curve"/>
      <point x="438" y="1036" type="line"/>
      <point x="346" y="1038"/>
      <point x="295" y="1090"/>
      <point x="295" y="1163" type="curve" smooth="yes"/>
      <point x="295" y="1250"/>
      <point x="331" y="1337"/>
      <point x="379" y="1400" type="curve"/>
      <point x="314" y="1450" type="line"/>
      <point x="185" y="1368"/>
      <point x="73" y="1205"/>
      <point x="73" y="1058" type="curve" smooth="yes"/>
      <point x="73" y="970"/>
      <point x="105" y="906"/>
      <point x="173" y="856" type="curve"/>
      <point x="220" y="851"/>
      <point x="429" y="928"/>
    </contour>
  </outline>
</glyph>
<glyph name="RtSglQuotMrk" format="1">
  <advance width="531"/>
  <unicode hex="2019"/>
  <outline>
    <contour>
      <point x="454" y="1245" type="curve"/>
      <point x="454" y="1333"/>
      <point x="422" y="1397"/>
      <point x="354" y="1447" type="curve"/>
      <point x="307" y="1452"/>
      <point x="98" y="1375"/>
      <point x="73" y="1342" type="curve"/>
      <point x="89" y="1267" type="line"/>
      <point x="181" y="1265"/>
      <point x="232" y="1213"/>
      <point x="232" y="1140" type="curve" smooth="yes"/>
      <point x="232" y="1054"/>
      <point x="196" y="966"/>
      <point x="148" y="903" type="curve"/>
      <point x="214" y="853" type="line"/>
      <point x="342" y="935"/>
      <point x="454" y="1098"/>
    </contour>
  </outline>
</glyph>
<glyph name="Dagger" format="1">
  <advance width="1007"/>
  <unicode hex="2020"/>
  <outline>
    <contour>
      <point x="920" y="1162" type="line"/>
      <point x="802" y="1113"/>
      <point x="684" y="1086"/>
      <point x="559" y="1077" type="curve"/>
      <point x="568" y="1199"/>
      <point x="597" y="1327"/>
      <point x="646" y="1448" type="curve"/>
      <point x="596" y="1480" type="line"/>
      <point x="551" y="1461"/>
      <point x="407" y="1394"/>
      <point x="356" y="1361" type="curve"/>
      <point x="409" y="1266"/>
      <point x="437" y="1184"/>
      <point x="444" y="1077" type="curve"/>
      <point x="342" y="1086"/>
      <point x="268" y="1113"/>
      <point x="182" y="1162" type="curve"/>
      <point x="149" y="1111"/>
      <point x="74" y="968"/>
      <point x="55" y="923" type="curve"/>
      <point x="88" y="872" type="line"/>
      <point x="205" y="921"/>
      <point x="321" y="949"/>
      <point x="444" y="959" type="curve"/>
      <point x="437" y="869"/>
      <point x="414" y="769"/>
      <point x="371" y="680" type="curve"/>
      <point x="420" y="534"/>
      <point x="444" y="404"/>
      <point x="446" y="273" type="curve" smooth="yes"/>
      <point x="447" y="192"/>
      <point x="425" y="78"/>
      <point x="394" y="-12" type="curve"/>
      <point x="431" y="-40" type="line"/>
      <point x="464" y="-30"/>
      <point x="582" y="19"/>
      <point x="607" y="37" type="curve"/>
      <point x="570" y="118"/>
      <point x="556" y="196"/>
      <point x="557" y="273" type="curve" smooth="yes"/>
      <point x="559" y="400"/>
      <point x="583" y="533"/>
      <point x="631" y="680" type="curve"/>
      <point x="588" y="769"/>
      <point x="564" y="868"/>
      <point x="558" y="959" type="curve"/>
      <point x="662" y="950"/>
      <point x="736" y="922"/>
      <point x="825" y="872" type="curve"/>
      <point x="858" y="923"/>
      <point x="933" y="1067"/>
      <point x="952" y="1112" type="curve"/>
    </contour>
  </outline>
</glyph>
<glyph name="HorizEllipsis" format="1">
  <advance width="1677"/>
  <unicode hex="2026"/>
  <outline>
    <contour>
      <point x="459" y="131" type="curve"/>
      <point x="459" y="225"/>
      <point x="389" y="266"/>
      <point x="315" y="266" type="curve" smooth="yes"/>
      <point x="218" y="266"/>
      <point x="131" y="200"/>
      <point x="131" y="95" type="curve" smooth="yes"/>
      <point x="131" y="0"/>
      <point x="198" y="-40"/>
      <point x="276" y="-40" type="curve" smooth="yes"/>
      <point x="377" y="-40"/>
      <point x="459" y="24"/>
    </contour>
    <contour>
      <point x="1021" y="131" type="curve"/>
      <point x="1021" y="225"/>
      <point x="951" y="266"/>
      <point x="877" y="266" type="curve" smooth="yes"/>
      <point x="780" y="266"/>
      <point x="693" y="200"/>
      <point x="693" y="95" type="curve" smooth="yes"/>
      <point x="693" y="0"/>
      <point x="760" y="-40"/>
      <point x="838" y="-40" type="curve" smooth="yes"/>
      <point x="939" y="-40"/>
      <point x="1021" y="24"/>
    </contour>
    <contour>
      <point x="1584" y="131" type="curve"/>
      <point x="1584" y="225"/>
      <point x="1514" y="266"/>
      <point x="1440" y="266" type="curve" smooth="yes"/>
      <point x="1343" y="266"/>
      <point x="1256" y="200"/>
      <point x="1256" y="95" type="curve" smooth="yes"/>
      <point x="1256" y="0"/>
      <point x="1323" y="-40"/>
      <point x="1401" y="-40" type="curve" smooth="yes"/>
      <point x="1502" y="-40"/>
      <point x="1584" y="24"/>
    </contour>
  </outline>
</glyph>
<glyph name="EuroSgn" format="1">
  <advance width="1036"/>
  <unicode hex="20AC"/>
  <outline>
    <contour>
      <point x="718" y="527" type="line"/>
      <point x="685" y="557" type="line"/>
      <point x="373" y="557" type="line"/>
      <point x="373" y="598" type="line" smooth="yes"/>
      <point x="373" y="624"/>
      <point x="373" y="648"/>
      <point x="374" y="672" type="curve"/>
      <point x="745" y="672" type="line"/>
      <point x="778" y="762" type="line"/>
      <point x="745" y="792" type="line"/>
      <point x="383" y="792" type="line"/>
      <point x="415" y="1053"/>
      <point x="513" y="1103"/>
      <point x="594" y="1103" type="curve" smooth="yes"/>
      <point x="694" y="1103"/>
      <point x="758" y="1049"/>
      <point x="819" y="951" type="curve"/>
      <point x="884" y="937" type="line"/>
      <point x="915" y="968"/>
      <point x="1004" y="1123"/>
      <point x="989" y="1135" type="curve" smooth="yes"/>
      <point x="920" y="1190"/>
      <point x="804" y="1235"/>
      <point x="671" y="1235" type="curve" smooth="yes"/>
      <point x="391" y="1235"/>
      <point x="197" y="1092"/>
      <point x="138" y="792" type="curve"/>
      <point x="76" y="792" type="line"/>
      <point x="68" y="771"/>
      <point x="53" y="725"/>
      <point x="47" y="705" type="curve"/>
      <point x="76" y="672" type="line"/>
      <point x="123" y="672" type="line"/>
      <point x="121" y="643"/>
      <point x="120" y="614"/>
      <point x="120" y="584" type="curve" smooth="yes"/>
      <point x="120" y="557" type="line"/>
      <point x="46" y="557" type="line"/>
      <point x="38" y="536"/>
      <point x="23" y="490"/>
      <point x="17" y="470" type="curve"/>
      <point x="46" y="437" type="line"/>
      <point x="130" y="437" type="line"/>
      <point x="177" y="127"/>
      <point x="371" y="-30"/>
      <point x="581" y="-30" type="curve" smooth="yes"/>
      <point x="705" y="-30"/>
      <point x="825" y="7"/>
      <point x="985" y="189" type="curve"/>
      <point x="970" y="210"/>
      <point x="952" y="238"/>
      <point x="933" y="256" type="curve"/>
      <point x="796" y="133"/>
      <point x="725" y="113"/>
      <point x="653" y="113" type="curve" smooth="yes"/>
      <point x="544" y="113"/>
      <point x="421" y="190"/>
      <point x="384" y="437" type="curve"/>
      <point x="685" y="437" type="line"/>
    </contour>
  </outline>
</glyph>
<glyph name="TradeMrkSgn" format="1">
  <advance width="1234"/>
  <unicode hex="2122"/>
  <outline>
    <contour>
      <point x="1177" y="1225" type="curve"/>
      <point x="1177" y="1261" type="line"/>
      <point x="1037" y="1261" type="line" smooth="yes"/>
      <point x="1026" y="1261"/>
      <point x="1021" y="1259"/>
      <point x="1007" y="1230" type="curve"/>
      <point x="854" y="939" type="line"/>
      <point x="704" y="1230" type="line" smooth="yes"/>
      <point x="691" y="1256"/>
      <point x="685" y="1261"/>
      <point x="674" y="1261" type="curve" smooth="yes"/>
      <point x="530" y="1261" type="line"/>
      <point x="530" y="1225" type="line"/>
      <point x="546" y="1225"/>
      <point x="566" y="1222"/>
      <point x="586" y="1213" type="curve"/>
      <point x="582" y="865" type="line" smooth="yes"/>
      <point x="582" y="859"/>
      <point x="563" y="849"/>
      <point x="526" y="843" type="curve"/>
      <point x="526" y="807" type="line"/>
      <point x="698" y="807" type="line"/>
      <point x="698" y="843" type="line"/>
      <point x="659" y="849"/>
      <point x="643" y="859"/>
      <point x="643" y="865" type="curve" smooth="yes"/>
      <point x="646" y="1137" type="line"/>
      <point x="816" y="807" type="line"/>
      <point x="857" y="807" type="line"/>
      <point x="1029" y="1137" type="line"/>
      <point x="1033" y="865" type="line" smooth="yes"/>
      <point x="1033" y="859"/>
      <point x="1011" y="849"/>
      <point x="974" y="843" type="curve"/>
      <point x="974" y="807" type="line"/>
      <point x="1189" y="807" type="line"/>
      <point x="1189" y="843" type="line"/>
      <point x="1149" y="849"/>
      <point x="1130" y="859"/>
      <point x="1130" y="865" type="curve" smooth="yes"/>
      <point x="1126" y="1216" type="line"/>
      <point x="1145" y="1222"/>
      <point x="1164" y="1225"/>
    </contour>
    <contour>
      <point x="400" y="807" type="line"/>
      <point x="400" y="843" type="line"/>
      <point x="349" y="853"/>
      <point x="337" y="863"/>
      <point x="337" y="869" type="curve" smooth="yes"/>
      <point x="337" y="1208" type="line"/>
      <point x="436" y="1208" type="line" smooth="yes"/>
      <point x="460" y="1208"/>
      <point x="461" y="1179"/>
      <point x="472" y="1135" type="curve"/>
      <point x="503" y="1135" type="line"/>
      <point x="510" y="1163"/>
      <point x="517" y="1225"/>
      <point x="519" y="1249" type="curve"/>
      <point x="503" y="1261" type="line"/>
      <point x="62" y="1261" type="line"/>
      <point x="56" y="1237"/>
      <point x="47" y="1168"/>
      <point x="45" y="1142" type="curve"/>
      <point x="76" y="1133" type="line"/>
      <point x="100" y="1188"/>
      <point x="111" y="1208"/>
      <point x="128" y="1208" type="curve" smooth="yes"/>
      <point x="230" y="1208" type="line"/>
      <point x="230" y="869" type="line" smooth="yes"/>
      <point x="230" y="862"/>
      <point x="217" y="853"/>
      <point x="167" y="843" type="curve"/>
      <point x="167" y="807" type="line"/>
    </contour>
  </outline>
</glyph>
<glyph name="Increment" format="1">
  <advance width="1249"/>
  <unicode hex="2206"/>
  <outline>
    <contour>
      <point x="1184" y="59" type="line"/>
      <point x="1184" y="59"/>
      <point x="842" y="920"/>
      <point x="691" y="1317" type="curve"/>
      <point x="614" y="1286"/>
      <point x="537" y="1252"/>
      <point x="470" y="1207" type="curve"/>
      <point x="344" y="860"/>
      <point x="44" y="59"/>
      <point x="44" y="59" type="curve"/>
      <point x="67" y="0" type="line"/>
      <point x="1156" y="0" type="line"/>
    </contour>
    <contour>
      <point x="874" y="196" type="curve"/>
      <point x="892" y="145"/>
      <point x="894" y="145"/>
      <point x="763" y="145" type="curve" smooth="yes"/>
      <point x="362" y="145" type="line" smooth="yes"/>
      <point x="235" y="145"/>
      <point x="235" y="145"/>
      <point x="253" y="196" type="curve"/>
      <point x="253" y="196"/>
      <point x="430" y="675"/>
      <point x="554" y="1013" type="curve"/>
      <point x="671" y="712"/>
      <point x="874" y="196"/>
    </contour>
  </outline>
</glyph>
<glyph name="MinusSgn" format="1">
  <advance width="863"/>
  <unicode hex="2212"/>
  <outline>
    <contour>
      <point x="810" y="603" type="curve"/>
      <point x="777" y="635" type="line"/>
      <point x="99" y="635" type="line"/>
      <point x="87" y="609"/>
      <point x="60" y="551"/>
      <point x="53" y="522" type="curve"/>
      <point x="85" y="491" type="line"/>
      <point x="764" y="491" type="line"/>
      <point x="774" y="513"/>
      <point x="802" y="575"/>
    </contour>
  </outline>
</glyph>
<glyph name="Infinity" format="1">
  <advance width="1386"/>
  <unicode hex="221E"/>
  <outline>
    <contour>
      <point x="426" y="875" type="curve" smooth="yes"/>
      <point x="236" y="875"/>
      <point x="65" y="703"/>
      <point x="65" y="536" type="curve" smooth="yes"/>
      <point x="65" y="378"/>
      <point x="171" y="280"/>
      <point x="304" y="280" type="curve" smooth="yes"/>
      <point x="409" y="280"/>
      <point x="477" y="315"/>
      <point x="640" y="460" type="curve"/>
      <point x="713" y="373"/>
      <point x="823" y="280"/>
      <point x="958" y="280" type="curve" smooth="yes"/>
      <point x="1148" y="280"/>
      <point x="1319" y="454"/>
      <point x="1320" y="619" type="curve" smooth="yes"/>
      <point x="1321" y="777"/>
      <point x="1213" y="875"/>
      <point x="1080" y="875" type="curve" smooth="yes"/>
      <point x="977" y="875"/>
      <point x="886" y="827"/>
      <point x="738" y="695" type="curve"/>
      <point x="666" y="782"/>
      <point x="560" y="875"/>
    </contour>
    <contour>
      <point x="1018" y="715" type="curve" smooth="yes"/>
      <point x="1105" y="715"/>
      <point x="1156" y="631"/>
      <point x="1156" y="571" type="curve" smooth="yes"/>
      <point x="1156" y="520"/>
      <point x="1126" y="450"/>
      <point x="1038" y="450" type="curve" smooth="yes"/>
      <point x="959" y="450"/>
      <point x="868" y="535"/>
      <point x="807" y="608" type="curve"/>
      <point x="901" y="686"/>
      <point x="957" y="715"/>
    </contour>
    <contour>
      <point x="367" y="441" type="curve" smooth="yes"/>
      <point x="280" y="441"/>
      <point x="229" y="524"/>
      <point x="229" y="585" type="curve" smooth="yes"/>
      <point x="229" y="636"/>
      <point x="258" y="706"/>
      <point x="347" y="706" type="curve" smooth="yes"/>
      <point x="426" y="706"/>
      <point x="514" y="619"/>
      <point x="574" y="545" type="curve"/>
      <point x="474" y="459"/>
      <point x="429" y="441"/>
    </contour>
  </outline>
</glyph>
<glyph name="AlmostEqTo" format="1">
  <advance width="930"/>
  <unicode hex="2248"/>
  <outline>
    <contour>
      <point x="878" y="760" type="curve"/>
      <point x="802" y="841" type="line"/>
      <point x="762" y="786"/>
      <point x="696" y="738"/>
      <point x="635" y="738" type="curve" smooth="yes"/>
      <point x="551" y="738"/>
      <point x="430" y="836"/>
      <point x="309" y="836" type="curve" smooth="yes"/>
      <point x="215" y="836"/>
      <point x="119" y="767"/>
      <point x="52" y="658" type="curve"/>
      <point x="120" y="580" type="line"/>
      <point x="179" y="644"/>
      <point x="223" y="681"/>
      <point x="286" y="681" type="curve" smooth="yes"/>
      <point x="394" y="681"/>
      <point x="502" y="583"/>
      <point x="614" y="583" type="curve" smooth="yes"/>
      <point x="708" y="583"/>
      <point x="811" y="652"/>
    </contour>
    <contour>
      <point x="878" y="463" type="curve"/>
      <point x="802" y="543" type="line"/>
      <point x="762" y="488"/>
      <point x="696" y="440"/>
      <point x="635" y="440" type="curve" smooth="yes"/>
      <point x="551" y="440"/>
      <point x="430" y="538"/>
      <point x="309" y="538" type="curve" smooth="yes"/>
      <point x="215" y="538"/>
      <point x="119" y="469"/>
      <point x="52" y="360" type="curve"/>
      <point x="120" y="283" type="line"/>
      <point x="179" y="347"/>
      <point x="223" y="384"/>
      <point x="286" y="384" type="curve" smooth="yes"/>
      <point x="394" y="384"/>
      <point x="502" y="286"/>
      <point x="614" y="286" type="curve" smooth="yes"/>
      <point x="708" y="286"/>
      <point x="811" y="355"/>
    </contour>
  </outline>
</glyph>
<glyph name="Lozenge" format="1">
  <advance width="740"/>
  <unicode hex="25CA"/>
  <outline>
    <contour>
      <point x="309" y="-7" type="line"/>
      <point x="338" y="7"/>
      <point x="440" y="60"/>
      <point x="467" y="84" type="curve"/>
      <point x="739" y="660" type="line"/>
      <point x="431" y="1295" type="line"/>
      <point x="403" y="1282"/>
      <point x="299" y="1228"/>
      <point x="273" y="1204" type="curve"/>
      <point x="1" y="627" type="line"/>
    </contour>
    <contour>
      <point x="328" y="1033" type="line"/>
      <point x="559" y="582" type="line"/>
      <point x="560" y="581" type="line"/>
      <point x="413" y="254" type="line"/>
      <point x="181" y="705" type="line"/>
      <point x="180" y="705" type="line"/>
    </contour>
  </outline>
</glyph>
<glyph name="LtnCapLMiddleTilde" format="1">
  <advance width="1043"/>
  <unicode hex="2C62"/>
  <outline>
    <contour>
      <point x="1019" y="304" type="curve"/>
      <point x="946" y="330" type="line"/>
      <point x="889" y="174"/>
      <point x="852" y="120"/>
      <point x="729" y="120" type="curve" smooth="yes"/>
      <point x="616" y="120" type="line" smooth="yes"/>
      <point x="470" y="120"/>
      <point x="430" y="147"/>
      <point x="430" y="194" type="curve" smooth="yes"/>
      <point x="430" y="522" type="line"/>
      <point x="446" y="522" type="line" smooth="yes"/>
      <point x="569" y="522"/>
      <point x="654" y="655"/>
      <point x="701" y="763" type="curve"/>
      <point x="624" y="794" type="line"/>
      <point x="579" y="716"/>
      <point x="538" y="678"/>
      <point x="479" y="678" type="curve" smooth="yes"/>
      <point x="463" y="678"/>
      <point x="447" y="681"/>
      <point x="430" y="687" type="curve"/>
      <point x="430" y="1125" type="line" smooth="yes"/>
      <point x="430" y="1144"/>
      <point x="478" y="1168"/>
      <point x="568" y="1187" type="curve"/>
      <point x="568" y="1260" type="line"/>
      <point x="43" y="1260" type="line"/>
      <point x="43" y="1187" type="line"/>
      <point x="139" y="1168"/>
      <point x="180" y="1141"/>
      <point x="180" y="1125" type="curve" smooth="yes"/>
      <point x="180" y="784" type="line"/>
      <point x="168" y="784" type="line" smooth="yes"/>
      <point x="46" y="784"/>
      <point x="-39" y="649"/>
      <point x="-86" y="540" type="curve"/>
      <point x="-11" y="512" type="line"/>
      <point x="38" y="586"/>
      <point x="72" y="627"/>
      <point x="132" y="627" type="curve" smooth="yes"/>
      <point x="148" y="627"/>
      <point x="164" y="624"/>
      <point x="180" y="620" type="curve"/>
      <point x="180" y="134" type="line" smooth="yes"/>
      <point x="180" y="116"/>
      <point x="133" y="91"/>
      <point x="43" y="73" type="curve"/>
      <point x="43" y="0" type="line"/>
      <point x="978" y="0" type="line"/>
      <point x="988" y="39"/>
      <point x="1009" y="189"/>
    </contour>
    <contour>
      <point x="493" y="1370" type="move" name="U"/>
    </contour>
    <contour>
      <point x="526" y="-100" type="move" name="L"/>
    </contour>
  </outline>
</glyph>
<glyph name="ModShortEqSgn" format="1">
  <advance width="715"/>
  <unicode hex="A78A"/>
  <outline>
    <contour>
      <point x="670" y="638" type="curve"/>
      <point x="638" y="671" type="line"/>
      <point x="84" y="671" type="line"/>
      <point x="72" y="646"/>
      <point x="52" y="587"/>
      <point x="45" y="560" type="curve"/>
      <point x="78" y="528" type="line"/>
      <point x="633" y="528" type="line"/>
      <point x="641" y="551"/>
      <point x="663" y="612"/>
    </contour>
    <contour>
      <point x="670" y="363" type="curve"/>
      <point x="638" y="396" type="line"/>
      <point x="84" y="396" type="line"/>
      <point x="72" y="370"/>
      <point x="52" y="312"/>
      <point x="45" y="285" type="curve"/>
      <point x="78" y="252" type="line"/>
      <point x="633" y="252" type="line"/>
      <point x="641" y="276"/>
      <point x="663" y="337"/>
    </contour>
  </outline>
</glyph>
<glyph name="LtnSmSaltillo" format="1">
  <advance width="570"/>
  <unicode hex="A78C"/>
  <outline>
    <contour>
      <point x="432" y="1450" type="line"/>
      <point x="379" y="1480" type="line"/>
      <point x="351" y="1474"/>
      <point x="168" y="1412"/>
      <point x="138" y="1395" type="curve"/>
      <point x="227" y="633" type="line"/>
      <point x="258" y="633"/>
      <point x="333" y="643"/>
      <point x="353" y="654" type="curve"/>
    </contour>
  </outline>
</glyph>
<glyph name="LtnSmLigFl" format="1">
  <advance width="1311"/>
  <unicode hex="FB02"/>
  <outline>
    <contour>
      <point x="1273" y="0" type="line"/>
      <point x="1273" y="73" type="line"/>
      <point x="1164" y="91"/>
      <point x="1130" y="114"/>
      <point x="1130" y="134" type="curve" smooth="yes"/>
      <point x="1130" y="1509" type="line"/>
      <point x="1087" y="1550" type="line"/>
      <point x="1011" y="1519"/>
      <point x="942" y="1501"/>
      <point x="860" y="1486" type="curve"/>
      <point x="816" y="1515"/>
      <point x="733" y="1550"/>
      <point x="650" y="1550" type="curve" smooth="yes"/>
      <point x="569" y="1550"/>
      <point x="452" y="1508"/>
      <point x="354" y="1413" type="curve" smooth="yes"/>
      <point x="247" y="1311"/>
      <point x="185" y="1181"/>
      <point x="185" y="961" type="curve" smooth="yes"/>
      <point x="185" y="930" type="line"/>
      <point x="116" y="930" type="line"/>
      <point x="38" y="841" type="line"/>
      <point x="66" y="805" type="line"/>
      <point x="185" y="805" type="line"/>
      <point x="185" y="132" type="line" smooth="yes"/>
      <point x="185" y="116"/>
      <point x="144" y="89"/>
      <point x="53" y="73" type="curve"/>
      <point x="53" y="0" type="line"/>
      <point x="627" y="0" type="line"/>
      <point x="627" y="73" type="line"/>
      <point x="471" y="102"/>
      <point x="425" y="116"/>
      <point x="425" y="132" type="curve" smooth="yes"/>
      <point x="425" y="805" type="line"/>
      <point x="532" y="805"/>
      <point x="582" y="786"/>
      <point x="613" y="770" type="curve"/>
      <point x="637" y="790"/>
      <point x="686" y="849"/>
      <point x="711" y="894" type="curve"/>
      <point x="674" y="930" type="line"/>
      <point x="425" y="930" type="line"/>
      <point x="425" y="1016" type="line" smooth="yes"/>
      <point x="425" y="1324"/>
      <point x="487" y="1395"/>
      <point x="556" y="1395" type="curve" smooth="yes"/>
      <point x="599" y="1395"/>
      <point x="663" y="1362"/>
      <point x="726" y="1283" type="curve"/>
      <point x="750" y="1295"/>
      <point x="807" y="1341"/>
      <point x="848" y="1384" type="curve"/>
      <point x="882" y="1371"/>
      <point x="890" y="1342"/>
      <point x="890" y="1266" type="curve" smooth="yes"/>
      <point x="890" y="134" type="line" smooth="yes"/>
      <point x="890" y="112"/>
      <point x="863" y="93"/>
      <point x="748" y="73" type="curve"/>
      <point x="748" y="0" type="line"/>
    </contour>
  </outline>
</glyph>
<glyph name="CombBreveGrave.VNLP" format="1">
  <advance width="0"/>
  <outline>
    <contour>
      <point x="-160" y="1368" type="curve"/>
      <point x="-176" y="1392"/>
      <point x="-213" y="1425"/>
      <point x="-236" y="1435" type="curve"/>
      <point x="-303" y="1312"/>
      <point x="-423" y="1255"/>
      <point x="-517" y="1255" type="curve" smooth="yes"/>
      <point x="-606" y="1255"/>
      <point x="-729" y="1313"/>
      <point x="-795" y="1435" type="curve"/>
      <point x="-817" y="1425"/>
      <point x="-854" y="1392"/>
      <point x="-870" y="1368" type="curve"/>
      <point x="-790" y="1153"/>
      <point x="-659" y="1063"/>
      <point x="-513" y="1063" type="curve" smooth="yes"/>
      <point x="-378" y="1063"/>
      <point x="-240" y="1153"/>
    </contour>
    <contour>
      <point x="-402" y="1385" type="curve"/>
      <point x="-629" y="1651" type="line"/>
      <point x="-661" y="1636"/>
      <point x="-748" y="1582"/>
      <point x="-777" y="1562" type="curve"/>
      <point x="-786" y="1515" type="line"/>
      <point x="-452" y="1335" type="line"/>
      <point x="-436" y="1345"/>
      <point x="-413" y="1370"/>
    </contour>
    <contour>
      <point x="-515" y="1050" type="move" name="_U"/>
    </contour>
    <contour>
      <point x="-515" y="1370" type="move" name="U"/>
    </contour>
  </outline>
</glyph>
<glyph name="CombBreveGrave.VN" format="1">
  <advance width="0"/>
  <outline>
    <contour>
      <point x="-160" y="1368" type="curve"/>
      <point x="-176" y="1392"/>
      <point x="-213" y="1425"/>
      <point x="-236" y="1435" type="curve"/>
      <point x="-303" y="1312"/>
      <point x="-423" y="1255"/>
      <point x="-517" y="1255" type="curve" smooth="yes"/>
      <point x="-606" y="1255"/>
      <point x="-729" y="1313"/>
      <point x="-795" y="1435" type="curve"/>
      <point x="-817" y="1425"/>
      <point x="-854" y="1392"/>
      <point x="-870" y="1368" type="curve"/>
      <point x="-790" y="1153"/>
      <point x="-659" y="1063"/>
      <point x="-513" y="1063" type="curve" smooth="yes"/>
      <point x="-378" y="1063"/>
      <point x="-240" y="1153"/>
    </contour>
    <contour>
      <point x="-391" y="1371" type="curve"/>
      <point x="-566" y="1737" type="line"/>
      <point x="-599" y="1735"/>
      <point x="-736" y="1705"/>
      <point x="-762" y="1698" type="curve"/>
      <point x="-791" y="1642" type="line"/>
      <point x="-477" y="1325" type="line"/>
      <point x="-454" y="1332"/>
      <point x="-408" y="1355"/>
    </contour>
    <contour>
      <point x="-515" y="1050" type="move" name="_U"/>
    </contour>
    <contour>
      <point x="-515" y="1750" type="move" name="U"/>
    </contour>
  </outline>
</glyph>
